<?xml version="1.0" encoding="UTF-8"?>
<svg id="Layer_2" data-name="Layer 2" xmlns="http://www.w3.org/2000/svg" viewBox="0 0 80 73.86">
  <defs>
    <style>
      .cls-1 {
        fill: #fcb216;
      }

      .cls-2 {
        fill: #ffc924;
      }

      .cls-3 {
        fill: #fff;
      }

      .cls-4 {
        fill: #092368;
      }

      .cls-5 {
        fill: #2575a7;
      }

      .cls-6 {
        fill: #1a6fa2;
      }

      .cls-7 {
        fill: #080705;
      }

      .cls-8 {
        fill: #fefbfb;
      }

      .cls-9 {
        fill: #cf0b21;
      }

      .cls-10 {
        fill: #06a54f;
      }

      .cls-11 {
        fill: #cf0a21;
      }

      .cls-12 {
        fill: #025a39;
      }

      .cls-13 {
        fill: #fd5;
      }

      .cls-14 {
        fill: #ea5f25;
      }

      .cls-15 {
        fill: #fefefe;
      }
    </style>
  </defs>
  <g id="Layer_2-2" data-name="Layer 2">
    <g>
      <path class="cls-6" d="m80,38.74c-.14.16-.08.38-.1.56-.04.27-.05.56-.1.82-.1.47.07.96-.19,1.42-.08.14,0,.44-.04.67-.13.72-.22,1.46-.39,2.17-.09.36-.08.74-.23,1.07-.2.44-.15.93-.34,1.37-.33.78-.49,1.61-.79,2.4-.13.35-.32.68-.47,1.02-.13.31-.19.68-.33,1.01-.76,1.7-1.58,3.37-2.59,4.93-1.07,1.64-2.18,3.23-3.5,4.69-.8.88-1.64,1.73-2.48,2.57-.87.87-1.81,1.67-2.8,2.4-.93.69-1.84,1.4-2.84,1.97-.43.25-.9.46-1.29.74-.67.47-1.4.8-2.1,1.21-.47.27-.97.52-1.48.7-.67.24-1.28.61-1.96.83-.68.22-1.34.47-2.02.7-.47.16-.97.23-1.43.39-.49.17-.99.31-1.49.42-.98.21-1.95.44-2.93.59-.48.08-.96.18-1.45.21-.93.06-1.86.22-2.8.2-.04,0-.08.01-.1.06h-.5s-.07-.06-.1-.06c-.7,0-1.41,0-2.11,0-.03,0-.07.04-.1.06h-.56c-.05-.09-.08-.12-.21-.09-.26.06-.54.08-.79-.04-.14-.07-.24.04-.35,0-.37-.11-.77.01-1.12-.19-.13-.07-.26.07-.44.03-.34-.08-.7-.2-1.02-.2-.41,0-.81-.07-1.19-.15-.58-.12-1.17-.2-1.74-.39-.33-.11-.72-.12-1.08-.22-1.66-.46-3.3-.96-4.89-1.62-3.06-1.26-5.93-2.85-8.56-4.86-1.17-.89-2.29-1.83-3.35-2.85-2.85-2.72-5.19-5.83-7.08-9.28-.62-1.13-1.15-2.31-1.65-3.49-.48-1.15-.92-2.32-1.22-3.54.01-.01.03-.03.04-.04-.01,0-.03-.01-.04-.02-.04-.13-.08-.25-.12-.38.01-.01.03-.03.04-.04-.01,0-.03-.02-.04-.02-.26-.83-.47-1.68-.62-2.54-.09-.5-.28-1-.29-1.51-.01-.64-.29-1.24-.21-1.89.01-.02.03-.03.04-.05-.01,0-.03-.02-.04-.02-.14-.29-.08-.61-.11-.91-.07-.8-.06-1.61-.08-2.41,0-.5-.04-1,0-1.49.05-.51.04-1.02.11-1.53.05-.35.01-.73.07-1.09.09-.6.1-1.22.25-1.81.05-.05.14-.08.11-.18-.03-.25.1-.5.1-.72,0-.34.1-.64.17-.96.17-.81.32-1.62.61-2.39.06-.02.08-.06.06-.12-.16-.25.07-.44.13-.65.18-.6.39-1.2.59-1.79.02-.02.03-.04.05-.06.01-.08.13-.1.1-.2.06-.02.09-.05.08-.11.05-.29.17-.56.29-.83.15-.32.26-.65.4-.98.28-.69.64-1.34.96-2,.07.14.18.28.22.43.07.29.37.51.26.85-.15.11-.23.26-.3.42-.19.43-.38.86-.57,1.3-.04,0-.06.02-.05.06-.18.48-.33.97-.54,1.44-.33.77-.52,1.58-.79,2.36-.23.67-.33,1.38-.54,2.06-.1.33-.21.67-.18,1.03-.07,0-.13.03-.14.11.11.23.02.44-.08.64-.04-.01-.05,0-.05.04.02.11.12.23-.02.33-.04-.01-.05,0-.05.04.12.2-.01.4-.02.6,0,.42-.03.85-.1,1.26-.15.92-.19,1.83-.2,2.76-.01,1.23-.01,2.47.06,3.7.03.41.1.81.12,1.22.02.56.26,1.1.19,1.66.02.07,0,.16.12.16-.01.06-.05.12-.04.18.26,1,.42,2.02.69,3.02.19.67.37,1.35.58,2.01.25.78.56,1.55.84,2.33,0,.04.01.06.05.06.04.11.07.23.12.34.23.41.4.85.57,1.29,0,.04.01.06.05.06.38.87.84,1.69,1.31,2.5.27.45.46.96.87,1.31-.02.06-.07.12.05.13.02.08.03.15.08.23.45.62.87,1.26,1.33,1.88.33.45.74.84,1.05,1.3.38.55.91.99,1.28,1.54.19.28.44.51.68.74.51.49.97,1.02,1.52,1.47.18.15.44.26.54.43.17.29.46.39.67.62.25.26.57.47.86.7.01.02.03.03.05.04.48.42.97.81,1.52,1.13l.05.06c.4.28.81.56,1.21.84.07.07.11,0,.16-.02,0,.1.06.17.14.22.45.28.89.57,1.37.79.02.01.04.03.07.04.18-.02.2.22.37.21.02.01.04.02.07.04.31.05.46.36.75.44,0,.04,0,.06.05.04.39.21.78.43,1.19.58,0,.02.01.03.02.05.02-.01.03-.03.05-.04.36.24.78.37,1.17.55.37.18.77.31,1.15.48.17.08.35.18.55.17.02.01.04.03.05.04.13.09.28.13.44.13.03.12.09.15.18.06.35.26.77.33,1.17.47.1.04.24-.09.33-.01.36.31.84.29,1.25.46.44.17.92.24,1.38.36.52.13,1.05.25,1.57.33.58.1,1.18.13,1.75.26.79.18,1.6.22,2.4.29.74.06,1.49.09,2.23.08,1.09-.02,2.17,0,3.26-.07.89-.06,1.78-.17,2.67-.26.04,0,.06-.02.06-.05.27.01.52-.09.78-.13.74-.11,1.47-.23,2.19-.42.65-.17,1.31-.31,1.96-.46.1.02.14-.05.19-.11.1,0,.21,0,.3-.03.89-.34,1.79-.63,2.7-.92.1.02.1-.06.12-.11.42-.08.81-.25,1.18-.43.63-.29,1.26-.58,1.88-.89,3.99-1.99,7.53-4.59,10.59-7.85,2.11-2.25,3.91-4.72,5.38-7.43.48-.88.96-1.77,1.3-2.72.02-.02.04-.04.05-.06.05-.13.09-.25.14-.38.02-.02.03-.04.05-.06l.03-.13c.14-.05.15-.18.16-.3.13-.31.25-.62.32-.95.12-.01.12-.1.11-.19,0-.06,0-.12.03-.18.28-.72.53-1.46.71-2.21.11-.46.29-.91.38-1.38.15-.78.36-1.54.5-2.32.18-.99.2-2,.44-2.99-.18-.39.02-.78.01-1.18,0-.53.06-1.05.06-1.58,0-.98-.04-1.95-.13-2.92-.04-.44-.03-.88-.12-1.33-.1-.53-.1-1.07-.2-1.6l.04-.05s-.03-.02-.04-.02c-.24-.77-.26-1.59-.48-2.37-.2-.72-.39-1.45-.59-2.17-.18-.62-.44-1.21-.57-1.84.04-.1-.06-.09-.1-.12,0-.03,0-.06,0-.09-.62-1.64-1.34-3.23-2.19-4.76-.09-.17-.23-.33-.26-.53,0-.04,0-.05-.04-.04-.03-.03-.06-.06-.08-.09-.82-1.44-1.77-2.79-2.77-4.1-.75-.98-1.55-1.9-2.43-2.77-.86-.85-1.69-1.73-2.61-2.51-1.34-1.12-2.72-2.18-4.22-3.09-.79-.48-1.57-.99-2.39-1.4-1.23-.62-2.44-1.28-3.75-1.74-.42-.15-.8-.38-1.25-.44-.03-.08-.11-.08-.17-.1-.11-.04-.21-.11-.33-.08h0s-.03,0-.04,0c-.34-.16-.68-.33-1.02-.49-.1-.05-.22-.15-.32,0-.51-.14-1.02-.28-1.53-.4-.09-.02-.21-.15-.3.02-.02,0-.04,0-.06,0,.04-.05.04-.1-.03-.12-.27-.07-.53-.13-.8-.19-.07-.02-.15,0-.12.11h0c-.03-.19-.21-.16-.33-.21-.53-.18-1.11-.05-1.63-.29-.12-.05-.24.12-.35.04-.37-.28-.81-.1-1.21-.22-.21-.06-.48-.02-.68-.07-.58-.14-1.16-.14-1.74-.18-.66-.04-1.32-.09-1.98-.09-1-.01-2,.07-3.01.13-.15,0-.31-.07-.45-.03-.91.23-1.86.27-2.78.4-.71.1-1.4.27-2.1.41-.72.14-1.43.33-2.15.5-.1-.05-.13.05-.19.1-.54.06-1.02.32-1.52.48-1.41.45-2.78,1.02-4.12,1.64-.91.42-1.78.92-2.67,1.39-.06,0-.14-.05-.17.05-.12.16-.28.27-.46.33-.04-.02-.05,0-.06.04-.12,0-.16.11-.25.15-.04-.02-.05,0-.06.04-.33.22-.67.43-1,.65-.04-.02-.05,0-.06.04-.04.03-.08.06-.12.09-.04-.02-.05,0-.04.04-.19.13-.39.26-.58.4-.04-.02-.05,0-.05.04-.57.43-1.13.86-1.7,1.29-.08.06-.16.08-.25.1-.09.02-.12.09-.12.17h0s-.06.02-.05.06c-.61.54-1.26,1.04-1.84,1.62-.77.78-1.6,1.5-2.27,2.38-.32-.11-.64-.21-.97-.32,1.48-1.75,3.15-3.31,4.94-4.74,1.11-.89,2.26-1.72,3.47-2.47,2.39-1.49,4.9-2.73,7.56-3.66,1.28-.45,2.58-.85,3.9-1.16,1.03-.24,2.06-.48,3.11-.62.67-.09,1.35-.13,2.02-.21,1.01-.13,2.03-.14,3.05-.21,1.04-.07,2.07.03,3.1.04,1.03.02,2.05.17,3.08.28.99.11,1.96.37,2.94.53.33.06.66.14,1,.19.29.04.57.19.87.26,1.66.43,3.29.99,4.87,1.66,3.12,1.3,6.01,2.99,8.67,5.07,2.43,1.91,4.61,4.07,6.51,6.52,1.1,1.42,2.1,2.89,2.98,4.45.57,1,1.11,2.02,1.55,3.09.33.79.71,1.56,1,2.37.39,1.1.7,2.24,1.03,3.36.21.71.38,1.43.49,2.15.12.84.35,1.66.39,2.52.02.45.09.9.11,1.36.02.37.05.8.2,1.18v1.13c-.09.1-.09.21,0,.31v.31c-.1.31-.1.63,0,.94v1Z"/>
      <path class="cls-5" d="m40.93,73.86s.07-.06.1-.06c.7,0,1.41,0,2.11,0,.03,0,.07.04.1.06h-2.31Z"/>
      <path class="cls-5" d="m80,37.74c-.1-.31-.1-.63,0-.94v.94Z"/>
      <path class="cls-5" d="m80,36.49c-.09-.1-.09-.21,0-.31v.31Z"/>
      <path class="cls-11" d="m13.18,13.1c.32.11.64.21.97.32.42.22.89.29,1.34.44,1.16.38,2.34.72,3.5,1.08,1.41.44,2.81.9,4.22,1.34,1.14.35,2.28.68,3.42,1.04,1.5.46,3,.94,4.49,1.41,1.42.44,2.85.89,4.27,1.33,1.27.4,2.53.79,3.8,1.19,1.27.4,2.55.78,3.81,1.19,1.03.34,2.08.62,3.11.98.99.34,2,.62,3,.92.8.24,1.58.52,2.4.71.66.16,1.28.43,1.93.63,1.27.4,2.54.79,3.81,1.19,1.27.4,2.54.79,3.81,1.19,1,.31,1.99.63,2.99.93.31.09.61.24.94.25.19.23.43.48.47.75.08.61.21,1.2.39,1.78.11.36.31.71.32,1.06.01.98.31,1.91.41,2.87.07.67.11,1.33.17,2-.1-.03-.2-.05-.3-.08-.88-.27-1.75-.55-2.63-.82-4.34-1.35-8.67-2.7-13.01-4.06-4.22-1.31-8.44-2.64-12.66-3.94-1.1-.34-2.2-.7-3.3-1.01-1.14-.32-2.25-.72-3.38-1.08-.66-.21-1.31-.43-1.98-.61-.39-.11-.76-.25-1.15-.37-.78-.23-1.55-.47-2.33-.71-.49-.15-.98-.32-1.47-.47-.76-.24-1.53-.46-2.3-.7-.5-.16-1-.33-1.5-.49-.75-.23-1.51-.41-2.24-.68-.83-.3-1.69-.54-2.53-.8-1.09-.34-2.17-.71-3.27-1.01-.83-.22-1.64-.53-2.46-.79-.1-.03-.19-.08-.3-.05h0s-.03-.03-.05-.05c-.03-.04-.06-.08-.09-.13-.5-1.07-.99-2.13-1.49-3.2-.64-1.38-1.27-2.75-1.91-4.13-.27-.58-.57-1.13-.78-1.74,1.07.33,2.13.67,3.2.99,1.13.35,2.26.69,3.38,1.03.32.1.62.26.97.27Z"/>
      <path class="cls-2" d="m5.63,10.8c.2.6.51,1.16.78,1.74.63,1.38,1.27,2.75,1.91,4.13.49,1.07.99,2.13,1.49,3.2.02.05.06.09.09.13.02.02.03.04.05.06,0,0,0,0,0,0,.25.75.63,1.43.96,2.15.81,1.78,1.64,3.54,2.46,5.31.78,1.69,1.56,3.38,2.34,5.06.41.88.78,1.78,1.24,2.63.16.57.48,1.07.72,1.6.78,1.75,1.6,3.49,2.41,5.23.41.88.83,1.76,1.25,2.65.03.08.05.16.09.23.94,2.03,1.88,4.06,2.82,6.1.3.65.62,1.29.86,1.96-.05.03-.09.05-.14.08-.04,0-.07,0-.06.06h0c-.06-.01-.12-.03-.13.06h0c-.25-.01-.45.13-.66.24-.26.14-.38.12-.52-.18-2.47-5.39-4.95-10.77-7.45-16.15-.21-.46-.39-.95-.69-1.37-.05-.2-.11-.39-.2-.58-1.1-2.37-2.2-4.75-3.3-7.12-.74-1.6-1.49-3.2-2.23-4.8-.03-.09-.05-.19-.15-.25-.13-.37-.28-.73-.47-1.07-.08-.14-.12-.31-.29-.38.1-.34-.19-.56-.26-.85-.04-.15-.14-.29-.22-.43-.32-.71-.64-1.42-.96-2.12-.54-1.16-1.08-2.33-1.62-3.49-.77-1.67-1.54-3.34-2.32-5.01-.6-1.28-1.2-2.56-1.79-3.85-.04-.1-.11-.15-.18-.2-.26-.2-.52-.4-.8-.58-.2-.13-.31-.32-.27-.51.08-.43-.14-.81-.15-1.23-.02-.41-.07-.83-.06-1.24,0-.22-.11-.45-.14-.69-.02-.1-.04-.2-.01-.32.21,0,.33.16.46.27.78.67,1.55,1.35,2.33,2.02.14.12.21.24.2.42-.01.29.02.58,0,.87-.04.37.06.69.21,1.02.57,1.21,1.13,2.42,1.7,3.63.24.52.49,1.05.73,1.57Z"/>
      <path class="cls-8" d="m4.79,31.05c.03.1-.06.13-.11.18,0-.08,0-.17.11-.18Z"/>
      <path class="cls-8" d="m6.67,24.05c.01.06-.02.1-.08.11-.06-.1.01-.1.08-.11Z"/>
      <path class="cls-8" d="m5.73,26.86c.01.06,0,.1-.06.12-.08-.09,0-.11.06-.12Z"/>
      <path class="cls-15" d="m4.43,40.48s.03.02.04.02c-.01.02-.03.03-.04.05,0-.02,0-.05,0-.07Z"/>
      <path class="cls-5" d="m6.49,24.36s-.03.04-.05.06c-.02-.04,0-.06.05-.06Z"/>
      <path class="cls-8" d="m5.68,46.93s.03.01.04.02c-.01.01-.03.03-.04.04,0-.02,0-.04,0-.06Z"/>
      <path class="cls-8" d="m5.56,46.49s.03.02.04.02c-.01.01-.03.03-.04.04,0-.02,0-.05,0-.07Z"/>
      <path class="cls-3" d="m64.99,29.23c-.33,0-.63-.15-.94-.25-1-.3-2-.62-2.99-.93-1.27-.4-2.54-.79-3.81-1.19-1.27-.4-2.54-.79-3.81-1.19-.65-.2-1.27-.48-1.93-.63-.81-.2-1.6-.48-2.4-.71-1-.3-2.01-.57-3-.92-1.03-.36-2.08-.64-3.11-.98-1.27-.41-2.54-.8-3.81-1.19-1.27-.39-2.53-.79-3.8-1.19-1.42-.44-2.85-.89-4.27-1.33-1.5-.47-2.99-.94-4.49-1.41-1.14-.35-2.28-.68-3.42-1.04-1.41-.44-2.81-.9-4.22-1.34-1.17-.37-2.34-.71-3.5-1.08-.45-.14-.91-.22-1.34-.44.67-.87,1.5-1.6,2.27-2.38.58-.58,1.23-1.08,1.84-1.62.02-.02.03-.04.05-.06,0,0,0,0,0,0,.11,0,.12-.08.12-.17.09-.02.17-.04.25-.1.56-.43,1.13-.86,1.7-1.29.02-.01.03-.03.05-.04.19-.13.39-.26.58-.4.02,0,.03-.02.04-.04.04-.03.08-.06.12-.09.02-.01.04-.03.06-.04.33-.22.67-.43,1-.65.02-.01.04-.03.06-.04.09-.04.13-.16.25-.15.02-.01.04-.03.06-.04.19-.07.35-.17.46-.33.05-.02.15.1.17-.05.89-.47,1.76-.97,2.67-1.39,1.34-.62,2.7-1.2,4.12-1.64.51-.16.98-.42,1.52-.48.08,0,.17.01.19-.1.71-.17,1.43-.36,2.15-.5.7-.14,1.39-.31,2.1-.41.93-.13,1.87-.17,2.78-.4.14-.03.3.04.45.03,1-.07,2-.14,3.01-.13.66,0,1.33.05,1.98.09.57.04,1.16.04,1.74.18.2.05.47,0,.68.07.4.12.84-.06,1.21.22.11.08.23-.09.35-.04.52.23,1.1.11,1.63.29.12.04.29.02.33.21-.2,0-.4-.07-.59-.11-.48-.11-.48-.11-.35.38,0,.01,0,.03,0,.09-.31-.1-.58-.25-.92-.24-.41,0-.81-.25-1.25-.11-.08.03-.18-.01-.27-.03-.23-.05-.47-.05-.72-.02.01.05.02.09.03.13.19.56.53,1.03.83,1.52.46.74,1.04,1.31,1.92,1.49.39.08.73.16.6.68,0,.03.01.06.02.09.27.88.68,1.66,1.33,2.33.5.52,1.04.97,1.68,1.31.07.04.22.05.18.16-.03.09-.12.21-.25.2-.21-.02-.42.05-.64,0-.14-.03-.27.06-.34.18-.06.09.08.1.12.16.29.36.6.71.88,1.08.27.35.57.67.94.93.09.06.24.1.23.27-.13.05-.35-.03-.38.12-.03.11.11.25.21.36.12.13.21.28.37.38.19.13.33.33.48.51.27.32.52.69.94.84h0c.11.07.23.13.34.2,0,.03,0,.06,0,.09-.12.04-.25.09-.43.15.29.27.54.51.79.75.26.26.49.56.79.77.55.37.98.81,1.17,1.45,0,.02.03.05.06.06.49.21.8.64,1.15,1,.43.45.74,1.02,1.09,1.53.26.37.62.64.83,1.07.4.83.88,1.62,1.56,2.27.15.14.24.3.3.49.32.92.67,1.82,1.42,2.49.1.09.14.22.14.36,0,.16.03.33.08.48.15.48.31.96.47,1.44Z"/>
      <path class="cls-14" d="m55.23,14.62c-.42-.16-.66-.53-.94-.84-.15-.18-.29-.38-.48-.51-.16-.1-.25-.26-.37-.38-.1-.1-.24-.25-.21-.36.04-.15.25-.07.38-.12,0-.16-.14-.2-.23-.27-.36-.26-.66-.58-.94-.93-.28-.37-.59-.71-.88-1.08-.04-.05-.18-.06-.12-.16.07-.12.2-.21.34-.18.22.05.42-.01.64,0,.13,0,.22-.11.25-.2.04-.12-.11-.13-.18-.16-.64-.34-1.18-.79-1.68-1.31-.65-.67-1.07-1.45-1.33-2.33,0-.03-.03-.06-.02-.09.13-.52-.21-.6-.6-.68-.88-.18-1.46-.75-1.92-1.49-.31-.49-.65-.96-.83-1.52-.01-.04-.02-.08-.03-.13.25-.03.49-.03.72.02.09.02.19.06.27.03.44-.15.84.12,1.25.11.34,0,.61.14.92.24,0-.06,0-.08,0-.09-.13-.48-.13-.49.35-.38.2.05.39.11.59.11,0,0,0,0,0,0,.32.04.62.19.95.19.02,0,.04,0,.06,0,.04.12.16.11.25.14.58.21,1.12.49,1.55.94.02.03.05.06.07.09,0-.04.01-.07.02-.11-.08-.22-.03-.46-.06-.68.11-.15.22-.05.32,0,.34.16.68.32,1.02.49.01,0,.03,0,.04,0,0,0,0,0,0,0,.08.1.2.14.32.18.04.02.08.05.12.07.41.29.83.55,1.17.93.07.08.17.09.18-.02.05-.28.18-.14.29-.07.99.61,2.03,1.14,2.72,2.16.06-.44.07-.45.4-.21.35.25.71.5,1.05.77.56.45,1.05.94,1.4,1.57.02.05.02.12.08.14,0-.05,0-.09,0-.14.17-.38.16-.37.47-.08.19.18.39.36.59.53.56.46,1.04.98,1.4,1.61.09.15.15.3.31.06.07-.1.12-.02.17.03.84.84,1.76,1.63,2.16,2.86.18-.38.33-.72.49-1.05.12-.26.18-.26.34-.02.36.55.72,1.09,1.03,1.67.18.33.29.68.37,1.04.02.08.05.18.11.21.09.04.14-.05.19-.12.05-.07.1-.13.13-.21.03-.09.06-.15.16-.15.1,0,.18.07.19.14.04.31.27.52.39.79.32.68.67,1.35.77,2.11.02.14.09.18.2.04.09-.11.17-.23.27-.34.07-.07.17-.14.2.02.08.37.36.66.4,1.04-.01.04.01.05.05.05l.08.26s0,.05.04.05c.19.55.36,1.11.43,1.7.03.07-.04.17.05.22.01,0,.07-.07.1-.11.17-.12.25-.34.47-.42.05.18.1.34.15.5-.01.04,0,.05.05.06.32.97.69,1.93.59,2.99.28-.1.36-.44.66-.48,0,.02.02.04.04.04l.05.2s0,.05.04.06c.06.38.23.74.26,1.13,0,.04.02.06.05.06.08.57.22,1.13.19,1.75.2-.15.36-.27.54-.41.23,1.17.53,2.29.34,3.46-.04,0-.06.02-.05.06.01.12,0,.25.18.1.16-.13.32-.29.54-.35.17,1.15.39,2.29.08,3.44-.05.01-.07.05-.05.09.04.06.08.03.11-.02.17-.02.28-.16.43-.23.13-.06.2-.04.19.12,0,.36.05.72.06,1.08.02.76-.06,1.51-.28,2.24-.02.03-.05.05-.07.08.05.03.09.02.13-.02.23-.06.41-.23.64-.27.07.2-.09.36-.08.5.03.41.02.8-.03,1.21-.06.48-.06.96-.27,1.4-.08.17,0,.32.14.31.32-.02.26.18.25.35,0,.12-.03.24-.06.36-.15.62-.04,1.28-.37,1.86-.02.03,0,.08,0,.12-.04.06-.14.08-.1.18,0,.05-.01.09-.02.14-.04.02-.08.06-.06.08.04.03.11.04.15-.02.09,0,.17-.01.27-.02-.08.42-.16.82-.24,1.22-.16.78-.35,1.56-.84,2.22-.28.38-.35.84-.54,1.26-.17.37-.27.77-.62,1.02-.19-.1-.04-.25-.04-.37,0-.18.2-.34.04-.53.01-.16,0-.33.03-.5.04-.19-.22-.58-.39-.61-.33-.06-.61.07-.89.22-.24.14-.02.34-.06.51,0,.04,0,.08,0,.12-.1-.06-.22-.04-.32-.06-.04-.45-.23-.85-.47-1.22-.14-.22-.27-.47-.58-.52.08-.14.08-.29.06-.44.52.3.82.79,1.11,1.28.09-.03.12-.1.11-.15-.11-.52.03-1,.27-1.45.08-.14.08-.21-.11-.26-.28-.06-.56-.17-.79-.35-.14-.12-.27-.09-.37.05-.04.06-.07.13-.16.13.09-.6.05-1.21.06-1.81.1.49.23.97.64,1.31.27.22.56.41.93.37.25-.03.3-.14.17-.36-.28-.52-.36-1.04-.1-1.6.1-.22.12-.41-.19-.54-.19-.08-.39-.06-.57-.16-.17-.09-.29-.31-.49-.31-.22,0-.2.33-.4.41-.08-.12-.14-.24-.14-.4-.01-.58-.04-1.15-.07-1.73.44-.44.6-.99.57-1.6-.03-.54-.28-.93-.68-1.02,0-.27-.06-.54.05-.81.31-.61.28-1.22,0-1.82-.22-.47-.7-.52-1.06-.16-.25.25-.38.57-.55.86-.08.15-.05.24.06.35.23.23.39.51.49.82-.02.19-.11.34-.19.51-.02-.08-.05-.16-.07-.24-.24-.69-.65-1.22-1.33-1.52-.4-.18-.81.06-.85.48-.05.5.01.99.22,1.46.27.62,1.14,1.07,1.71.88,0,.14-.03.27-.11.38-.31.03-.25.3-.32.49,0,.01-.02.02-.02.03,0,0,.02-.02.03-.03h.17c-.07.49-.18.97-.36,1.44-.27-.49-.55-.56-1.04-.26-.28.17-.44.46-.69.66-.2.17-.21.32-.08.5.3.41.48.87.48,1.38,0,.22.09.24.27.17.26-.1.46-.28.66-.46-.06.27-.12.54-.19.81-.52,0-.83.37-1.16.7-.12.12-.17.25-.13.42-.18-.04-.35-.09-.5-.18-.1-.25-.3-.43-.52-.55-.24-.14-.5-.13-.69.13-.22,0-.07.23-.18.3-.21.28-.18.61-.18.93-.05.17-.04.38-.26.46-.16-.1-.17-.26-.19-.43-.12-.93.02-1.85.06-2.77,0-.14.12-.25.08-.4-.18-.81-.08-1.63-.06-2.45.01-.36-.11-.68-.16-1.01-.05-.67-.1-1.34-.17-2-.1-.96-.39-1.89-.41-2.87,0-.36-.21-.71-.32-1.06-.17-.58-.31-1.17-.39-1.78-.04-.27-.28-.52-.47-.75-.16-.48-.32-.96-.47-1.44-.05-.15-.07-.32-.08-.48,0-.14-.04-.27-.14-.36-.75-.67-1.1-1.57-1.42-2.49-.07-.19-.16-.35-.3-.49-.68-.65-1.15-1.44-1.56-2.27-.21-.43-.57-.7-.83-1.07-.36-.52-.66-1.09-1.09-1.53-.35-.36-.66-.79-1.15-1-.02,0-.05-.04-.06-.06-.2-.64-.63-1.08-1.17-1.45-.3-.2-.53-.51-.79-.77-.25-.24-.51-.48-.79-.75.18-.06.3-.11.43-.15.03,0,.06-.01.08-.02l-.09-.08c-.11-.07-.23-.14-.34-.2,0,0-.01-.01-.01-.01h.02Zm8.21,1.37s.02.02.03.02c0-.01-.02-.02-.02-.03,0-.27-.14-.52-.14-.79,0-.41-.02-.43-.42-.38-.19.02-.45-.23-.53.03-.05.16.02.4.02.61,0,.1.04.15.14.17.33.06.6.26.92.37Zm10.57,19.5c.16-.02.28-.12.42-.19.12-.06.19-.06.2.11,0,.61.02,1.22-.09,1.83-.03.14-.02.24.09.33.18.16.35.33.56.44.4.21.77.01.84-.44.04-.24.01-.47,0-.7-.03-.61-.76-1.57-1.35-1.74-.33-.1-.58.04-.65.36,0,0-.02,0-.02,0,0,0,0,.01,0,.02,0,0,.02-.02.03-.03Zm-9.6-11c.05,0,.1,0,.16,0,.54,0,.83-.36.69-.88-.11-.4-.32-.73-.65-.99-.44-.35-.92-.61-1.49-.63-.42-.02-.61.19-.62.6,0,.23.03.44.14.66.36.74.91,1.21,1.77,1.24Zm1.58,3.5c-.63,0-.97.42-.74.92.34.72.83,1.26,1.57,1.59.59.26,1.15-.08,1.12-.72-.05-.93-.9-1.78-1.95-1.79Zm-7.52-19.68c.23,0,.42-.05.51-.28.11-.27.18-.55.12-.85-.19-.88-.74-1.41-1.59-1.66-.59-.17-.99.21-.86.81.08.37.22.72.43,1.03.33.5.79.84,1.39.94Zm4.38,1.37c-.26,0-.51.23-.53.51-.02.19-.03.38,0,.56.11.84.47,1.52,1.27,1.89.37.17.64.06.8-.32.3-.7.14-1.34-.32-1.91-.31-.39-.71-.66-1.22-.73Zm4.09,4.42c0-.83-.62-1.71-1.31-1.94-.41-.14-.68.02-.81.43-.09.29-.06.57-.01.86.13.73.45,1.33,1.13,1.69.31.16.56.09.74-.21.16-.28.24-.59.26-.83Zm-10.69-8.37c-.06-1.16-1.02-1.83-1.92-1.92-.41-.04-.72.28-.69.66.08.83.85,1.77,1.64,2,.61.18.97-.1.97-.74Zm5.63,3.72c0-.9-.69-1.77-1.53-1.97-.54-.13-.88.12-.83.67.06.79.36,1.47,1.04,1.93.28.19.59.4.95.21.36-.19.31-.58.37-.84Zm-7.98.65c-.77-.05-.86.37-.76.79.23.99,1.46,1.82,2.46,1.42.46-.19.61-.48.37-.93-.44-.82-1.16-1.2-2.07-1.28Zm-4.45-5.37c.11,0,.23.01.34,0,.44-.05.67-.36.56-.78-.28-1.15-1.7-1.66-2.62-1.24-.44.2-.55.54-.27.93.48.68,1.13,1.08,1.99,1.1Zm3.71,2.69c-.11,0-.23-.01-.34,0-.6.07-.84.48-.56,1.01.36.69,1.5,1.44,2.52.92.55-.28.63-.7.21-1.16-.49-.55-1.12-.76-1.83-.77Zm11.8,17.63c-.2-.02-.43,0-.65.08-.2.08-.41.17-.43.43-.03.39.48,1.18.85,1.28.45.12.87.31,1.29.49.36.15.77-.14.8-.52.07-.84-.95-1.82-1.87-1.76Zm-.4-3.76c0,.42.18.79.44,1.1.16.18.31.39.6.41.38.03.76.07,1.13.13.54.09.74-.14.59-.68-.24-.92-1.25-1.58-2.14-1.63-.45-.03-.62.15-.63.61,0,.02,0,.04,0,.06Zm10.87,21.55c-.03.15.05.35.18.53.14.19.28.24.49.06.27-.24.61-.39.96-.49.21-.06.35-.17.43-.36.19-.44.28-.89.21-1.39-.07-.52-.45-.79-.9-.54-.83.46-1.32,1.15-1.36,2.2Zm-19.49-30.28c-.23.03-.45.17-.7.19-.26.02-.37.19-.32.45.11.63.52,1.05,1.04,1.36.16.09.32.22.52.17.33-.07.67-.11,1.01-.12.32-.01.5-.28.41-.58-.24-.89-1.2-1.37-1.96-1.47Zm20,27.63c.05-.51-.2-.92-.46-1.33-.18-.27-.4-.51-.69-.66-.22-.12-.38-.12-.46.17-.1.35-.26.67-.49.95-.08.1-.07.2-.05.32.06.41.3.74.53,1.06.21.3.55.43.91.48.37.05.6-.13.65-.5.02-.16.1-.32.06-.49Zm-7.49-10.46c-.11.4.22.72.38,1.09.03.07.1.1.17.12.45.15.87.37,1.3.57.32.15.44.12.58-.2.06-.13.09-.28.07-.42-.09-.84-.83-1.73-1.64-1.99-.64-.2-.9.16-.86.65,0,.04,0,.08,0,.18Zm-8.47-12.55c-.94,0-1.18.38-.85,1.07.03.07.06.13.1.19.28.48.61.84,1.26.75.32-.05.66-.05.99.04.15.04.33-.02.41-.16.09-.17.15-.38.06-.55-.45-.86-1.2-1.28-1.97-1.33Zm-7.63-12.06c.67,0,.87-.26.71-.92-.26-1.11-1.56-1.61-2.47-1.33-.21.06-.33.14-.16.39.17.25.26.54.26.85,0,.12.02.24.11.32.44.4.92.72,1.55.7Zm15.03,21.66c0,.48.14.97.52,1.21.5.32,1.12.44,1.7.62.13.04.22-.06.28-.15.13-.21.17-.47.09-.68-.3-.81-.82-1.41-1.67-1.67-.62-.19-.92.03-.92.67Zm0,11.22c0,.06,0,.12,0,.19.01.43.1.8.54,1.03.32.17.61.4.84.68.17.21.33.17.51.05.15-.1.2-.26.23-.42.23-.98-.4-1.94-1.05-2.39-.43-.3-.82-.14-1.01.35-.07.17-.05.35-.06.52Zm-.31-3.13c0,.18-.02.32,0,.45.04.24.08.51.29.66.44.31.9.59,1.35.88.2.13.35.08.47-.11.08-.13.13-.28.14-.44.03-.98-.42-1.69-1.23-2.19-.39-.25-.78-.14-.98.24-.09.18-.02.37-.05.5Zm-3.45-16.94c.37,0,.54-.3.39-.67-.38-.95-1.37-1.37-2.22-1.38-.65,0-.88.4-.62,1,.04.1.08.2.14.28.25.28.42.67.85.71.49.04,1-.04,1.46.06Zm-4.37-1.12c.14,0,.24,0,.35,0,.32,0,.47-.19.39-.5-.02-.08-.06-.15-.1-.23-.47-.88-1.54-1.19-2.28-1.14-.5.04-.74.3-.66.71.12.59.54.97,1.04,1.25.05.03.12,0,.18,0,.37-.04.74-.11,1.08-.1Zm1.62,3.35c.07.55.36.98.75,1.35.03.03.08.05.11.04.59-.03,1.17.11,1.76.13.16,0,.24-.07.25-.21.02-.17.03-.35-.05-.52-.35-.82-1.36-1.45-2.25-1.39-.34.02-.63.13-.58.6Zm7.95,5.09s0-.06,0-.1c-.24-1.03-1.19-1.76-2.15-1.84-.34-.03-.51.19-.54.53-.04.49.17.88.41,1.28.12.21.29.29.51.3.4.02.77.12,1.14.28.41.18.64.02.64-.45Zm-5.43-11.88c.06-.29-.07-.49-.36-.67-.32-.2-.54-.51-.73-.84-.17-.31-.45-.46-.76-.36-.3.09-.39.35-.41.63-.02.31.04.6.14.89.24.68.64,1.21,1.36,1.43.26.08.45,0,.58-.23.14-.25.19-.52.18-.85Zm-2.64-2.2c.1-.4-.07-.65-.42-.83-.33-.17-.54-.48-.73-.79-.07-.11-.12-.21-.26-.25-.26-.08-.51-.12-.74.07-.24.21-.24.49-.2.77.14.88.66,1.47,1.42,1.88.41.23.75.08.9-.36.05-.16.03-.33.04-.49Zm5.76,20.62c-.01.39.09.76.25,1.11.05.11.13.17.24.22.44.16.85.39,1.22.68.25.19.43.15.57-.14.09-.18.13-.35.03-.55-.16-.32-.18-.71-.31-1.03-.18-.44-.59-.73-1.03-.94-.56-.26-1.01.02-.98.65Zm-4.44-16.64c.02-.18-.07-.34-.17-.48-.53-.76-1.3-1.03-2.19-1-.62.02-.84.4-.6.97.14.34.47.49.69.74.18.21.37.23.64.2.42-.06.85-.14,1.27-.09.31.04.37-.09.36-.35Zm15.06,22.15c-.25.11-.64.15-.83.54-.08.18-.18.34-.3.5-.1.14-.24.3-.11.5.24.4.31.85.36,1.3.02.18.06.24.25.19.5-.16.9-.43,1.13-.91.26-.55.39-1.1.13-1.69-.11-.24-.23-.45-.63-.42Zm-13.48-19.01c-.57,0-.84.3-.69.79.1.33.28.62.5.89.12.15.26.2.46.21.56.03,1.13.04,1.67.22.12.04.19.02.24-.11.05-.15.06-.3,0-.45-.27-.88-1.19-1.54-2.18-1.54Zm-7.79-9.01c-.23-.04-.51.04-.75.25-.25.21-.24.4.04.55.45.24.82.56,1.05,1.03.06.12.13.22.27.23.45.03.89.05,1.29-.22.34-.23.41-.5.19-.85-.47-.72-1.17-.99-2.09-.99Zm13.4,23.4c-.01.53.18.92.46,1,.51.14.94.43,1.38.7.33.2.42.18.53-.2.03-.09.05-.18.05-.27-.07-.99-.8-1.88-1.66-2.13-.33-.1-.55,0-.65.34-.07.22-.09.45-.11.57Zm.26,9.41c-.06-.85-.36-1.56-1.14-2.01-.33-.19-.58-.08-.77.26-.23.41-.16.84-.16,1.28,0,.09.07.12.13.16.48.34.91.75,1.31,1.19.19.2.32.15.45-.04.18-.25.19-.54.19-.84ZM49.82,5.4c.08.86.39,1.49.98,1.98.08.06.16.12.28.08.31-.09.62-.18.93-.25.23-.05.24-.15.15-.35-.11-.24-.24-.5-.27-.76-.09-.77-.68-1-1.26-1.21-.4-.14-.82.2-.81.51Zm8.06,6.21c-.26-.02-.5.05-.73.14-.19.07-.32.21-.34.44-.02.23.12.3.28.39.32.18.62.39.81.71.12.2.27.24.47.19.42-.11.86-.14,1.29-.17.21-.02.27-.11.28-.29.01-.18-.07-.33-.16-.46-.46-.67-1.14-.89-1.9-.95Zm8.87,4.38c-.84,0-1.08.37-.81,1.01.12.28.3.52.51.74.17.18.27.15.4-.05.38-.57.39-.57.71.06.06.11.09.24.25.25.2.01.39.05.59.06.31.02.46-.16.39-.46-.02-.1-.06-.2-.11-.29-.43-.85-1.18-1.21-1.94-1.31Zm4.19,9.91c.04-.3-.12-.59-.26-.88-.15-.32-.35-.6-.73-.58-.35.02-.59.26-.74.61-.1.24-.11.48-.17.71-.06.22,0,.36.18.47.21.15.4.33.58.51.16.16.15.39.3.57.17.21.23.12.37,0,.4-.38.5-.84.47-1.41Zm1.12,2.93c-.02-.37-.17-.84-.31-1.08-.27-.45-.71-.49-1.09-.14-.28.25-.31.6-.45.91-.11.24-.08.42.14.59.36.28.6.65.76,1.08.1.28.26.3.47.06.38-.44.47-.97.48-1.42Zm.89,3.05c-.02-.38-.08-.74-.29-1.07-.31-.5-.81-.51-1.15-.03-.2.29-.32.63-.49.93-.06.11-.06.23.07.32.43.34.71.78.82,1.31.04.17.09.2.25.09.54-.39.76-.93.79-1.56Zm-3.97-7.36c.73-.53.88-2.06-.05-2.83-.33-.28-.65-.27-.9.08-.29.38-.35.84-.4,1.29-.01.12.03.19.14.25.52.28.9.69,1.2,1.21Zm5.14-1.16c-.07-.36-.21-.81-.56-1.17-.31-.32-.7-.28-.96.07-.26.35-.34.77-.4,1.19-.01.08-.02.17.07.22.47.31.85.69,1.06,1.22.07.17.16.15.27.03.38-.41.54-.89.51-1.56Zm-1.44-2.32c.06-.19-.02-.38-.06-.57-.12-.52-.3-1.01-.82-1.28-.24-.12-.43-.08-.62.09-.47.42-.38.99-.45,1.52,0,.06.06.1.12.12.51.2.89.57,1.16,1.03.11.19.2.14.3,0,.2-.28.39-.55.38-.93Zm3.57,8.14c.08-.41-.12-.74-.31-1.07-.22-.38-.63-.42-.95-.13-.37.33-.5.78-.65,1.22-.04.13.05.19.13.26.4.31.67.71.83,1.18.08.24.17.22.32.08.47-.41.7-.91.64-1.55Zm-7.11-13.43c.04-.75-.31-1.29-.84-1.74-.32-.27-.72-.2-.93.15-.19.33-.22.7-.23,1.08,0,.36.16.56.53.66.38.1.69.37.95.68.15.18.24.14.33-.05.13-.25.21-.52.18-.78Zm8.44,19.65c.02-.29-.02-.6-.15-.89-.2-.45-.63-.54-1.01-.24-.31.25-.49.58-.68.91-.09.15-.07.24.04.38.31.36.52.77.61,1.24.02.1-.06.26.07.3.12.03.27,0,.37-.11.43-.44.8-.9.75-1.59Zm-1.54-1.38c1.13-.46,1.3-2.01.66-2.86-.17-.23-.41-.26-.67-.13-.5.27-.68.76-.88,1.24-.04.09.02.16.08.22.45.41.7.94.81,1.53Zm-6.18-17.57c-.17.03-.31.09-.42.23-.15.19-.26.42-.28.65-.02.42-.24.92.41,1.14.37.13.6.47.87.74.19.19.31.15.39-.1.02-.05.03-.1.05-.14.41-.81,0-1.73-.48-2.22-.15-.15-.33-.25-.54-.29Zm-.05,4.55c-.13.03-.45-.1-.28.27.22.48.33.99.42,1.51.02.11-.03.24.14.3.19.07.24-.07.34-.14.07-.05.2-.2.24-.04.08.32.34.31.56.4.2.08.4.16.58,0,.2-.17.18-.41.12-.64-.24-.9-1.21-1.64-2.12-1.66Zm4.73,6.98c.26-.43.7-.64.77-1.11.09-.64,0-1.24-.49-1.72-.3-.3-.59-.29-.89.02-.26.27-.37.59-.47.94-.07.22-.06.38.13.51.47.31.75.76.95,1.38Zm-6.96-6.16c.15-.26.27-.48.41-.7.09-.13.16-.31.14-.5-.06-.54-.25-1.03-.6-1.44-.36-.42-.82-.42-1.13.03-.11.16-.17.38-.19.58-.05.4-.08.78.39,1.03.41.21.68.59.98,1.01Zm4.85,4.49c-.25-.02-.31.02-.26.21.11.48.16.98.22,1.47.03.26.03.56.38.66.23.06.44.18.66.25.19.07.45.2.64-.03.17-.2.21-.43.14-.7-.09-.38-.23-.74-.49-1.03-.37-.42-.82-.72-1.3-.83Zm2.58,19.35c-.02.23.03.3.28.2.49-.2.99-.38,1.53-.45.13-.02.32,0,.39-.19.18-.45.21-.91.03-1.36-.11-.28-.45-.35-.74-.28-.31.08-.49.28-.7.48-.46.43-.74.97-.79,1.6Zm-3.69-21.98c-.41,0-.37,0-.34.27.06.45.28.86.29,1.32,0,.21.06.44.36.46.39.03.75.14,1.1.29.12.05.27.18.4.03.11-.13.14-.29.11-.47-.05-.25-.12-.5-.25-.72-.42-.67-1.02-1.07-1.67-1.2Zm2.09,7.49c-.08.14-.05.26.1.3.36.09.66.29.98.47.25.14.44.07.55-.18.09-.2.11-.45.06-.63-.19-.78-.62-1.41-1.37-1.75-.57-.26-.53-.17-.52.31,0,.08.01.17.03.24.11.41.04.84.17,1.24Zm-15.46-22.07c.04-.34-.07-.65-.45-.84-.26-.13-.47-.35-.62-.61-.2-.36-.52-.42-.87-.41-.32,0-.54.23-.56.55-.02.31.11.59.22.87.07.19.19.26.4.27.55.02,1.06.18,1.52.48.09.06.17.2.29.15.13-.06.06-.23.07-.34,0-.02,0-.04,0-.12Zm10.59,11.15c.1-.1.2-.19.28-.3.14-.2.2-.14.27.06.09.26.2.52.52.57.24.04.5.23.73-.01.21-.22.14-.48.04-.73-.35-.85-1.3-1.46-2.2-1.42-.2,0-.24.07-.16.24.12.28.29.56.3.88.01.27.09.5.23.72Zm7.16,14.13c.01-.79-.36-1.32-.82-1.8-.2-.21-.44-.35-.72-.43-.19-.05-.24,0-.21.2.07.5.17,1,.18,1.5.01.34.05.6.41.73.17.06.32.19.48.29.38.25.53.2.66-.26.03-.1.03-.2.03-.22ZM54.94,7.36c0-.48-.09-.66-.46-.91-.22-.15-.41-.33-.56-.53-.28-.38-.67-.44-1.07-.4-.42.04-.59.3-.53.72.04.27.14.52.3.74.05.07.1.12.2.1.68-.1,1.3.07,1.87.42.28.17.26.03.25-.14Zm10.16,9.64c-.23-.3-.47-.61-.7-.91-.2-.27-.19-.3.14-.35.32-.05.64-.08.95-.12.09-.01.21.05.24-.07.03-.12-.08-.18-.17-.23-.4-.23-.67-.57-.83-.98-.11-.27-.3-.35-.56-.34-.27.01-.42.17-.49.41-.18.7,0,1.34.38,1.93.23.35.54.65,1.03.67Zm5.96,20.92c.02-.15-.06-.19-.14-.21-.45-.16-.81-.42-1.05-.83-.05-.09-.14-.2-.27-.15-.2.08-.35.64-.22.83.21.33.34.69.48,1.05.06.17-.1.44.13.49.18.04.35-.16.5-.28.31-.23.48-.56.57-.89Zm-6.76-20.83c.11.3.09.53.07.75-.01.15.02.21.16.27.55.21,1,.54,1.35,1.01.16.21.19.01.24-.08.19-.34.16-.68-.06-.99-.2-.27-.4-.6-.71-.66-.33-.07-.67-.11-1.05-.31Zm-3.72-4.71c-.09.05-.23.05-.36.06-.06,0-.1.06-.08.11.11.24.04.54.15.75.09.17.4.12.59.21.15.06.2.02.14-.13-.12-.27-.2-.54-.22-.84,0-.11-.07-.17-.22-.16Zm7.09,18.44c.18.13.32.23.46.33.05.03.09.11.15.05.05-.05.05-.13,0-.17-.13-.12-.06-.29-.13-.44-.16.08-.31.15-.49.24Zm-.53-2.96s.03-.03.04-.04c-.06-.1-.11-.22-.18-.31-.09-.12-.21-.02-.26.03-.07.07.04.11.09.15.1.06.21.12.31.18Zm-.35-12.48c-.14.19-.35.16-.61.21q.63.05.61-.21Z"/>
      <path class="cls-3" d="m78,42.44s.01-.09.02-.14c.11-.02.1-.1.1-.18,0-.04-.01-.09,0-.12.33-.58.22-1.25.37-1.86.03-.12.06-.24.06-.36,0-.17.07-.37-.25-.35-.15,0-.23-.15-.14-.31.22-.44.22-.93.27-1.4.05-.41.06-.8.03-1.21-.01-.14.15-.3.08-.5-.24.04-.42.21-.64.27-.02-.02-.04-.04-.05-.06.22-.73.3-1.49.28-2.24-.01-.36-.07-.72-.06-1.08,0-.16-.07-.18-.19-.12-.15.07-.26.21-.43.23-.02-.02-.04-.05-.07-.07.31-1.15.1-2.29-.08-3.44-.22.06-.38.22-.54.35-.19.15-.17.02-.18-.1.02-.02.03-.04.05-.06.2-1.17-.11-2.3-.34-3.46-.18.14-.34.26-.54.41.03-.62-.11-1.18-.19-1.75-.02-.02-.03-.04-.05-.06-.03-.39-.2-.75-.26-1.13-.01-.02-.03-.04-.04-.06-.02-.07-.03-.14-.05-.21,0-.04.05-.08-.01-.11,0,.02-.02.05-.03.07-.3.04-.38.39-.66.48.09-1.07-.27-2.02-.59-2.99-.02-.02-.03-.04-.05-.06-.05-.16-.1-.32-.15-.5-.22.09-.3.31-.47.42-.03-.07-.08-.11-.16-.11-.07-.58-.24-1.14-.43-1.7-.01-.02-.03-.04-.04-.05l-.08-.26s-.03-.04-.05-.05c-.04-.38-.33-.67-.4-1.04-.03-.15-.14-.09-.2-.02-.1.11-.18.22-.27.34-.1.14-.18.1-.2-.04-.1-.76-.44-1.43-.77-2.11-.13-.26-.36-.48-.39-.79,0-.07-.09-.14-.19-.14-.11,0-.13.06-.16.15-.03.08-.08.14-.13.21-.05.07-.1.17-.19.12-.06-.03-.09-.13-.11-.21-.08-.36-.19-.71-.37-1.04-.31-.58-.67-1.13-1.03-1.67-.16-.24-.22-.24-.34.02-.16.34-.32.67-.49,1.05-.4-1.23-1.32-2.01-2.16-2.86-.05-.05-.1-.13-.17-.03-.16.24-.22.09-.31-.06-.36-.63-.84-1.15-1.4-1.61-.2-.17-.4-.35-.59-.53-.31-.29-.3-.3-.47.08-.03,0-.06,0-.09,0-.35-.63-.85-1.12-1.4-1.57-.34-.27-.7-.52-1.05-.77-.33-.24-.34-.23-.4.21-.69-1.02-1.73-1.55-2.72-2.16-.11-.07-.24-.21-.29.07-.02.11-.11.1-.18.02-.33-.38-.76-.64-1.17-.93.02-.02.05-.05.07-.07.45.05.84.29,1.25.44,1.3.46,2.52,1.12,3.75,1.74.82.42,1.6.92,2.39,1.4,1.5.92,2.88,1.97,4.22,3.09.93.78,1.75,1.66,2.61,2.51.88.86,1.69,1.79,2.43,2.77,1,1.31,1.96,2.66,2.77,4.1.02.03.05.06.08.09,0,.02.02.03.04.04.03.2.17.36.26.53.84,1.54,1.57,3.12,2.19,4.76.01.03,0,.06,0,.09,0,.07.03.11.1.12.13.63.4,1.22.57,1.84.2.72.39,1.45.59,2.17.22.78.24,1.6.48,2.37,0,.02,0,.05,0,.07.1.53.1,1.08.2,1.6.09.45.08.89.12,1.33.09.97.12,1.94.13,2.92,0,.53-.07,1.06-.06,1.58,0,.39-.19.78-.01,1.18-.23.98-.26,1.99-.44,2.99-.14.78-.35,1.54-.5,2.32-.09.47-.27.92-.38,1.38-.18.75-.43,1.49-.71,2.21-.02.05-.02.12-.03.18-.05.06-.13.09-.11.19-.07.33-.19.64-.32.95-.11.07-.25.13-.16.3l-.03.13s-.06.02-.05.06c-.05.13-.09.25-.14.38-.04,0-.06.02-.05.06-.34.95-.82,1.84-1.3,2.72-1.47,2.71-3.26,5.18-5.38,7.43-3.06,3.26-6.6,5.86-10.59,7.85-.62.31-1.25.59-1.88.89-.37.17-.76.35-1.18.43-.07,0-.12.04-.12.11-.9.29-1.81.58-2.7.92-.09.04-.2.02-.3.03-.09,0-.18-.01-.19.11-.65.15-1.31.29-1.96.46-.72.19-1.46.31-2.19.42-.26.04-.51.14-.78.13-.02.02-.04.03-.06.05-.89.09-1.78.19-2.67.26-1.08.08-2.17.05-3.26.07-.75.01-1.49-.02-2.23-.08-.8-.07-1.61-.11-2.4-.29-.57-.13-1.17-.16-1.75-.26-.53-.09-1.05-.2-1.57-.33-.46-.11-.94-.18-1.38-.36-.41-.16-.89-.15-1.25-.46-.09-.08-.23.05-.33.01-.39-.14-.82-.22-1.17-.47-.04-.08-.12-.06-.18-.06-.16,0-.31-.04-.44-.13,0-.04-.01-.06-.05-.04-.21.01-.38-.09-.55-.17-.38-.17-.78-.3-1.15-.48-.39-.19-.8-.32-1.17-.55-.02,0-.04,0-.07,0-.42-.16-.8-.37-1.19-.58-.02-.01-.04-.03-.05-.04-.29-.08-.44-.39-.75-.44-.01-.03-.02-.06-.07-.04-.17.01-.2-.23-.37-.21-.01-.03-.02-.06-.07-.04-.48-.22-.92-.52-1.37-.79-.08-.05-.14-.12-.14-.22-.07-.11-.12-.05-.16.02-.4-.28-.81-.56-1.21-.84,0-.04-.01-.06-.05-.06-.55-.32-1.04-.71-1.52-1.13.01-.05,0-.05-.05-.04-.29-.23-.61-.44-.86-.7-.21-.22-.5-.33-.67-.62-.1-.17-.36-.28-.54-.43-.55-.45-1.01-.98-1.52-1.47-.24-.23-.49-.46-.68-.74-.38-.56-.9-.99-1.28-1.54-.32-.46-.72-.85-1.05-1.3-.46-.61-.88-1.25-1.33-1.88-.05-.08-.06-.15-.08-.23,0-.05.01-.1-.05-.13-.41-.35-.61-.86-.87-1.31-.48-.81-.94-1.63-1.31-2.5-.02-.02-.03-.04-.05-.06-.17-.44-.34-.88-.57-1.29-.06-.1-.08-.22-.12-.34-.02-.02-.03-.04-.05-.06-.28-.77-.59-1.54-.84-2.33-.21-.66-.4-1.34-.58-2.01-.27-1-.43-2.02-.69-3.02-.01-.05.02-.12.04-.18.03-.1,0-.16-.12-.16.07-.57-.17-1.1-.19-1.66-.02-.41-.09-.81-.12-1.22-.08-1.23-.08-2.46-.06-3.7.01-.92.05-1.84.2-2.76.07-.4.09-.84.1-1.26,0-.2.14-.39.02-.6.02-.01.03-.03.05-.04.14-.1.04-.22.02-.33.02-.01.03-.03.05-.04.1-.21.19-.41.08-.64.06-.02.18.04.14-.11-.04-.36.08-.7.18-1.03.21-.68.31-1.39.54-2.06.27-.78.46-1.6.79-2.36.2-.47.36-.96.54-1.44.02-.02.03-.04.05-.06.19-.43.38-.86.57-1.3.07-.16.15-.31.3-.42.17.07.21.24.29.38.19.34.33.71.47,1.07-.04.09-.08.17-.12.26h0s-.06.01-.05.06c-.17.44-.34.88-.52,1.32-.04,0-.06.02-.05.06-.03.08-.05.17-.08.25-.04,0-.06.02-.05.06-.07.22-.12.45-.21.67-.24.55-.37,1.14-.55,1.71-.04.01-.11-.02-.1.07,0,.05.03.1.09.1-.06.06-.12.12-.12.21-.12.07-.16.14-.01.23-.2.4-.26.84-.35,1.28-.07.01-.07.06-.06.12-.02.17-.05.33-.07.5-.04,0-.06.02-.05.06-.1.58-.19,1.16-.29,1.74-.1.56-.17,1.13-.22,1.7-.07.02-.06.07-.05.12-.18,2.31-.17,4.63,0,6.94,0,.07-.04.15.06.18,0,.09-.02.19,0,.28.15.82.26,1.64.42,2.46.22,1.14.49,2.27.83,3.39.47,1.56,1.06,3.08,1.76,4.54.46.95.88,1.92,1.49,2.79,0,.02.02.03.04.04.03.16.12.28.2.41.39.61.77,1.23,1.15,1.84-.02.09.04.1.1.1.09.14.13.31.29.39-.07.09-.02.13.07.13.2.27.39.54.59.81-.01.08.03.11.11.1.08.19.28.31.33.52.03.09.09.12.17.11.05.07.1.14.14.2-.02.13.02.2.17.18.07.09.13.17.2.26-.02.11.04.11.12.09.49.64,1.09,1.19,1.63,1.8.28.31.61.58.92.86.07.1.15.19.25.25l.76.68c-.03.23.23.14.3.26.02.02.04.04.06.06,0,.12.08.17.19.17.18.16.36.33.58.46,0,.08.05.1.11.1.37.29.79.52,1.13.84-.01.05.01.06.05.04.04.05.08.1.13.15.03.06.08.06.13.02.05.14.21.14.3.23.01.03.02.06.07.04.36.23.71.47,1.07.7,0,.05.02.06.06.04.04.03.08.06.13.08.01.03.02.06.06.04.33.12.57.38.88.52,0,.04,0,.06.06.04.09.04.13.16.25.15.01.03.02.06.06.04.02,0,.05.02.07.02,0,.04.01.06.06.05.1.11.23.17.37.2.01.03.02.06.06.04.02,0,.05.02.07.02,0,.04.01.07.06.04.37.19.75.39,1.12.58.01.03.02.06.06.04.02,0,.05.01.07.02,0,.04.01.06.06.05.35.14.72.26,1.01.51.02.1.08.13.17.11.13.02.25.05.38.07,0,.04.01.06.06.05.11.05.2.15.34.08,0,.06.02.12.1.1.08.05.16.08.25.07,0,.04.02.06.06.05.04,0,.09,0,.13,0,.05.06.08.13.18.12.07.03.13.08.21.03,0,.07.02.11.1.1.11.02.2.1.32.07.05.05.08.13.18.12.5.19,1.05.26,1.52.52.29.16.62.19.92.29.38.12.79.16,1.19.27,0,.04.02.06.06.05.06,0,.12,0,.19.01,0,.04.02.06.06.05.22.12.47.08.7.1,0,.09.05.09.11.08l1.06.2c.04.09.12.05.19.05.24.03.48.07.72.12.55.11,1.1.18,1.66.2.03.04.02.15.12.08.17,0,.33,0,.5,0,.02.07.07.06.12.05.35.04.7.05,1.05.06,2.3.05,4.6.11,6.88-.23.95-.14,1.9-.26,2.83-.46,1.5-.32,2.99-.72,4.44-1.23,1.23-.43,2.42-.92,3.55-1.56.05,0,.1-.02.12-.06.02,0,.04,0,.06-.01,1.14-.63,2.28-1.26,3.39-1.93.89-.54,1.78-1.08,2.67-1.63.42-.22.74-.57,1.09-.86.74-.61,1.47-1.25,2.16-1.92.91-.88,1.81-1.77,2.67-2.7.8-.86,1.46-1.83,2.26-2.68.42-.44.79-.93,1.14-1.43.2-.3.47-.57.62-.89.17-.36.37-.72.56-1.07.46-.83.81-1.7,1.14-2.58.26-.69.33-1.45.73-2.09.36-.25.46-.65.62-1.02.19-.41.25-.88.54-1.26.49-.66.68-1.43.84-2.22.08-.39.16-.79.24-1.22-.09,0-.18.01-.27.02-.03-.02-.06-.04-.09-.06Z"/>
      <path class="cls-3" d="m52.96,3.19c-.43-.46-.97-.73-1.55-.94-.09-.03-.21-.02-.25-.14.09-.17.21-.04.3-.02.51.13,1.02.27,1.53.4.03.23-.02.46.06.68-.03,0-.06.01-.09.02Z"/>
      <path class="cls-3" d="m51.1,2.11c-.33,0-.63-.15-.95-.19-.03-.11.04-.13.12-.11.27.06.53.12.8.19.07.02.07.06.03.12Z"/>
      <path class="cls-5" d="m76.34,50.43c-.09-.18.05-.23.16-.3,0,.13-.02.25-.16.3Z"/>
      <path class="cls-8" d="m54.69,3.17c-.12-.04-.23-.09-.32-.18.12-.03.23.04.33.08,0,.03-.01.07-.02.1Z"/>
      <path class="cls-5" d="m29.24,70.62c.07,0,.14-.02.18.06-.1.08-.16.06-.18-.06Z"/>
      <path class="cls-8" d="m5.55,42.55c.11,0,.15.06.12.16-.11,0-.1-.09-.12-.16Z"/>
      <path class="cls-15" d="m54.69,3.17s.01-.07.02-.1c.07.02.14.02.17.1-.02.02-.05.05-.07.07-.04-.02-.08-.05-.12-.07Z"/>
      <path class="cls-8" d="m5.84,30.19c.03.15-.08.09-.14.11.02-.08.07-.11.14-.11Z"/>
      <path class="cls-8" d="m31.75,2.33c-.02.11-.11.1-.19.1.05-.05.08-.14.19-.1Z"/>
      <path class="cls-5" d="m76.82,49.18c-.02-.1.07-.13.11-.19,0,.09,0,.17-.11.19Z"/>
      <path class="cls-8" d="m18.43,9.19c0,.09,0,.17-.12.17,0-.08.03-.15.12-.17Z"/>
      <path class="cls-15" d="m52.43,71.54c.01-.12.1-.11.19-.11-.05.06-.09.14-.19.11Z"/>
      <path class="cls-5" d="m21.63,66.89c.05-.08.09-.14.16-.02-.05.02-.1.09-.16.02Z"/>
      <path class="cls-15" d="m76.98,24.86c-.07,0-.1-.05-.1-.12.04.03.14.02.1.12Z"/>
      <path class="cls-8" d="m23.24,5.94c-.02.15-.11.03-.17.05.03-.11.11-.05.17-.05Z"/>
      <path class="cls-15" d="m55.62,70.48c0-.08.05-.11.12-.11-.02.06-.03.14-.12.11Z"/>
      <path class="cls-5" d="m10.75,55.8c.06.03.05.08.05.13-.12,0-.07-.07-.05-.13Z"/>
      <path class="cls-8" d="m21.24,7.2s-.04.03-.06.04c.01-.03.02-.06.06-.04Z"/>
      <path class="cls-8" d="m22.62,6.32s-.04.03-.06.04c.01-.03.02-.06.06-.04Z"/>
      <path class="cls-8" d="m22.3,6.51s-.04.03-.06.04c.01-.03.02-.06.06-.04Z"/>
      <path class="cls-15" d="m78.63,31.31s0-.05,0-.07c.01,0,.03.02.04.02-.01.02-.03.03-.04.05Z"/>
      <path class="cls-8" d="m5.62,30.94s-.03.03-.05.04c0-.04,0-.06.05-.04Z"/>
      <path class="cls-8" d="m5.55,31.32s-.03.03-.05.04c0-.04,0-.06.05-.04Z"/>
      <path class="cls-8" d="m8.5,51.93s.03.04.05.06c-.04,0-.06-.02-.05-.06Z"/>
      <path class="cls-8" d="m21.05,7.32s-.02.03-.04.04c0-.04,0-.06.04-.04Z"/>
      <path class="cls-8" d="m54.38,2.99s-.03,0-.04,0c.01,0,.03,0,.04,0Z"/>
      <path class="cls-5" d="m18.8,64.82s.06,0,.05.04c-.02,0-.03-.02-.05-.04Z"/>
      <path class="cls-5" d="m76.07,51.05s.01-.06.05-.06c-.02.02-.04.04-.05.06Z"/>
      <path class="cls-5" d="m76.26,50.61s.01-.06.05-.06c-.02.02-.03.04-.05.06Z"/>
      <path class="cls-8" d="m7.75,50.24s.03.04.05.06c-.04,0-.06-.01-.05-.06Z"/>
      <path class="cls-8" d="m20.43,7.76l-.05.04s0-.06.05-.04Z"/>
      <path class="cls-5" d="m20.37,65.99s.06.02.05.06l-.05-.06Z"/>
      <path class="cls-8" d="m18.31,9.37s-.03.04-.05.06c0-.04.02-.06.05-.06Z"/>
      <path class="cls-5" d="m23.31,67.88s.05,0,.07.04c-.02-.01-.04-.03-.07-.04Z"/>
      <path class="cls-5" d="m23.75,68.14s.05,0,.07.04c-.02-.01-.04-.02-.07-.04Z"/>
      <path class="cls-8" d="m24.56,68.61s.04.03.05.04c-.04.02-.05,0-.05-.04Z"/>
      <path class="cls-8" d="m7.93,23.24s-.03.04-.05.06c-.01-.04.01-.06.05-.06Z"/>
      <path class="cls-8" d="m25.81,69.24s.04,0,.07,0c-.02.01-.03.03-.05.04,0-.02-.01-.03-.02-.05Z"/>
      <path class="cls-5" d="m28.75,70.45s.05,0,.05.04c-.02-.01-.04-.03-.05-.04Z"/>
      <path class="cls-15" d="m74.42,19.36s-.03-.02-.04-.04c.04-.01.05,0,.04.04Z"/>
      <path class="cls-15" d="m47.44,72.6s.04-.03.06-.05c0,.04-.02.06-.06.05Z"/>
      <path class="cls-4" d="m66.74,37.7c.04.34.17.66.16,1.01-.02.82-.12,1.64.06,2.45.03.15-.08.26-.08.4-.04.92-.18,1.84-.06,2.77.02.17.03.33.19.43-.01.18-.02.37-.09.54-.53,1.26-1.12,2.5-1.77,3.7-.08.16-.14.35-.32.44-.36-.1-.72-.2-1.08-.31-8.49-2.52-16.98-5.05-25.46-7.58-4.2-1.25-8.4-2.51-12.61-3.75-1.2-.35-2.39-.75-3.62-1.04-.49-.12-.98-.3-1.46-.47-.58-.2-1.18-.3-1.76-.5-.63-.21-1.26-.4-1.89-.58-.46-.86-.84-1.75-1.24-2.63-.78-1.69-1.56-3.38-2.34-5.06-.82-1.77-1.66-3.54-2.46-5.31-.32-.71-.7-1.4-.96-2.15.11-.03.2.02.3.05.82.27,1.63.57,2.46.79,1.1.3,2.18.67,3.27,1.01.84.26,1.7.5,2.53.8.73.26,1.49.45,2.24.68.5.15,1,.33,1.5.49.76.24,1.53.46,2.3.7.49.15.98.32,1.47.47.78.24,1.55.48,2.33.71.38.12.76.26,1.15.37.66.18,1.32.4,1.98.61,1.13.36,2.24.75,3.38,1.08,1.11.32,2.2.67,3.3,1.01,4.22,1.3,8.44,2.62,12.66,3.94,4.34,1.35,8.67,2.7,13.01,4.06.88.27,1.75.55,2.63.82.1.03.2.05.3.08Zm-29.24,2.72c.86.33,1.75.48,2.67.32,1.2-.21,2.25-.68,3.14-1.56.69-.68,1.12-1.48,1.35-2.38.24-.94.2-1.9-.1-2.84-.7-2.16-2.58-3.4-4.57-3.58-.87-.08-1.74.02-2.56.37-1.39.59-2.36,1.59-2.95,2.97-.33.78-.36,1.6-.3,2.42.02.23-.03.5.16.7-.08,0-.1.07-.09.13,0,.02.07.03.1.04.06.4.27.75.46,1.1.44.8,1.07,1.43,1.85,1.9,0,.03.01.07.06.04.22.14.45.25.7.34,0,.04.01.06.06.05Z"/>
      <path class="cls-4" d="m9.93,20.05s-.03-.04-.05-.06c.02.02.03.04.05.06Z"/>
      <path class="cls-11" d="m13.7,57.8c-.2-.27-.39-.54-.59-.81,0-.06-.02-.11-.07-.13-.16-.08-.2-.26-.29-.39-.01-.06-.04-.09-.1-.1-.38-.61-.77-1.23-1.15-1.84-.08-.13-.17-.25-.2-.41.01-.04,0-.06-.04-.04-.61-.87-1.03-1.84-1.49-2.79-.71-1.47-1.29-2.98-1.76-4.54-.34-1.11-.61-2.24-.83-3.39-.16-.82-.27-1.64-.42-2.46-.02-.09,0-.19,0-.28.09-.1.06-.16-.06-.18-.17-2.31-.18-4.63,0-6.94.08-.01.15-.04.05-.12.05-.57.12-1.14.22-1.7.1-.58.19-1.16.29-1.74.02-.02.03-.04.05-.06.02-.17.05-.33.07-.5.07-.01.15-.03.06-.12.08-.43.15-.87.35-1.28.01-.08.13-.15.01-.23,0-.09.06-.15.12-.21,0-.05,0-.11.01-.16.18-.57.31-1.16.55-1.71.09-.21.14-.44.21-.67.02-.02.03-.04.05-.06.03-.08.05-.17.08-.25.02-.02.03-.04.05-.06.17-.44.34-.88.52-1.32.02-.02.03-.04.05-.05h0c.09,0,.18-.01.27-.01.74,1.6,1.49,3.2,2.23,4.8,1.1,2.37,2.2,4.75,3.3,7.12.09.19.15.38.2.58-.16.62-.08,1.27-.09,1.9,0,.51.03,1.05.08,1.57.06.61.12,1.22.22,1.82.12.7.3,1.4.45,2.1.35,1.62.96,3.14,1.64,4.63.52,1.14,1.16,2.21,1.83,3.27.82,1.29,1.82,2.44,2.83,3.58.48.54,1.03,1.03,1.57,1.51.23.2.43.45.72.59.02.02.03.03.05.05.79.7,1.64,1.32,2.53,1.89.64.41,1.29.82,1.98,1.16,2.9,1.6,6.02,2.54,9.28,3.01,1,.15,2.02.23,3.04.22,1.04-.01,2.08,0,3.12-.08.81-.06,1.6-.26,2.41-.34.69-.07,1.37-.3,2.05-.47,1.4-.35,2.73-.88,4-1.55.22-.12.44-.25.68-.32.02-.01.04-.03.06-.04.45-.21.9-.42,1.32-.69.41-.21.81-.43,1.22-.64.45-.23.85-.54,1.33-.71.06.07.11.15.18.21,1.43,1.36,2.8,2.78,4.14,4.23.56.61,1.19,1.16,1.69,1.82-.89.55-1.78,1.09-2.67,1.63-1.12.67-2.25,1.31-3.39,1.93-.02,0-.04,0-.06.01-.1-.1-.11-.01-.12.06-1.13.64-2.33,1.13-3.55,1.56-1.45.51-2.94.91-4.44,1.23-.93.2-1.88.32-2.83.46-2.29.34-4.59.28-6.88.23-.35,0-.7-.03-1.05-.06-.01-.08-.03-.14-.12-.05-.17,0-.33,0-.5,0-.01-.07-.01-.16-.12-.08-.56-.02-1.12-.09-1.66-.2-.24-.05-.48-.09-.72-.12-.03-.13-.09-.15-.19-.05l-1.06-.2c-.01-.06-.02-.14-.11-.08-.24-.03-.48.01-.7-.1-.02-.02-.04-.03-.06-.05-.06,0-.12,0-.19-.01-.02-.02-.04-.03-.06-.05-.39-.11-.8-.15-1.19-.27-.3-.09-.63-.13-.92-.29-.47-.26-1.02-.33-1.52-.52,0-.12-.1-.11-.18-.12-.12.03-.21-.05-.32-.07,0-.06-.02-.12-.1-.1-.08.06-.14,0-.21-.03,0-.12-.1-.11-.18-.12-.04,0-.09,0-.13,0-.02-.02-.04-.03-.06-.05-.09,0-.18-.02-.25-.07,0-.06-.02-.12-.1-.1-.14.07-.23-.04-.34-.08-.02-.02-.04-.03-.06-.05-.13-.02-.25-.05-.38-.07.03-.17-.08-.13-.17-.11-.3-.25-.66-.37-1.01-.51-.02-.02-.04-.03-.06-.05-.02,0-.05-.01-.07-.02-.02-.01-.04-.02-.06-.04-.37-.19-.75-.39-1.12-.58-.02-.01-.04-.03-.06-.04-.02,0-.05-.02-.07-.02-.02-.01-.04-.02-.06-.04-.14-.03-.27-.1-.37-.2-.02-.02-.04-.03-.06-.05-.02,0-.05-.02-.07-.02-.02-.01-.04-.02-.06-.04-.12.01-.16-.11-.25-.15-.02-.01-.04-.03-.06-.04-.31-.14-.56-.4-.88-.52-.02-.01-.04-.02-.06-.04-.04-.03-.08-.06-.13-.08-.02-.01-.04-.03-.06-.04-.36-.23-.71-.47-1.07-.7-.02-.01-.04-.03-.07-.04-.09-.09-.25-.08-.3-.23-.03-.07-.07-.11-.13-.02-.04-.05-.08-.1-.13-.15-.02-.01-.03-.03-.05-.04-.35-.32-.76-.55-1.13-.84,0-.07-.05-.1-.11-.1-.22-.12-.39-.29-.58-.46-.01-.11-.08-.16-.19-.17-.02-.02-.04-.04-.06-.06.03-.23-.17-.2-.3-.26l-.76-.68c-.01-.15-.01-.32-.25-.25-.31-.29-.64-.55-.92-.86-.54-.6-1.13-1.16-1.63-1.8-.02-.06-.05-.09-.12-.09-.07-.09-.13-.17-.2-.26-.01-.1-.06-.16-.17-.18-.05-.07-.1-.14-.14-.2-.01-.11-.09-.11-.17-.11-.04-.22-.24-.33-.33-.52-.01-.06-.04-.1-.11-.1Zm32.01,9.7c-.17-.03-.23.05-.2.21-.35.61-.36,1.22.02,1.64.38.44.83.52,1.28.19.26-.19.35-.52.23-.81-.12-.28-.32-.46-.65-.43-.09,0-.19,0-.28,0-.12,0-.13-.07-.09-.14.1-.18.2-.37.42-.42.22-.05.35.09.44.26.08.14.14.28.21.42.12.24.22.49.39.71.59.77,1.7.32,1.92-.28.12-.34.15-.69.09-1.04-.07-.41-.07-.82-.1-1.23-.04-.69-.3-1.19-.96-1.42-1.06-.38-2.19-.28-3.09.64-.31.31-.26.52.09.74.24.15.38.15.47-.15.02-.08.1-.15.15-.23.22,0,.32-.1.32-.31.52-.38,1.1-.34,1.66-.15.32.11.56.38.52.77-.04.36.1.68.11,1.03.01.38.06.76-.03,1.14-.04.17-.08.31-.26.34-.19.03-.27-.13-.34-.27-.16-.3-.3-.62-.46-.92-.39-.71-1.32-.69-1.85-.3Zm-31.83-21.26c-.15-.02-.21.04-.19.19-.2.08-.4.19-.61.24-.74.16-1.5.17-2.24.31-.63.12-.62.08-.54.62.04.29.2.29.41.25.06-.01.11-.04.17-.05.84-.12,1.68-.24,2.51-.38.71-.12,1.13-.66,1.25-1.36.08-.52,0-1.01-.13-1.49-.11-.41-.33-.83-.69-1.03-.44-.24-.97-.32-1.44.02-.12.09-.24.1-.4.08-.42-.05-.84-.07-1.24.1-.76.32-1.11,1.03-.67,1.79.16.27.41.38.7.33.25-.05.46-.17.56-.46.12-.37.03-.67-.23-.93.41-.22.59-.13.59.28,0,.06,0,.13,0,.19-.02.31.17.52.41.64.25.13.51.03.72-.12.24-.17.36-.4.3-.7-.03-.15-.08-.3-.12-.44.08-.03.12-.09.12-.18.15.05.33.01.44.17-.02.14.04.21.19.2.31.57.46,1.14.13,1.75Zm4.49,6.87c.5.41.7.95.69,1.58,0,.49-.64.96-1.07.77-.23-.1-.48-.23-.62-.47.02-.14-.04-.21-.19-.19-.37-.34-.61-.8-1.02-1.11-.28-.22-.6-.28-.95-.27-.21,0-.24.2-.35.3-.3.28-.33.69-.11,1.06.26.45.62.8,1.08,1.04.15.08.31.18.44.29.26.22.24.44-.04.63-.37.24-.75.46-1.13.69-.04,0-.08.02-.07.07,0,.03.05.04.08.06.05.19.14.36.27.51,0,.04.01.09.06.09.05,0,.06-.05.06-.09.02-.01.04-.02.06-.01.02-.01.04-.03.07-.04.12-.07.25-.14.37-.21.02-.01.05-.03.07-.04.13-.07.23-.18.38-.21.02-.02.04-.03.06-.05.42-.29.64-.68.56-1.2-.02-.02-.03-.04-.05-.06-.08-.33-.36-.5-.58-.71-.02-.01-.04-.03-.07-.04-.04-.02-.07-.04-.1-.06-.34-.23-.75-.36-.91-.8-.04-.12-.07-.21.02-.31.09-.1.19-.11.3-.06.16.07.34.12.45.28.03.06-.07.24.13.13.23.22.46.43.68.65,0,.1.06.16.16.17.51.51,1.04.98,1.85.63.02-.01.04-.03.06-.04.02,0,.04-.01.07-.02.02-.02.04-.03.06-.05.18-.15.36-.29.45-.52.02-.02.03-.04.05-.06.06-.17.13-.34.13-.54,0-.75-.24-1.4-.72-1.96-.38-.44-.84-.75-1.45-.7-.62.05-.84.3-1.01.86-.09.31.19.87.54,1.06.2.11.41.12.62.02.44-.21.52-.4.44-1.06.07,0,.14,0,.2,0Zm6.01,8.48c-.29.1-.57.18-.84.28-.77.28-1.24,1.11-1,1.76.29.81.93,1.27,1.7,1.52.72.24,1.33-.03,1.81-.72.77-1.11,1.53-2.23,2.3-3.34.11-.16.12-.25-.06-.34-.07-.04-.15-.08-.2-.14-.2-.19-.31-.11-.44.09-.73,1.09-1.47,2.17-2.23,3.24-.57.8-1.3.75-1.88.07-.37-.43-.34-.83,0-1.28.28-.37.69-.51,1.11-.63.47-.15.84-.4.96-.91.09-.35-.05-.63-.32-.85-.27-.22-.57-.26-.88-.11-.31.15-.44.4-.42.76.02.27.23.4.38.6Zm10.69,4.02c-.04-.61-.38-.86-.95-.88-.34-.01-.66.27-.75.61-.06.24.1.62.37.76.31.15.23.25.02.41-.21.15-.41.31-.59.51-.61.69-.48,1.69.29,2.17.57.36,1.2.55,1.88.43.62-.11,1.05-.47,1.21-1.1.16-.64.32-1.28.48-1.93.19-.75.37-1.51.55-2.26.02-.08.08-.18-.08-.21-.16-.03-.32-.08-.48-.12-.14-.04-.2-.02-.24.16-.3,1.3-.63,2.59-.92,3.9-.22.97-1.09,1.27-1.86.71-.46-.34-.52-.86-.26-1.34.19-.35.49-.59.79-.83.32-.25.49-.58.51-.97Z"/>
      <path class="cls-11" d="m16.93,35.21c.64.18,1.27.37,1.89.58.58.2,1.18.29,1.76.5.48.17.97.36,1.46.47,1.22.29,2.42.69,3.62,1.04,4.21,1.24,8.41,2.5,12.61,3.75,8.49,2.53,16.98,5.05,25.46,7.58.36.11.72.21,1.08.31.02.09-.03.16-.07.23-.56.97-1.27,1.83-1.81,2.82-.77,1.39-1.92,2.52-3.06,3.64-.35-.04-.66-.19-1-.28.13-.14.18-.32.31-.46.37-.41.72-.84,1.08-1.25.11-.12.1-.19-.02-.3-.94-.88-1.91-1.7-3.09-2.25-.21-.1-.31-.09-.45.1-.44.62-.91,1.22-1.34,1.84-.16.22-.28.23-.5.1-.98-.55-1.97-1.07-3.07-1.37-.21-.06-.13-.15-.08-.27.3-.65.59-1.31.9-1.96.11-.23.07-.33-.16-.45-1.15-.58-2.39-.87-3.65-1.09-.17-.03-.21.04-.26.18-.18.6-.37,1.21-.55,1.81-.06.19-.07.43-.2.55-.15.14-.38-.03-.58-.05-.1,0-.2-.01-.31-.04-.35-.07-.7-.15-1.04-.19-.49-.05-.99-.03-1.48-.16-.23-.06-.22-.15-.22-.31,0-.75.01-1.5.01-2.25,0-.11.06-.24-.16-.26-.66-.05-1.33-.08-1.99-.07-.49,0-.98.08-1.46.06-.38-.02-.7.12-1.05.14-.11,0-.16.05-.15.17.04.66.07,1.32.11,1.98-1.04-.25-2.05-.62-3.08-.89-.4-.11-.78-.3-1.21-.31,0-.21-.09-.3-.31-.25-.11.03-.22.04-.33.05-.2-.08-.39-.17-.59-.22-.89-.26-1.78-.5-2.66-.77-.86-.26-1.71-.53-2.57-.79-1.21-.36-2.42-.7-3.63-1.06-1.27-.37-2.53-.76-3.79-1.14-.42-.88-.83-1.76-1.25-2.65-.81-1.74-1.63-3.48-2.41-5.23-.24-.53-.56-1.03-.72-1.6Z"/>
      <path class="cls-4" d="m34.56,48.66c.11-.02.22-.03.33-.05.22-.05.31.05.31.25.22.63.44,1.27.66,1.9.06.19.08.42.21.55.15.14.35-.05.54-.07.01,0,.02,0,.03,0,.86-.1,1.72-.28,2.59-.32.18,0,.32-.09.28-.33-.03-.17-.01-.35-.02-.53-.04-.66-.07-1.32-.11-1.98,0-.12.04-.17.15-.17.35-.02.67-.16,1.05-.14.48.03.97-.05,1.46-.06.66-.01,1.33.03,1.99.07.22.02.16.15.16.26,0,.75,0,1.5-.01,2.25,0,.16,0,.25.22.31.49.13.99.11,1.48.16.34.03.7.11,1.04.19.1.02.2.03.31.04.2.02.43.19.58.05.13-.12.14-.36.2-.55.19-.6.37-1.2.55-1.81.04-.14.09-.21.26-.18,1.26.22,2.5.52,3.65,1.09.23.11.27.21.16.45-.31.65-.6,1.3-.9,1.96-.05.11-.14.21.08.27,1.09.3,2.09.82,3.07,1.37.22.13.35.12.5-.1.44-.62.91-1.22,1.34-1.84.14-.2.25-.2.45-.1,1.18.55,2.15,1.38,3.09,2.25.12.11.13.18.02.3-.37.41-.71.84-1.08,1.25-.13.14-.18.32-.31.46-.18.05-.18.13-.04.24.2.15.4.31.6.46-.08.09-.16.19-.25.27-.48.44-.96.88-1.44,1.32-.48.17-.88.48-1.33.71-.41.21-.82.43-1.22.64-.51-.5-.99-1.01-1.54-1.47-.93-.79-1.96-1.43-3.05-1.98-1.03-.52-2.1-.89-3.2-1.22-1.23-.37-2.49-.54-3.75-.66-1.63-.15-3.25-.04-4.86.28-.83.17-1.65.33-2.45.59-1.39.44-2.69,1.05-3.9,1.87-1.2.81-2.33,1.69-3.21,2.86-.69-.34-1.33-.74-1.98-1.16-.89-.57-1.73-1.19-2.53-1.89.01-.02.02-.03.01-.05.18-.11.15-.21.02-.34-.55-.53-1.06-1.1-1.58-1.65-.15-.15-.1-.18.03-.28.52-.4,1.03-.82,1.54-1.23,0,0,0,0,0,0,.07.02.1-.01.13-.07,0,0,0,0,0,0,.04,0,.06-.02.06-.06.05-.03.09-.05.14-.08.4-.24.81-.47,1.2-.72.15-.09.23-.05.34.06.55.57,1.04,1.2,1.63,1.74.11.1.17.11.29.03.91-.61,1.88-1.1,2.92-1.45.17-.06.24-.13.16-.33-.27-.66-.52-1.32-.77-1.98-.09-.23-.11-.41.21-.54,1.14-.48,2.31-.88,3.53-1.13Z"/>
      <path class="cls-15" d="m34.56,48.66c-1.22.24-2.39.64-3.53,1.13-.32.13-.3.31-.21.54.25.66.5,1.33.77,1.98.08.2,0,.27-.16.33-1.04.35-2.01.84-2.92,1.45-.12.08-.18.07-.29-.03-.59-.54-1.08-1.16-1.63-1.74-.11-.11-.19-.15-.34-.06-.39.25-.8.48-1.2.72-.23-.68-.56-1.32-.86-1.96-.93-2.04-1.88-4.07-2.82-6.1-.03-.07-.06-.15-.09-.23,1.26.38,2.53.76,3.79,1.14,1.21.36,2.42.7,3.63,1.06.86.26,1.71.53,2.57.79.89.26,1.78.51,2.66.77.2.06.39.15.59.22Z"/>
      <path class="cls-15" d="m24.75,53.18c-.51.41-1.02.83-1.54,1.23-.13.1-.17.13-.03.28.53.55,1.04,1.12,1.58,1.65.13.13.16.23-.02.34-.02,0-.04,0-.06,0-.29-.13-.49-.38-.72-.59-.54-.48-1.09-.97-1.57-1.51-1.02-1.13-2.02-2.28-2.83-3.58-.67-1.06-1.31-2.14-1.83-3.27-.68-1.49-1.28-3.02-1.64-4.63-.15-.7-.33-1.4-.45-2.1-.1-.6-.17-1.21-.22-1.82-.05-.52-.09-1.05-.08-1.57,0-.63-.07-1.27.09-1.9.3.42.48.9.69,1.37,2.49,5.38,4.98,10.76,7.45,16.15.14.3.26.32.52.18.2-.11.41-.25.66-.24Z"/>
      <path class="cls-9" d="m9.7,23.23c-.09,0-.18,0-.27.01.04-.09.08-.17.12-.26.1.05.12.15.15.25Z"/>
      <path class="cls-15" d="m24.87,53.11c-.02.06-.06.09-.13.07,0-.09.07-.08.13-.07Z"/>
      <path class="cls-15" d="m24.93,53.06s-.02.06-.06.06c0-.05.02-.06.06-.06Z"/>
      <path class="cls-8" d="m55.56,14.82l.09.08s-.06.01-.08.02c0-.03,0-.06,0-.09Z"/>
      <polygon class="cls-8" points="55.23 14.62 55.21 14.6 55.22 14.62 55.23 14.62"/>
      <path class="cls-12" d="m57.75,58.16c.48-.44.96-.88,1.44-1.32.09-.08.17-.18.25-.27.16-.12.3-.27.43-.43,1.13-1.12,2.29-2.25,3.06-3.64.55-.99,1.26-1.85,1.81-2.82.04-.07.1-.14.07-.23.19-.08.24-.28.32-.44.65-1.21,1.24-2.44,1.77-3.7.07-.18.08-.36.09-.54.22-.08.21-.29.26-.46.13-.3.13-.62.18-.93.11-.07-.04-.3.18-.3.39.17.79.31,1.2.43.16.09.33.14.5.18.26.1.52.19.78.29.15.06.25.03.28-.13.08-.42.22-.84.24-1.27.06-.27.12-.54.19-.81.03-.1.04-.2.06-.3.12-.57.3-1.12.33-1.7.18-.47.29-.95.36-1.44.04-.16.15-.31.14-.49.07-.12.11-.25.11-.38.11-.35.22-.71.33-1.06.08-.16.17-.32.19-.51.28-.53.47-1.1.93-1.64,0,.22,0,.35,0,.47,0,.37.05.75.12,1.11-.11.26-.04.54-.05.81.03.61.04,1.21.09,1.82.02.27-.15.54.01.81.02.58.05,1.15.07,1.73,0,.16.06.28.14.4.04.29-.16.59,0,.88-.01.6.03,1.21-.06,1.81-.03.25.03.5-.06.74.01.15.02.3-.06.44-.06.4-.12.8-.17,1.2-.02.14-.08.29.19.31.35.03.68.15,1.03.23.11.02.22,0,.32.06.44.08.87.17,1.31.25.16.19-.04.35-.04.53,0,.12-.15.27.04.37-.4.64-.47,1.4-.73,2.09-.33.89-.69,1.75-1.14,2.58-.19.35-.38.7-.56,1.07-.16.32-.42.59-.62.89-.34.51-.72.99-1.14,1.43-.81.85-1.46,1.82-2.26,2.68-.87.93-1.76,1.82-2.67,2.7-.69.67-1.41,1.31-2.16,1.92-.36.29-.68.64-1.09.86-.5-.67-1.12-1.22-1.69-1.82-1.34-1.45-2.71-2.87-4.14-4.23-.07-.06-.12-.14-.18-.21Zm5.88-6.36c.11.01.2-.02.3-.05,1.08-.34,2.01-.94,2.84-1.7.78-.71,1.46-1.51,2.06-2.38.64-.94,1.28-1.9,1.4-3.08.02-.16.06-.3-.16-.37-.72-.24-1.43-.5-2.15-.76-.16-.06-.22-.04-.24.14-.03.28-.09.55-.16.82-.41,1.74-1.21,3.31-2.18,4.8-.56.86-1.15,1.71-1.72,2.56,0,0,0,.02-.01.03v-.03Zm9.41-16.71c-.1-.01-.11.05-.13.09-.28.51-.45,1.08-.62,1.63-.64,2.06-1.04,4.18-1.48,6.29-.29,1.41-.57,2.82-.97,4.21-.37,1.3-1.08,2.43-1.8,3.54-1.05,1.62-2.18,3.19-3.37,4.71-.89,1.15-1.79,2.29-2.73,3.4-.43.5-.92.93-1.36,1.42-.07.07-.17.12-.04.25.67.7,1.33,1.4,1.99,2.11.15.16.25.11.37-.04.25-.31.51-.6.77-.9,1.19-1.36,2.33-2.77,3.43-4.2,1.3-1.7,2.58-3.41,3.7-5.23.56-.91,1.13-1.81,1.5-2.82.27-.72.39-1.48.57-2.22.27-1.17.44-2.36.51-3.56.06-1.09-.03-2.17-.12-3.26-.06-.8-.15-1.59-.12-2.39.03-.83-.1-1.66-.05-2.49.01-.18-.03-.36-.05-.54Zm-.24,13.95c-.53,1.39-1.28,2.65-2.07,3.88-1.45,2.23-3.06,4.34-4.72,6.42-.97,1.22-1.9,2.46-3.01,3.56-.05.05-.17.13-.08.2.19.16.26.43.47.57.16.11.25.33.45.37.25.05.27-.25.44-.35.38-.24.72-.55,1.05-.85.57-.5,1.14-1,1.69-1.52.11-.11.25-.18.35-.3.62-.78,1.42-1.39,2.07-2.15.21-.24.45-.49.65-.73.27-.33.54-.67.82-1,.6-.71,1.05-1.48,1.18-2.42.04-.26.04-.56.12-.78.21-.53.19-1.09.3-1.63.09-.44.13-.9.17-1.35.06-.63.09-1.27.14-1.91Zm-3.52-1.51c-.32.44-.64.87-.98,1.28-1.24,1.51-2.68,2.75-4.62,3.29-.12.03-.19.11-.26.21-1,1.5-2.2,2.83-3.46,4.1-.54.55-1.12,1.05-1.69,1.56-.14.13-.16.22,0,.37.6.59,1.2,1.19,1.79,1.79.12.12.2.14.36.05.32-.19.49-.5.73-.75,1.14-1.21,2.16-2.52,3.18-3.83,1.31-1.7,2.57-3.45,3.73-5.26.56-.87.94-1.82,1.23-2.81Zm2.84,8.03s.05.01.08.02c.06-.09.12-.19.19-.27.59-.75,1.12-1.54,1.57-2.39.87-1.62,1.47-3.33,1.88-5.12.05-.23,0-.33-.22-.37-.71-.15-1.42-.29-2.13-.44-.22-.05-.35.02-.37.27-.06.68-.06,1.36-.11,2.04-.06.79-.12,1.59-.19,2.38-.09,1-.25,1.99-.49,2.96-.07.31-.14.62-.21.92Z"/>
      <path class="cls-1" d="m64.4,24.49c-.86-.03-1.41-.49-1.77-1.24-.1-.21-.14-.43-.14-.66,0-.42.19-.62.62-.6.57.02,1.06.27,1.49.63.32.26.54.59.65.99.14.51-.16.87-.69.88-.05,0-.1,0-.16,0Z"/>
      <path class="cls-1" d="m65.98,27.99c1.06.01,1.9.86,1.95,1.79.03.64-.53.98-1.12.72-.74-.33-1.24-.87-1.57-1.59-.23-.5.1-.92.74-.92Z"/>
      <path class="cls-1" d="m58.46,8.31c-.61-.1-1.06-.44-1.39-.94-.2-.31-.35-.66-.43-1.03-.12-.6.27-.98.86-.81.84.25,1.4.78,1.59,1.66.06.3-.01.57-.12.85-.09.23-.28.29-.51.28Z"/>
      <path class="cls-1" d="m62.85,9.68c.51.07.91.34,1.22.73.45.57.62,1.21.32,1.91-.16.38-.43.5-.8.32-.8-.37-1.16-1.06-1.27-1.89-.02-.18-.01-.37,0-.56.02-.28.28-.52.53-.51Z"/>
      <path class="cls-1" d="m66.94,14.1c-.02.24-.09.55-.26.83-.18.3-.43.37-.74.21-.68-.36-1-.96-1.13-1.69-.05-.29-.08-.57.01-.86.12-.41.4-.56.81-.43.69.23,1.31,1.1,1.31,1.94Z"/>
      <path class="cls-1" d="m56.24,5.73c0,.64-.36.91-.97.74-.79-.23-1.57-1.17-1.64-2-.03-.38.28-.7.69-.66.9.09,1.86.76,1.92,1.92Z"/>
      <path class="cls-1" d="m61.87,9.45c-.06.26-.01.65-.37.84-.36.19-.66-.02-.95-.21-.68-.46-.98-1.14-1.04-1.93-.04-.55.3-.8.83-.67.84.21,1.54,1.07,1.53,1.97Z"/>
      <path class="cls-1" d="m53.9,10.1c.9.08,1.63.46,2.07,1.28.24.44.09.74-.37.93-1,.4-2.23-.43-2.46-1.42-.1-.42-.01-.84.76-.79Z"/>
      <path class="cls-1" d="m49.45,4.74c-.85-.02-1.5-.42-1.99-1.1-.28-.39-.17-.73.27-.93.92-.41,2.34.09,2.62,1.24.1.42-.12.73-.56.78-.11.01-.23,0-.34,0Z"/>
      <path class="cls-1" d="m53.16,7.43c.71.01,1.34.22,1.83.77.42.47.34.88-.21,1.16-1.02.52-2.16-.23-2.52-.92-.28-.53-.04-.94.56-1.01.11-.01.23,0,.34,0Z"/>
      <path class="cls-1" d="m64.96,25.05c.92-.06,1.94.92,1.87,1.76-.03.38-.44.67-.8.52-.43-.18-.84-.37-1.29-.49-.37-.1-.88-.9-.85-1.28.02-.26.23-.35.43-.43.21-.08.44-.1.65-.08Z"/>
      <path class="cls-1" d="m72.13,36.36c-.11.35-.22.71-.33,1.06-.57.19-1.44-.26-1.71-.88-.2-.47-.26-.96-.22-1.46.04-.42.45-.66.85-.48.67.3,1.09.83,1.33,1.52.03.08.05.16.07.24Z"/>
      <path class="cls-1" d="m64.56,21.29s0-.04,0-.06c0-.46.17-.64.63-.61.88.06,1.89.72,2.14,1.63.14.54-.05.77-.59.68-.38-.06-.75-.1-1.13-.13-.29-.02-.44-.23-.6-.41-.26-.31-.43-.68-.44-1.1Z"/>
      <path class="cls-1" d="m75.43,42.83c.05-1.05.54-1.74,1.36-2.2.45-.25.83.02.9.54.07.49-.02.94-.21,1.39-.08.19-.22.3-.43.36-.35.1-.69.25-.96.49-.21.19-.35.13-.49-.06-.13-.18-.21-.38-.18-.53Z"/>
      <path class="cls-1" d="m55.93,12.55c.76.11,1.72.58,1.96,1.47.08.31-.09.57-.41.58-.34.01-.68.05-1.01.12-.2.04-.36-.08-.52-.17-.52-.31-.93-.73-1.04-1.36-.05-.26.06-.43.32-.45.25-.02.47-.16.7-.19Z"/>
      <path class="cls-1" d="m75.93,40.18c.04.17-.04.33-.06.49-.05.36-.28.54-.65.5-.36-.04-.7-.18-.91-.48-.23-.32-.47-.65-.53-1.06-.02-.12-.03-.21.05-.32.23-.28.39-.61.49-.95.08-.29.25-.29.46-.17.29.16.51.39.69.66.27.4.51.82.46,1.33Z"/>
      <path class="cls-1" d="m68.44,29.72c0-.1,0-.14,0-.18-.04-.49.22-.86.86-.65.81.26,1.55,1.15,1.64,1.99.02.15-.01.29-.07.42-.14.32-.25.36-.58.2-.43-.2-.85-.42-1.3-.57-.07-.02-.14-.05-.17-.12-.16-.37-.49-.69-.38-1.09Z"/>
      <path class="cls-1" d="m59.97,17.17c.77.06,1.51.47,1.97,1.33.09.18.03.39-.06.55-.08.14-.26.2-.41.16-.33-.09-.67-.09-.99-.04-.64.09-.98-.27-1.26-.75-.04-.06-.07-.13-.1-.19-.33-.68-.09-1.07.85-1.07Z"/>
      <path class="cls-1" d="m52.34,5.11c-.63.02-1.11-.3-1.55-.7-.09-.08-.11-.2-.11-.32,0-.31-.09-.6-.26-.85-.17-.25-.05-.32.16-.39.91-.28,2.21.23,2.47,1.33.16.66-.04.92-.71.92Z"/>
      <path class="cls-1" d="m67.37,26.77c0-.64.31-.86.92-.67.85.26,1.38.86,1.67,1.67.08.21.04.47-.09.68-.06.1-.15.19-.28.15-.58-.18-1.2-.3-1.7-.62-.38-.24-.51-.74-.52-1.21Z"/>
      <path class="cls-1" d="m67.37,37.99c0-.17,0-.35.06-.52.19-.49.58-.65,1.01-.35.65.45,1.28,1.41,1.05,2.39-.04.16-.09.32-.23.42-.18.13-.34.16-.51-.05-.23-.28-.52-.52-.84-.68-.44-.23-.53-.6-.54-1.03,0-.06,0-.12,0-.19Z"/>
      <path class="cls-1" d="m67.06,34.86c.02-.13-.05-.32.05-.5.2-.38.59-.49.98-.24.81.51,1.25,1.22,1.23,2.19,0,.16-.05.31-.14.44-.12.19-.27.24-.47.11-.45-.3-.91-.57-1.35-.88-.21-.15-.25-.42-.29-.66-.02-.13,0-.27,0-.45Z"/>
      <path class="cls-1" d="m63.62,17.92c-.46-.1-.96-.02-1.46-.06-.43-.03-.6-.43-.85-.71-.07-.07-.1-.18-.14-.28-.26-.61-.03-1.01.62-1,.85.01,1.84.43,2.22,1.38.15.37-.02.67-.39.67Z"/>
      <path class="cls-1" d="m59.25,16.8c-.34-.01-.71.06-1.08.1-.06,0-.14.03-.18,0-.51-.28-.92-.66-1.04-1.25-.08-.41.16-.68.66-.71.74-.05,1.81.26,2.28,1.14.04.07.08.15.1.23.08.31-.07.5-.39.5-.1,0-.21,0-.35,0Z"/>
      <path class="cls-1" d="m60.86,20.15c-.05-.47.24-.58.58-.6.89-.06,1.9.57,2.25,1.39.07.17.07.35.05.52-.02.14-.1.22-.25.21-.59-.02-1.17-.17-1.76-.13-.04,0-.08-.02-.11-.04-.39-.37-.68-.8-.75-1.35Z"/>
      <path class="cls-1" d="m68.81,25.25c0,.47-.23.62-.64.45-.36-.16-.74-.26-1.14-.28-.21,0-.38-.09-.51-.3-.24-.4-.44-.79-.41-1.28.03-.34.2-.56.54-.53.96.08,1.91.81,2.15,1.84,0,.04,0,.08,0,.1Z"/>
      <path class="cls-1" d="m63.38,13.37c0,.33-.04.6-.18.85-.13.23-.32.31-.58.23-.72-.23-1.12-.76-1.36-1.43-.1-.28-.16-.58-.14-.89.02-.29.11-.54.41-.63.3-.1.59.05.76.36.19.33.41.64.73.84.29.18.42.39.36.67Z"/>
      <path class="cls-1" d="m60.74,11.17c0,.16.02.32-.04.49-.15.44-.48.59-.9.36-.75-.41-1.28-1-1.42-1.88-.04-.29-.04-.57.2-.77.22-.19.48-.14.74-.07.14.04.19.14.26.25.19.31.4.62.73.79.35.18.52.43.42.83Z"/>
      <path class="cls-1" d="m66.5,31.79c-.03-.63.42-.91.98-.65.44.2.85.49,1.03.94.13.32.15.71.31,1.03.1.21.07.37-.03.55-.15.28-.32.33-.57.14-.37-.29-.78-.52-1.22-.68-.12-.04-.2-.1-.24-.22-.15-.36-.26-.72-.25-1.11Z"/>
      <path class="cls-1" d="m62.06,15.15c0,.26-.05.39-.36.35-.42-.06-.85.03-1.27.09-.26.04-.46.01-.64-.2-.22-.26-.55-.4-.69-.74-.24-.58-.02-.95.6-.97.89-.03,1.66.24,2.19,1,.1.14.19.3.17.48Z"/>
      <path class="cls-1" d="m77.13,37.3c.4-.02.52.18.63.42.26.59.13,1.15-.13,1.69-.23.48-.63.76-1.13.91-.18.06-.23,0-.25-.19-.05-.45-.12-.9-.36-1.3-.12-.2.01-.36.11-.5.11-.16.21-.32.3-.5.18-.38.57-.43.83-.54Z"/>
      <path class="cls-1" d="m63.65,18.29c.99,0,1.91.65,2.18,1.54.05.16.04.3,0,.45-.04.13-.12.15-.24.11-.54-.18-1.11-.19-1.67-.22-.19-.01-.34-.06-.46-.21-.22-.27-.39-.56-.5-.89-.15-.48.12-.79.69-.79Z"/>
      <path class="cls-1" d="m55.86,9.29c.92,0,1.62.28,2.09.99.23.34.15.62-.19.85-.4.27-.85.25-1.29.22-.14,0-.21-.11-.27-.23-.22-.47-.59-.79-1.05-1.03-.28-.15-.29-.34-.04-.55.25-.21.52-.29.75-.25Z"/>
      <path class="cls-1" d="m69.25,32.69c.02-.13.05-.35.11-.57.1-.33.32-.43.65-.34.86.25,1.59,1.14,1.66,2.13,0,.09-.02.18-.05.27-.11.38-.2.41-.53.2-.44-.27-.88-.56-1.38-.7-.28-.08-.47-.47-.46-1Z"/>
      <path class="cls-1" d="m69.51,42.09c0,.3-.01.59-.19.84-.13.18-.26.24-.45.04-.4-.44-.83-.84-1.31-1.19-.06-.04-.13-.08-.13-.16,0-.43-.07-.87.16-1.28.19-.33.45-.44.77-.26.77.44,1.08,1.16,1.14,2.01Z"/>
      <path class="cls-1" d="m49.82,5.4c0-.3.41-.65.81-.51.58.21,1.17.44,1.26,1.21.03.26.15.52.27.76.09.2.09.3-.15.35-.31.07-.62.15-.93.25-.12.04-.2-.01-.28-.08-.59-.48-.91-1.12-.98-1.98Z"/>
      <path class="cls-1" d="m57.88,11.61c.76.06,1.44.28,1.9.95.09.14.17.28.16.46-.01.18-.08.27-.28.29-.43.03-.87.06-1.29.17-.2.05-.35,0-.47-.19-.19-.32-.49-.54-.81-.71-.16-.09-.3-.16-.28-.39.02-.23.15-.37.34-.44.23-.09.47-.16.73-.14Z"/>
      <path class="cls-1" d="m66.74,15.99c.76.1,1.51.46,1.94,1.31.05.09.08.19.11.29.07.3-.08.48-.39.46-.2-.01-.39-.05-.59-.06-.16-.01-.19-.14-.25-.25-.32-.62-.33-.63-.71-.06-.13.2-.23.23-.4.05-.22-.22-.39-.46-.51-.74-.28-.63-.03-1.01.81-1.01Z"/>
      <path class="cls-1" d="m70.93,25.9c.03.56-.08,1.03-.47,1.41-.14.13-.2.22-.37,0-.14-.18-.14-.41-.3-.57-.18-.18-.37-.36-.58-.51-.17-.12-.23-.25-.18-.47.06-.24.07-.48.17-.71.15-.35.39-.58.74-.61.37-.03.58.26.73.58.14.3.3.58.26.88Z"/>
      <path class="cls-1" d="m72.05,28.83c-.02.45-.11.98-.48,1.42-.2.24-.36.22-.47-.06-.16-.43-.4-.8-.76-1.08-.22-.17-.25-.35-.14-.59.14-.31.17-.66.45-.91.39-.35.82-.31,1.09.14.14.24.29.71.31,1.08Z"/>
      <path class="cls-1" d="m72.94,31.88c-.03.64-.25,1.18-.79,1.56-.15.11-.21.08-.25-.09-.12-.54-.39-.98-.82-1.31-.12-.1-.13-.21-.07-.32.17-.31.28-.64.49-.93.34-.48.84-.47,1.15.03.2.33.27.69.29,1.07Z"/>
      <path class="cls-1" d="m68.97,24.52c-.3-.52-.69-.93-1.2-1.21-.11-.06-.15-.14-.14-.25.05-.46.11-.91.4-1.29.26-.35.57-.36.9-.08.92.77.77,2.3.05,2.83Z"/>
      <path class="cls-1" d="m74.11,23.36c.03.67-.14,1.15-.51,1.56-.11.12-.21.14-.27-.03-.21-.53-.6-.91-1.06-1.22-.09-.06-.08-.14-.07-.22.06-.42.13-.84.4-1.19.26-.35.65-.39.96-.07.35.36.5.81.56,1.17Z"/>
      <path class="cls-1" d="m72.67,21.04c.01.37-.18.65-.38.93-.09.13-.18.19-.3,0-.28-.47-.65-.83-1.16-1.03-.06-.02-.13-.06-.12-.12.07-.53-.02-1.11.45-1.52.2-.17.39-.21.62-.09.52.27.71.76.82,1.28.04.19.11.38.06.57Z"/>
      <path class="cls-1" d="m76.24,29.18c.06.63-.16,1.14-.64,1.55-.15.13-.24.15-.32-.08-.16-.47-.43-.87-.83-1.18-.08-.06-.17-.13-.13-.26.15-.44.28-.9.65-1.22.33-.29.73-.25.95.13.19.33.4.67.31,1.07Z"/>
      <path class="cls-1" d="m69.13,15.74c.03.27-.05.53-.18.78-.1.18-.18.23-.33.05-.26-.31-.57-.57-.95-.68-.37-.1-.53-.3-.53-.66,0-.37.03-.75.23-1.08.21-.36.61-.42.93-.15.53.45.88.99.84,1.74Z"/>
      <path class="cls-1" d="m77.56,35.39c.05.69-.32,1.15-.75,1.59-.1.1-.25.14-.37.11-.14-.04-.05-.2-.07-.3-.09-.47-.3-.88-.61-1.24-.12-.13-.13-.22-.04-.38.19-.33.37-.66.68-.91.38-.3.8-.21,1.01.24.13.29.17.59.15.89Z"/>
      <path class="cls-1" d="m76.02,34.01c-.11-.6-.36-1.12-.81-1.53-.06-.06-.12-.13-.08-.22.2-.48.39-.97.88-1.24.25-.14.5-.1.67.13.64.85.47,2.4-.66,2.86Z"/>
      <path class="cls-1" d="m69.85,16.43c.21.04.39.14.54.29.49.49.9,1.41.48,2.22-.02.05-.04.1-.05.14-.08.25-.2.29-.39.1-.28-.27-.51-.61-.87-.74-.65-.22-.43-.72-.41-1.14.01-.23.13-.46.28-.65.11-.14.26-.2.42-.23Z"/>
      <path class="cls-1" d="m73.64,42.24c-.16-.29.03-.59,0-.88.2-.08.18-.4.4-.41.2,0,.31.21.49.31.18.1.38.08.57.16.31.13.29.32.19.54-.26.56-.19,1.08.1,1.6.12.23.08.33-.17.36-.37.04-.66-.15-.93-.37-.41-.34-.54-.82-.64-1.31Z"/>
      <path class="cls-1" d="m69.8,20.99c.91.01,1.88.76,2.12,1.66.06.22.07.47-.12.64-.18.16-.38.07-.58,0-.22-.09-.48-.08-.56-.4-.04-.16-.16-.01-.24.04-.1.07-.15.22-.34.14-.17-.07-.12-.19-.14-.3-.09-.52-.19-1.03-.42-1.51-.17-.37.14-.24.28-.27Z"/>
      <path class="cls-1" d="m74.53,27.97c-.19-.62-.48-1.07-.95-1.38-.2-.13-.2-.29-.13-.51.11-.34.21-.67.47-.94.3-.3.59-.31.89-.02.49.49.58,1.09.49,1.72-.06.47-.51.68-.77,1.11Z"/>
      <path class="cls-1" d="m67.57,21.82c-.3-.41-.58-.79-.98-1.01-.46-.24-.44-.63-.39-1.03.02-.2.08-.42.19-.58.31-.45.77-.45,1.13-.03.35.42.54.9.6,1.44.02.19-.05.37-.14.5-.14.21-.26.44-.41.7Z"/>
      <path class="cls-1" d="m72.42,26.31c.47.11.93.41,1.3.83.26.29.4.65.49,1.03.06.27.03.5-.14.7-.19.22-.45.09-.64.03-.22-.08-.43-.19-.66-.25-.35-.1-.35-.4-.38-.66-.07-.49-.11-.99-.22-1.47-.04-.19.01-.23.26-.21Z"/>
      <path class="cls-1" d="m75,45.66c.05-.64.33-1.17.79-1.6.21-.19.39-.4.7-.48.29-.07.64,0,.74.28.17.45.14.91-.03,1.36-.08.19-.26.18-.39.19-.54.07-1.04.25-1.53.45-.25.1-.3.03-.28-.2Z"/>
      <path class="cls-1" d="m71.19,39.74c-.03.58-.21,1.14-.33,1.7-.02.1-.03.2-.06.3-.2.18-.4.36-.66.46-.18.07-.27.05-.27-.17,0-.51-.18-.97-.48-1.38-.13-.18-.12-.34.08-.5.25-.2.41-.49.69-.66.48-.3.77-.24,1.04.26Z"/>
      <path class="cls-1" d="m71.31,23.68c.65.13,1.25.53,1.67,1.2.14.22.2.47.25.72.04.17,0,.34-.11.47-.13.14-.28.02-.4-.03-.36-.15-.72-.26-1.1-.29-.29-.02-.35-.26-.36-.46,0-.46-.23-.87-.29-1.32-.04-.28-.07-.27.34-.27Z"/>
      <path class="cls-1" d="m73.4,31.17c-.13-.41-.06-.84-.17-1.24-.02-.08-.03-.16-.03-.24-.02-.48-.06-.57.52-.31.75.34,1.18.97,1.37,1.75.05.19.02.43-.06.63-.11.26-.3.32-.55.18-.32-.18-.62-.38-.98-.47-.15-.04-.18-.16-.1-.3Z"/>
      <path class="cls-1" d="m57.94,9.1c0,.07,0,.1,0,.12-.02.12.06.28-.07.34-.11.06-.19-.09-.29-.15-.46-.3-.97-.47-1.52-.48-.21,0-.33-.08-.4-.27-.11-.28-.23-.56-.22-.87.02-.32.24-.55.56-.55.35,0,.67.06.87.41.14.25.35.48.62.61.39.19.49.5.45.84Z"/>
      <path class="cls-1" d="m68.53,20.25c-.14-.22-.22-.45-.23-.72-.01-.31-.18-.59-.3-.88-.07-.17-.03-.23.16-.24.9-.04,1.85.56,2.2,1.42.1.25.17.51-.04.73-.23.24-.49.05-.73.01-.32-.05-.43-.31-.52-.57-.07-.2-.13-.25-.27-.06-.08.11-.18.2-.28.3Z"/>
      <path class="cls-1" d="m74,35.49c.07-.32.32-.45.65-.36.59.17,1.32,1.13,1.35,1.74.01.23.03.46,0,.7-.07.45-.44.65-.84.44-.21-.11-.38-.28-.56-.44-.1-.09-.11-.2-.09-.33.11-.6.1-1.22.09-1.83,0-.16-.07-.17-.2-.11-.14.07-.26.17-.42.19h0Z"/>
      <path class="cls-1" d="m75.69,34.38s0,.12-.03.22c-.13.46-.28.51-.66.26-.15-.1-.3-.23-.48-.29-.36-.13-.4-.38-.41-.73-.01-.5-.11-1-.18-1.5-.03-.19.02-.25.21-.2.28.08.52.22.72.43.46.48.83,1,.82,1.8Z"/>
      <path class="cls-1" d="m54.94,7.36c.01.17.03.31-.25.14-.57-.34-1.2-.51-1.87-.42-.1.02-.15-.03-.2-.1-.16-.22-.26-.48-.3-.74-.07-.42.1-.67.53-.72.41-.04.8.02,1.07.4.15.21.34.39.56.53.37.24.46.43.46.91Z"/>
      <path class="cls-1" d="m65.09,17c-.49-.02-.8-.32-1.03-.67-.38-.58-.57-1.22-.38-1.93.06-.24.22-.4.49-.41.26-.01.45.07.56.34.17.41.44.75.83.98.09.05.2.11.17.23-.03.12-.16.06-.24.07-.32.04-.64.07-.95.12-.33.05-.34.08-.14.35.23.31.46.61.7.91Z"/>
      <path class="cls-1" d="m73.37,35.8c-.07-.37-.11-.74-.12-1.11,0-.13,0-.26,0-.47-.46.54-.66,1.11-.93,1.64-.1-.31-.26-.59-.49-.82-.11-.11-.14-.2-.06-.35.17-.3.3-.61.55-.86.36-.36.84-.3,1.06.16.28.6.31,1.21,0,1.82Z"/>
      <path class="cls-1" d="m71.05,37.91c-.09.33-.26.66-.57.89-.16.12-.32.32-.5.28-.23-.05-.07-.32-.13-.49-.14-.36-.26-.73-.48-1.05-.12-.19.02-.75.22-.83.13-.05.22.07.27.15.24.42.6.68,1.05.83.08.03.16.07.14.21Z"/>
      <path class="cls-1" d="m64.29,17.08c.38.2.72.24,1.05.31.31.06.51.39.71.66.23.31.25.65.06.99-.05.09-.09.29-.24.08-.35-.47-.8-.81-1.35-1.01-.14-.05-.17-.12-.16-.27.02-.22.04-.45-.07-.75Z"/>
      <path class="cls-1" d="m73.51,44.8c.09-.24.03-.5.06-.74.09,0,.12-.08.16-.13.11-.13.23-.16.37-.05.23.19.5.29.79.35.19.04.19.12.11.26-.25.45-.39.93-.27,1.45,0,.05-.02.12-.11.15-.29-.49-.59-.99-1.11-1.28Z"/>
      <path class="cls-1" d="m74.49,46.98c-.34-.08-.68-.19-1.03-.23-.26-.03-.21-.17-.19-.31.05-.4.11-.8.17-1.2.31.04.44.3.58.52.24.37.43.77.47,1.22Z"/>
      <path class="cls-1" d="m73.43,39.24c-.16-.27.01-.54-.01-.81-.05-.6-.07-1.21-.09-1.82.4.1.65.48.68,1.02.03.62-.13,1.16-.57,1.6Z"/>
      <path class="cls-1" d="m76.12,47.29c-.44-.08-.87-.17-1.31-.25,0-.04-.01-.09,0-.12.04-.17-.18-.37.06-.51.27-.16.56-.28.89-.22.17.03.43.42.39.61-.04.17-.01.33-.03.5Z"/>
      <path class="cls-1" d="m70.61,42.55c-.02.44-.15.85-.24,1.27-.03.16-.13.19-.28.13-.26-.1-.52-.2-.78-.29-.04-.17.01-.29.13-.42.33-.33.64-.69,1.16-.7Z"/>
      <path class="cls-1" d="m63.43,15.99c-.31-.1-.59-.31-.92-.37-.1-.02-.14-.07-.14-.17,0-.21-.07-.45-.02-.61.09-.27.34-.01.53-.03.4-.05.42-.03.42.38,0,.27.14.52.14.79h-.01Z"/>
      <path class="cls-1" d="m60.58,12.37c.15-.01.22.05.22.16.02.29.11.57.22.84.07.15.01.2-.14.13-.2-.08-.51-.04-.59-.21-.11-.21-.05-.51-.15-.75-.02-.05.01-.1.08-.11.13-.01.27-.01.36-.06Z"/>
      <path class="cls-1" d="m68.82,43.49c-.41-.11-.81-.25-1.2-.43.19-.25.44-.26.69-.13.22.13.42.3.52.55Z"/>
      <path class="cls-1" d="m67.67,30.81c.18-.09.33-.16.49-.24.07.15,0,.33.13.44.04.04.04.13,0,.17-.06.06-.11-.01-.15-.05-.14-.1-.28-.2-.46-.33Z"/>
      <path class="cls-1" d="m67.13,27.85c-.1-.06-.21-.11-.31-.18-.06-.03-.16-.08-.09-.15.05-.05.17-.15.26-.03.07.1.12.21.18.31-.01.01-.03.03-.04.04Z"/>
      <path class="cls-1" d="m71.69,37.81c0,.18-.1.32-.14.49-.06,0-.12,0-.17,0h0c.07-.19.02-.46.32-.49Z"/>
      <path class="cls-1" d="m67.43,43.36c-.05.31-.05.64-.18.93,0-.32-.03-.65.18-.93Z"/>
      <path class="cls-1" d="m66.78,15.37q.02.27-.61.21c.26-.05.47-.02.61-.21Z"/>
      <path class="cls-15" d="m73.05,20.61c.08,0,.13.04.16.11-.03.04-.09.11-.1.11-.09-.05-.02-.15-.05-.22Z"/>
      <path class="cls-8" d="m78.13,42.12c0,.08.01.17-.1.18-.03-.1.06-.13.1-.18Z"/>
      <path class="cls-15" d="m62.02,8.36s.06,0,.09,0c0,.05,0,.09,0,.14-.07-.02-.06-.09-.08-.14Z"/>
      <path class="cls-15" d="m77.37,32.92s.04.05.07.07c-.03.05-.07.08-.11.02-.02-.03,0-.08.05-.09Z"/>
      <path class="cls-8" d="m78,42.44s.06.04.09.06c-.04.06-.11.05-.15.02-.02-.02.02-.07.06-.08Z"/>
      <path class="cls-8" d="m52.96,3.19s.06-.01.09-.02c0,.04-.01.07-.02.11-.02-.03-.05-.06-.07-.09Z"/>
      <path class="cls-15" d="m77.9,36.26s-.08.05-.13.02c.02-.03.05-.05.07-.08.02.02.04.04.05.06Z"/>
      <path class="cls-15" d="m75.12,23.37s.02-.05.03-.07c.06.03,0,.07.01.11-.03,0-.04-.02-.04-.04Z"/>
      <path class="cls-15" d="m75.21,23.62s.03.04.04.06c-.03,0-.06-.01-.04-.06Z"/>
      <path class="cls-15" d="m76.62,29.67s-.03.04-.05.06c0-.04.02-.06.05-.06Z"/>
      <path class="cls-15" d="m75.51,24.8s.03.04.05.06c-.04,0-.06-.02-.05-.06Z"/>
      <path class="cls-15" d="m73.83,20.8s.03.04.05.06c-.04,0-.06-.01-.05-.06Z"/>
      <path class="cls-1" d="m74,35.49s-.02.02-.03.03c0,0,0-.01,0-.02,0,0,.01,0,.02,0,0,0,0,0,0,0Z"/>
      <path class="cls-15" d="m72.58,18.86s.03.04.04.05c-.04,0-.06,0-.04-.05Z"/>
      <path class="cls-1" d="m71.38,38.3s-.02.02-.03.03c0-.01.02-.02.02-.03,0,0,0,0,0,0Z"/>
      <path class="cls-15" d="m72.45,18.55s.03.04.05.05c-.04,0-.06-.01-.05-.05Z"/>
      <path class="cls-1" d="m63.44,15.98s.02.02.02.03c-.01,0-.02-.02-.03-.02,0,0,.01-.01.01-.01Z"/>
      <path class="cls-9" d="m18.51,62.86c.12.06.32.03.3.26-.07-.12-.32-.03-.3-.26Z"/>
      <path class="cls-9" d="m17.49,61.93c.24-.08.24.09.25.25-.1-.06-.19-.15-.25-.25Z"/>
      <path class="cls-9" d="m7.8,27.74c.12.08,0,.15-.01.23-.15-.09-.1-.16.01-.23Z"/>
      <path class="cls-9" d="m14.46,58.74c.1.01.16.08.17.18-.14.02-.19-.04-.17-.18Z"/>
      <path class="cls-9" d="m18.87,63.18c.11,0,.17.05.19.17-.11,0-.18-.04-.19-.17Z"/>
      <path class="cls-9" d="m7.93,27.36c0,.05,0,.11-.01.16-.06,0-.09-.04-.09-.1,0-.08.06-.05.1-.07Z"/>
      <path class="cls-9" d="m35.43,70.99c.09-.1.16-.08.19.05-.07,0-.14.04-.19-.05Z"/>
      <path class="cls-9" d="m6.69,40.42c.12.03.15.09.06.18-.1-.03-.06-.12-.06-.18Z"/>
      <path class="cls-9" d="m27.13,68.43c.1-.02.2-.06.17.11-.09.02-.16-.01-.17-.11Z"/>
      <path class="cls-9" d="m38,71.35c.11-.08.11,0,.12.08-.1.07-.09-.03-.12-.08Z"/>
      <path class="cls-9" d="m29.44,69.3c.08,0,.17,0,.18.12-.09.02-.13-.07-.18-.12Z"/>
      <path class="cls-9" d="m14.14,58.42c.08,0,.16,0,.17.11-.08,0-.15-.02-.17-.11Z"/>
      <path class="cls-9" d="m28.63,68.99c.08,0,.17,0,.18.12-.1.02-.13-.06-.18-.12Z"/>
      <path class="cls-9" d="m12.65,56.36c.06,0,.09.04.1.1-.06,0-.13,0-.1-.1Z"/>
      <path class="cls-9" d="m28.08,68.75c.08-.02.1.04.1.1-.08.01-.1-.04-.1-.1Z"/>
      <path class="cls-9" d="m29.02,69.13c.09-.02.1.04.1.1-.08.01-.1-.03-.1-.1Z"/>
      <path class="cls-9" d="m13.04,56.86c.06.03.08.07.07.13-.09,0-.14-.04-.07-.13Z"/>
      <path class="cls-9" d="m7.44,29.24c.08.09.01.11-.06.12-.01-.06-.01-.11.06-.12Z"/>
      <path class="cls-9" d="m21.06,64.93c.06-.09.1-.05.13.02-.05.04-.1.04-.13-.02Z"/>
      <path class="cls-9" d="m19.63,63.8c.06,0,.11.04.11.1-.06,0-.12-.02-.11-.1Z"/>
      <path class="cls-9" d="m34.26,70.71c.1-.05.1.02.11.08-.07.01-.12,0-.11-.08Z"/>
      <path class="cls-9" d="m6.74,33.36c.09.09.03.11-.05.12-.01-.05-.02-.11.05-.12Z"/>
      <path class="cls-9" d="m13.7,57.8c.06,0,.1.04.11.1-.08.01-.12-.02-.11-.1Z"/>
      <path class="cls-9" d="m14.82,59.18c.06,0,.1.03.12.09-.07.01-.14.01-.12-.09Z"/>
      <path class="cls-9" d="m38.62,71.42c.09-.09.11-.02.12.05-.05,0-.11.02-.12-.05Z"/>
      <path class="cls-9" d="m57.5,68.05c.01-.08.02-.16.12-.06-.03.05-.07.06-.12.06Z"/>
      <path class="cls-8" d="m11.25,54.07s.05,0,.04.04c-.02,0-.03-.02-.04-.04Z"/>
      <path class="cls-9" d="m8.87,24.61s-.03.04-.05.06c-.01-.04.01-.06.05-.06Z"/>
      <path class="cls-9" d="m7.3,29.86s-.03.04-.05.06c-.01-.04.01-.06.05-.06Z"/>
      <path class="cls-9" d="m20.88,64.74s.03.03.05.04c-.04.01-.06,0-.05-.04Z"/>
      <path class="cls-9" d="m21.49,65.18s.04.03.07.04c-.04.02-.05-.01-.07-.04Z"/>
      <path class="cls-9" d="m22.62,65.93s.04.03.06.04c-.04.01-.07.01-.06-.04Z"/>
      <path class="cls-9" d="m22.8,66.05s.04.02.06.04c-.04.03-.05,0-.06-.04Z"/>
      <path class="cls-9" d="m23.75,66.61s.04.03.06.04c-.05.02-.06,0-.06-.04Z"/>
      <path class="cls-9" d="m24.05,66.8s.04.02.06.04c-.04.03-.05,0-.06-.04Z"/>
      <path class="cls-9" d="m24.19,66.86s.04.03.06.05c-.05.01-.06,0-.06-.05Z"/>
      <path class="cls-9" d="m24.61,67.11s.04.02.06.04c-.04.03-.05,0-.06-.04Z"/>
      <path class="cls-9" d="m24.75,67.17s.04.03.06.04c-.05.02-.06,0-.06-.04Z"/>
      <path class="cls-9" d="m25.93,67.8s.04.02.06.04c-.04.03-.05,0-.06-.04Z"/>
      <path class="cls-9" d="m26.06,67.86s.04.03.06.05c-.04,0-.06-.01-.06-.05Z"/>
      <path class="cls-9" d="m9.43,23.24s-.03.04-.05.05c-.01-.04.01-.06.05-.05Z"/>
      <path class="cls-9" d="m27.69,68.61s.04.03.06.05c-.04,0-.06-.01-.06-.05Z"/>
      <path class="cls-9" d="m8.74,24.93s-.03.04-.05.06c0-.04.01-.06.05-.06Z"/>
      <path class="cls-9" d="m28.43,68.92s.04.03.06.05c-.04,0-.06-.01-.06-.05Z"/>
      <path class="cls-9" d="m33.24,70.49s.04.03.06.05c-.04,0-.06-.01-.06-.05Z"/>
      <path class="cls-9" d="m33.49,70.55s.04.03.06.05c-.04,0-.06-.01-.06-.05Z"/>
      <path class="cls-3" d="m36.68,39.99c-.78-.47-1.41-1.1-1.85-1.9-.19-.35-.4-.7-.46-1.1,0-.06,0-.11-.01-.17-.19-.2-.14-.47-.16-.7-.06-.82-.03-1.65.3-2.42.59-1.38,1.56-2.38,2.95-2.97.82-.35,1.69-.45,2.56-.37,1.99.18,3.87,1.42,4.57,3.58.3.95.34,1.9.1,2.84-.23.9-.67,1.69-1.35,2.38-.89.89-1.95,1.35-3.14,1.56-.92.16-1.81,0-2.67-.32-.02-.02-.04-.03-.06-.05-.25-.08-.48-.19-.7-.34-.02-.01-.04-.03-.06-.04Z"/>
      <path class="cls-8" d="m34.36,36.82c0,.06,0,.11.01.17-.04-.01-.1-.02-.1-.04-.01-.06,0-.12.09-.13Z"/>
      <path class="cls-8" d="m37.44,40.36s.04.03.06.05c-.04,0-.06-.01-.06-.05Z"/>
      <path class="cls-8" d="m36.68,39.99s.04.03.06.04c-.05.03-.05,0-.06-.04Z"/>
      <path class="cls-13" d="m29.23,59.78c.88-1.17,2.01-2.05,3.21-2.86,1.21-.82,2.51-1.43,3.9-1.87.8-.25,1.62-.42,2.45-.59,1.61-.32,3.23-.43,4.86-.28,1.27.11,2.52.29,3.75.66,1.1.33,2.18.7,3.2,1.22,1.09.55,2.11,1.2,3.05,1.98.54.46,1.03.97,1.54,1.47-.42.27-.87.48-1.32.69-.04-.01-.05,0-.06.04-.25.06-.46.2-.68.32-1.27.67-2.61,1.2-4,1.55-.68.17-1.36.4-2.05.47-.81.08-1.6.28-2.41.34-1.04.07-2.08.07-3.12.08-1.02.01-2.03-.07-3.04-.22-3.26-.47-6.38-1.41-9.28-3.01Zm18.32,1.37c-.65-1.45-1.3-2.88-1.94-4.33-.07-.16-.17-.23-.34-.21-.2.03-.28-.07-.34-.24-.05-.14-.14-.26-.17-.4-.08-.3-.26-.47-.57-.48-.43-.02-.86-.02-1.28.11-.17.05-.36.19-.51.11-.52-.28-1.08-.23-1.63-.23-.33,0-.6.06-.66.46-.02.15-.12.29-.17.43-.04.1-.09.21-.2.22-.34,0-.46.23-.56.5-.06.16-.12.32-.19.48-.48,1.16-.96,2.32-1.44,3.48-.02.05-.1.1-.04.16.05.04.11,0,.17,0,.62-.2,1.27-.29,1.92-.21.92.12,1.76.51,2.58.95.19.1.39.15.61.01.22-.13.48-.2.72-.3,1.04-.44,2.1-.67,3.24-.5.24.04.51.12.8-.01Z"/>
      <path class="cls-15" d="m17.37,54.99c.14.24.39.38.62.47.44.18,1.06-.29,1.07-.77.01-.63-.19-1.17-.69-1.58-.09-.11-.19-.2-.36-.18.06.07.11.12.16.18.07.67,0,.85-.44,1.06-.21.1-.42.09-.62-.02-.34-.19-.63-.75-.54-1.06.17-.56.39-.82,1.01-.86.61-.05,1.07.26,1.45.7.48.56.73,1.21.72,1.96,0,.19-.07.36-.13.54-.04,0-.06.01-.05.06-.09.22-.28.37-.45.52-.05-.01-.06.01-.06.05-.02,0-.04.01-.07.02-.05-.02-.05,0-.06.04-.81.35-1.33-.11-1.85-.63.03-.13-.04-.17-.16-.17-.23-.22-.46-.43-.68-.65-.04-.04-.08-.08-.13-.13-.11-.16-.28-.21-.45-.28-.11-.05-.21-.04-.3.06-.09.1-.07.19-.02.31.16.44.57.57.91.8.03.02.07.04.1.06.01.03.02.06.07.04.22.22.51.38.58.71-.02.04.01.06.05.06.07.52-.15.91-.56,1.2-.05-.02-.06,0-.06.05-.15.02-.25.14-.38.21-.05-.02-.06.01-.07.04-.12.07-.25.14-.37.21-.04-.02-.05,0-.07.04-.02,0-.04,0-.06.01-.04,0-.08,0-.13,0-.12-.15-.22-.32-.27-.51,0-.04,0-.08-.01-.13.38-.23.76-.45,1.13-.69.29-.18.3-.4.04-.63-.13-.11-.28-.21-.44-.29-.46-.24-.82-.59-1.08-1.04-.21-.37-.19-.78.11-1.06.11-.1.14-.29.35-.3.35-.01.67.05.95.27.4.31.65.77,1.02,1.11.04.08.11.15.19.19Zm.32-1.51c.02-.16-.05-.26-.22-.26-.15,0-.27.09-.27.24,0,.14.12.27.25.26.1,0,.28-.04.24-.24Z"/>
      <path class="cls-8" d="m13,44.3c.04.15.09.29.12.44.06.3-.07.53-.3.7-.22.15-.48.25-.72.12-.24-.12-.42-.33-.41-.64,0-.06,0-.12,0-.19,0-.41-.18-.51-.59-.28.26.27.35.56.23.93-.1.29-.31.42-.56.46-.29.05-.54-.05-.7-.33-.44-.76-.08-1.46.67-1.79.41-.17.83-.16,1.24-.1.16.02.27,0,.4-.08.47-.33,1-.25,1.44-.02.35.19.58.61.69,1.03.13.48.21.97.13,1.49-.11.7-.53,1.23-1.25,1.36-.83.15-1.67.26-2.51.38-.06,0-.12.04-.17.05-.21.04-.37.04-.41-.25-.08-.54-.09-.5.54-.62.74-.14,1.5-.14,2.24-.31.21-.05.41-.16.61-.24.09-.04.16-.1.19-.19.33-.61.18-1.19-.13-1.75-.04-.09-.1-.16-.19-.2-.11-.15-.29-.11-.44-.17-.06,0-.14-.04-.18.03-.03.05.01.11.06.15Zm-.66.15c-.13.19-.24.38-.06.57.07.07.24.09.3-.03.12-.25-.05-.4-.24-.53Zm-1.68.85c.14.01.21-.06.21-.19,0-.16-.07-.25-.24-.24-.15,0-.2.09-.2.22,0,.14.06.23.23.22Z"/>
      <path class="cls-8" d="m46.05,66.17c-.05.08-.13.14-.15.23-.09.3-.23.29-.47.15-.36-.22-.4-.43-.09-.74.9-.91,2.03-1.01,3.09-.64.66.23.92.73.96,1.42.02.41.02.82.1,1.23.06.35.03.7-.09,1.04-.22.6-1.32,1.05-1.92.28-.17-.22-.27-.46-.39-.71-.07-.14-.13-.28-.21-.42-.1-.17-.22-.31-.44-.26-.23.05-.32.24-.42.42-.04.06-.02.15.09.14.09,0,.19,0,.28,0,.33-.03.53.15.65.43.12.29.03.62-.23.81-.46.33-.9.25-1.28-.19-.37-.43-.36-1.04-.02-1.64.07-.07.14-.14.2-.21.53-.39,1.46-.41,1.85.3.17.3.3.61.46.92.07.13.15.3.34.27.18-.03.22-.17.26-.34.09-.38.04-.76.03-1.14-.01-.35-.15-.68-.11-1.03.04-.39-.2-.66-.52-.77-.56-.19-1.14-.23-1.66.15-.14.07-.24.18-.32.31Zm.27,3c.15.01.24-.04.24-.2,0-.15-.11-.18-.24-.17-.14,0-.28,0-.27.2,0,.18.15.16.27.17Z"/>
      <path class="cls-8" d="m24.38,61.6c-.15-.2-.37-.33-.38-.6-.02-.35.1-.61.42-.76.31-.15.61-.11.88.11.27.22.4.5.32.85-.12.51-.49.76-.96.91-.41.13-.82.27-1.11.63-.34.45-.37.85,0,1.28.58.68,1.31.73,1.88-.07.76-1.07,1.49-2.15,2.23-3.24.14-.2.25-.28.44-.09.06.06.13.11.2.14.18.09.17.18.06.34-.77,1.11-1.53,2.23-2.3,3.34-.48.68-1.1.96-1.81.72-.76-.26-1.41-.71-1.7-1.52-.24-.66.23-1.48,1-1.76.27-.1.55-.18.84-.28Zm.62-.75c-.01-.08-.08-.18-.23-.18-.15,0-.25.07-.25.22,0,.15.1.28.23.28.12,0,.26-.08.25-.31Z"/>
      <path class="cls-8" d="m35.07,65.62c-.02.39-.2.71-.51.97-.3.24-.6.48-.79.83-.26.48-.21,1,.26,1.34.77.56,1.64.27,1.86-.71.29-1.3.63-2.6.92-3.9.04-.18.1-.2.24-.16.16.04.32.09.48.12.16.03.1.13.08.21-.18.75-.36,1.51-.55,2.26-.16.64-.32,1.28-.48,1.93-.16.63-.59.98-1.21,1.1-.68.12-1.31-.07-1.88-.43-.78-.48-.9-1.48-.29-2.17.17-.2.38-.36.59-.51.22-.16.29-.26-.02-.41-.28-.14-.44-.52-.37-.76.09-.33.41-.62.75-.61.57.02.91.27.95.88Zm-.7-.14c.01-.15-.05-.25-.21-.25-.15,0-.28.07-.28.22,0,.14.12.26.25.26.1,0,.28-.04.24-.24Z"/>
      <path class="cls-9" d="m46.05,66.17c.07-.14.18-.24.32-.31,0,.22-.1.32-.32.31Z"/>
      <path class="cls-9" d="m18.16,53.12c-.05-.06-.1-.12-.16-.18.17-.03.27.07.36.18-.07,0-.14,0-.2,0Z"/>
      <path class="cls-9" d="m13,44.3s-.09-.09-.06-.15c.04-.07.12-.04.18-.03,0,.09-.04.14-.12.18Z"/>
      <path class="cls-9" d="m16.93,55.32c.12,0,.19.04.16.17-.1-.01-.15-.07-.16-.17Z"/>
      <path class="cls-9" d="m13.88,46.24c-.04.09-.1.16-.19.19-.02-.15.05-.21.19-.19Z"/>
      <path class="cls-9" d="m13.56,44.29c.09.04.15.11.19.2-.15.02-.21-.05-.19-.2Z"/>
      <path class="cls-9" d="m17.37,54.99c-.08-.05-.15-.11-.19-.19.14-.02.21.05.19.19Z"/>
      <path class="cls-9" d="m45.71,67.5c-.07.07-.14.14-.2.21-.03-.16.04-.24.2-.21Z"/>
      <path class="cls-9" d="m16.12,54.54s.08.08.13.13c-.2.11-.1-.07-.13-.13Z"/>
      <path class="cls-9" d="m15.09,57.42s0,.08.01.13c-.03-.02-.08-.03-.08-.06-.01-.05.03-.06.07-.07Z"/>
      <path class="cls-9" d="m15.37,58.06s.08,0,.13,0c0,.04-.01.09-.06.09-.05,0-.06-.05-.06-.09Z"/>
      <path class="cls-9" d="m15.98,57.8s.02-.07.07-.04c-.02.01-.05.03-.07.04Z"/>
      <path class="cls-9" d="m17.06,56.3s-.06-.02-.05-.06c.02.02.03.04.05.06Z"/>
      <path class="cls-9" d="m18.93,56.11s0-.07.06-.04c-.02.01-.04.03-.06.04Z"/>
      <path class="cls-9" d="m19.06,56.05s.01-.06.06-.05c-.02.02-.04.03-.06.05Z"/>
      <path class="cls-9" d="m16.44,57.55s.01-.06.06-.05c-.02.02-.04.03-.06.05Z"/>
      <path class="cls-9" d="m15.55,58.05s.02-.06.07-.04c-.02.01-.04.03-.07.04Z"/>
      <path class="cls-9" d="m16.43,55.53s-.05-.01-.07-.04c.02.01.04.03.07.04Z"/>
      <path class="cls-9" d="m19.57,55.49s.01-.06.05-.06c-.02.02-.03.04-.05.06Z"/>
      <path class="cls-9" d="m53.81,60.24s.02-.06.06-.04c-.02.01-.04.03-.06.04Z"/>
      <path class="cls-9" d="m24.68,56.69s.04,0,.06,0c0,.02,0,.03-.01.05-.02-.02-.03-.03-.05-.05Z"/>
      <path class="cls-15" d="m39.48,50.06c0,.18,0,.36.02.53.04.24-.1.32-.28.33-.87.04-1.72.22-2.59.32-.01,0-.02,0-.03,0-.18.02-.39.21-.54.07-.13-.12-.14-.36-.21-.55-.22-.63-.44-1.27-.66-1.9.43.01.81.21,1.21.31,1.03.27,2.04.64,3.08.89Z"/>
      <path class="cls-8" d="m59.87,56.13c-.13.16-.27.31-.43.43-.2-.15-.4-.31-.6-.46-.14-.11-.14-.19.04-.24.34.08.65.23,1,.28Z"/>
      <path class="cls-10" d="m73.04,35.09c.02.17.06.36.05.54-.05.83.07,1.66.05,2.49-.03.8.06,1.6.12,2.39.08,1.08.18,2.17.12,3.26-.07,1.2-.24,2.39-.51,3.56-.17.74-.3,1.5-.57,2.22-.38,1.01-.94,1.91-1.5,2.82-1.12,1.82-2.4,3.53-3.7,5.23-1.1,1.44-2.23,2.84-3.43,4.2-.26.3-.52.59-.77.9-.12.15-.22.2-.37.04-.66-.71-1.32-1.41-1.99-2.11-.12-.13-.02-.17.04-.25.44-.48.94-.91,1.36-1.42.94-1.11,1.83-2.25,2.73-3.4,1.19-1.53,2.31-3.09,3.37-4.71.72-1.12,1.43-2.24,1.8-3.54.4-1.39.68-2.8.97-4.21.43-2.11.83-4.23,1.48-6.29.17-.55.34-1.12.62-1.63.02-.04.03-.1.13-.09Z"/>
      <path class="cls-10" d="m72.8,49.04c-.04.64-.08,1.27-.14,1.91-.04.45-.08.91-.17,1.35-.12.54-.09,1.1-.3,1.63-.09.22-.09.52-.12.78-.13.94-.58,1.71-1.18,2.42-.28.33-.54.68-.82,1-.2.24-.44.49-.65.73-.65.76-1.45,1.37-2.07,2.15-.1.13-.24.2-.35.3-.55.53-1.12,1.02-1.69,1.52-.33.3-.67.61-1.05.85-.16.1-.19.39-.44.35-.2-.04-.29-.25-.45-.37-.2-.14-.27-.41-.47-.57-.09-.07.03-.15.08-.2,1.11-1.1,2.04-2.34,3.01-3.56,1.66-2.08,3.27-4.19,4.72-6.42.8-1.23,1.54-2.48,2.07-3.88Z"/>
      <path class="cls-10" d="m69.28,47.54c-.29.99-.67,1.94-1.23,2.81-1.16,1.81-2.41,3.56-3.73,5.26-1.01,1.31-2.03,2.62-3.18,3.83-.24.25-.41.57-.73.75-.17.1-.24.08-.36-.05-.59-.6-1.18-1.2-1.79-1.79-.16-.15-.14-.24,0-.37.57-.52,1.15-1.02,1.69-1.56,1.26-1.28,2.46-2.61,3.46-4.1.07-.1.13-.17.26-.21,1.94-.54,3.38-1.78,4.62-3.29.34-.41.66-.84.98-1.28Z"/>
      <path class="cls-10" d="m63.62,51.8c.57-.85,1.16-1.7,1.72-2.56.97-1.49,1.77-3.06,2.18-4.8.06-.27.13-.55.16-.82.02-.19.08-.2.24-.14.71.26,1.43.51,2.15.76.21.07.18.21.16.37-.12,1.18-.76,2.14-1.4,3.08-.59.87-1.27,1.67-2.06,2.38-.83.75-1.76,1.36-2.84,1.7-.1.03-.2.06-.3.05h0Z"/>
      <path class="cls-10" d="m72.13,55.57c.07-.31.13-.62.21-.92.24-.97.39-1.96.49-2.96.07-.79.13-1.59.19-2.38.05-.68.05-1.36.11-2.04.02-.26.15-.32.37-.27.71.15,1.42.29,2.13.44.21.04.27.14.22.37-.41,1.79-1.01,3.51-1.88,5.12-.45.84-.98,1.63-1.57,2.39-.07.09-.13.18-.19.27-.03,0-.05-.01-.08-.02Z"/>
      <path class="cls-10" d="m63.62,51.8s0,.02-.01.03c0,0,0-.02.01-.03,0,0,0,0,0,0Z"/>
      <path class="cls-7" d="m47.55,61.15c-.28.13-.56.05-.8.01-1.14-.18-2.2.05-3.24.5-.24.1-.5.17-.72.3-.22.14-.42.09-.61-.01-.82-.44-1.66-.83-2.58-.95-.65-.09-1.29,0-1.92.21-.06.02-.12.05-.17,0-.06-.06.02-.11.04-.16.48-1.16.96-2.32,1.44-3.48.07-.16.13-.32.19-.48.09-.27.22-.5.56-.5.11,0,.16-.11.2-.22.06-.15.15-.28.17-.43.06-.4.33-.46.66-.46.56,0,1.11-.04,1.63.23.15.08.34-.06.51-.11.42-.13.84-.13,1.28-.11.31.02.49.18.57.48.04.14.13.26.17.4.06.17.14.27.34.24.16-.02.26.04.34.21.64,1.44,1.29,2.88,1.94,4.33Zm-4.84-2.15c.09-.03.18-.05.26-.09.62-.3,1.26-.47,1.95-.42.23.02.47,0,.74,0-.41-.91-.79-1.78-1.18-2.65-.03-.06-.07-.1-.14-.1-.48.02-.98-.07-1.45.07-.15.04-.33.08-.33.34.02.95.01,1.89.02,2.84.04.12.09.04.14,0Zm-.47,0s.08.12.12,0c0-.96,0-1.92.02-2.87,0-.21-.13-.26-.28-.31-.5-.18-1.02-.12-1.53-.13-.09,0-.13.03-.16.11-.36.85-.72,1.69-1.08,2.54-.05.11-.06.15.13.13.45-.04.9-.07,1.35.03.5.1.95.36,1.43.51Zm-2.87-1.82s-.06.02-.04.06c-.03.09-.05.17-.08.26-.04,0-.06.01-.05.06-.03.08-.05.17-.08.25-.04,0-.06.01-.05.06-.11.28-.22.56-.33.84-.27.67-.54,1.34-.82,2-.03.07-.09.13-.04.2.05.06.13.04.2.02,1.02-.25,2-.12,2.95.29.45.19.9.39,1.37.59,0-.79,0-1.55,0-2.31,0-.12-.04-.19-.15-.24-.99-.48-1.99-.87-3.11-.51-.05.02-.12.1-.19.01-.05-.08.02-.13.05-.18.24-.54.48-1.08.66-1.63.04-.04.12-.07,0-.11-.04,0-.08,0-.13,0-.04-.02-.05,0-.04.04-.04.11-.14.19-.14.31Zm6.62,1.54c-.29.08-.54-.02-.8-.05-.86-.08-1.63.2-2.4.51-.09.04-.17.09-.17.23,0,.79,0,1.57,0,2.36.3-.06.54-.2.79-.31.74-.3,1.48-.56,2.29-.56.41,0,.81,0,1.22.02.25.01.32-.04.2-.28-.18-.35-.33-.71-.49-1.06-.39-.87-.79-1.74-1.17-2.62-.05-.12-.14-.13-.22-.1-.11.05,0,.12.02.17.24.55.49,1.11.74,1.67Z"/>
      <path class="cls-9" d="m17.68,53.48c.04.2-.14.24-.24.24-.13,0-.25-.13-.25-.26,0-.14.12-.23.27-.24.17,0,.24.1.22.26Z"/>
      <path class="cls-9" d="m12.33,44.45c.19.14.36.28.24.53-.06.12-.23.11-.3.03-.18-.19-.07-.38.06-.57Z"/>
      <path class="cls-9" d="m10.65,45.3c-.16.01-.23-.08-.23-.22,0-.13.05-.21.2-.22.17,0,.24.09.24.24,0,.13-.07.21-.21.19Z"/>
      <path class="cls-9" d="m46.33,69.18c-.12,0-.26,0-.27-.17,0-.19.13-.2.27-.2.13,0,.23.02.24.17,0,.16-.09.22-.24.2Z"/>
      <path class="cls-9" d="m24.99,60.85c0,.23-.13.31-.25.31-.13,0-.24-.13-.23-.28,0-.14.11-.22.25-.22.15,0,.22.1.23.18Z"/>
      <path class="cls-9" d="m34.37,65.48c.04.2-.14.24-.24.24-.13,0-.25-.13-.25-.26,0-.15.14-.22.28-.22.16,0,.22.1.21.25Z"/>
      <path class="cls-15" d="m45.99,58.72c-.25-.56-.5-1.11-.74-1.67-.02-.05-.13-.13-.02-.17.08-.03.17-.02.22.1.38.87.78,1.74,1.17,2.62.16.36.31.71.49,1.06.13.25.05.3-.2.28-.4-.02-.81-.02-1.22-.02-.81,0-1.55.26-2.29.56-.26.1-.49.25-.79.31,0-.79,0-1.58,0-2.36,0-.14.08-.19.17-.23.77-.31,1.55-.59,2.4-.51.26.02.5.13.8.05Z"/>
      <path class="cls-15" d="m39.12,57.8c.03-.08.05-.17.08-.25l.05-.06c.03-.09.05-.17.08-.26.01-.02.03-.04.04-.06,0-.13.11-.2.14-.31.02,0,.03-.02.04-.04.04,0,.08,0,.13,0,0,.04,0,.07,0,.11-.19.56-.42,1.1-.66,1.63-.02.05-.1.11-.05.18.06.09.14,0,.19-.01,1.12-.35,2.12.03,3.11.51.11.05.15.12.15.24,0,.76,0,1.52,0,2.31-.47-.2-.92-.4-1.37-.59-.95-.41-1.94-.54-2.95-.29-.07.02-.16.04-.2-.02-.05-.06.01-.13.04-.2.28-.66.55-1.33.82-2,.11-.28.22-.56.33-.84.02-.02.03-.04.05-.06Z"/>
      <path class="cls-15" d="m42.24,58.99c-.48-.15-.92-.41-1.43-.51-.45-.09-.91-.06-1.35-.03-.19.02-.17-.02-.13-.13.36-.85.72-1.69,1.08-2.54.03-.08.07-.11.16-.11.51.01,1.03-.05,1.53.13.15.05.28.1.28.31-.01.96-.01,1.92-.02,2.87-.04,0-.08,0-.12,0Z"/>
      <path class="cls-15" d="m42.58,58.99c0-.95,0-1.9-.02-2.84,0-.25.18-.29.33-.34.47-.14.97-.05,1.45-.07.08,0,.12.04.14.1.39.87.78,1.74,1.18,2.65-.27,0-.5.01-.74,0-.69-.05-1.33.13-1.95.42-.08.04-.18.06-.26.09-.05,0-.09,0-.14,0Z"/>
      <path class="cls-8" d="m42.24,58.99s.08,0,.12,0c-.04.12-.08.04-.12,0Z"/>
      <path class="cls-8" d="m42.58,58.99s.09,0,.14,0c-.05.04-.1.12-.14,0Z"/>
      <path class="cls-8" d="m39.68,56.93s0-.07,0-.11c.12.04.04.07,0,.11Z"/>
      <path class="cls-8" d="m39.56,56.82s-.02.03-.04.04c-.01-.04,0-.06.04-.04Z"/>
      <path class="cls-8" d="m39.37,57.17s-.03.04-.04.06c-.02-.04.01-.05.04-.06Z"/>
      <path class="cls-8" d="m39.12,57.8s-.03.04-.05.06c-.01-.05.01-.06.05-.06Z"/>
      <path class="cls-8" d="m39.25,57.49l-.05.06s0-.06.05-.06Z"/>
    </g>
  </g>
</svg>