<?xml version="1.0" encoding="UTF-8"?>
<svg id="Layer_2" data-name="Layer 2" xmlns="http://www.w3.org/2000/svg" viewBox="0 0 76.43 70.57">
  <defs>
    <style>
      .cls-1 {
        fill: #fcb216;
      }

      .cls-2 {
        fill: #ffc924;
      }

      .cls-3 {
        fill: #fff;
      }

      .cls-4 {
        fill: #092368;
      }

      .cls-5 {
        fill: #2575a7;
      }

      .cls-6 {
        fill: #1a6fa2;
      }

      .cls-7 {
        fill: #080705;
      }

      .cls-8 {
        fill: #fefbfb;
      }

      .cls-9 {
        fill: #cf0b21;
      }

      .cls-10 {
        fill: #06a54f;
      }

      .cls-11 {
        fill: #cf0a21;
      }

      .cls-12 {
        fill: #025a39;
      }

      .cls-13 {
        fill: #fd5;
      }

      .cls-14 {
        fill: #ea5f25;
      }

      .cls-15 {
        fill: #fefefe;
      }
    </style>
  </defs>
  <g id="Layer_1-2" data-name="Layer 1">
    <g>
      <path class="cls-6" d="m76.43,37.01c-.13.16-.08.36-.1.53-.03.26-.05.54-.1.79-.09.45.06.92-.18,1.36-.07.13,0,.42-.04.64-.13.69-.21,1.39-.37,2.07-.08.34-.07.71-.22,1.03-.19.42-.14.89-.32,1.31-.32.74-.47,1.54-.75,2.29-.13.33-.31.65-.44.98-.13.3-.18.65-.32.97-.73,1.62-1.51,3.22-2.48,4.71-1.02,1.56-2.09,3.09-3.35,4.48-.76.84-1.56,1.65-2.37,2.45-.83.83-1.73,1.59-2.68,2.29-.88.66-1.76,1.33-2.72,1.89-.41.24-.86.44-1.23.7-.64.45-1.34.77-2.01,1.15-.45.26-.92.5-1.41.67-.64.23-1.23.59-1.88.8-.65.21-1.28.45-1.93.67-.45.15-.93.22-1.37.37-.47.16-.94.3-1.42.4-.93.2-1.86.42-2.8.56-.46.07-.92.17-1.39.2-.89.06-1.78.21-2.67.19-.04,0-.08.01-.09.05h-.48s-.07-.06-.1-.06c-.67,0-1.34,0-2.01,0-.03,0-.07.04-.1.06h-.54c-.04-.08-.08-.11-.2-.08-.25.06-.52.07-.75-.04-.13-.07-.23.04-.33,0-.35-.1-.73.01-1.07-.18-.12-.07-.25.07-.42.03-.32-.08-.67-.19-.97-.19-.4,0-.77-.07-1.14-.14-.55-.12-1.12-.19-1.66-.37-.32-.11-.69-.11-1.03-.21-1.58-.44-3.15-.92-4.67-1.54-2.92-1.2-5.66-2.73-8.18-4.64-1.12-.85-2.19-1.75-3.2-2.72-2.72-2.6-4.96-5.57-6.76-8.87-.59-1.08-1.1-2.2-1.57-3.34-.45-1.1-.88-2.22-1.17-3.38.01-.01.03-.03.04-.04-.01,0-.03,0-.04-.01-.04-.12-.08-.24-.12-.36.01-.01.03-.03.04-.04-.01,0-.03-.01-.04-.02-.25-.8-.45-1.6-.6-2.42-.08-.48-.27-.96-.28-1.44-.01-.61-.28-1.19-.2-1.8.01-.02.03-.03.04-.05-.01,0-.03-.02-.04-.02-.14-.27-.08-.58-.1-.87-.07-.77-.06-1.54-.07-2.31,0-.48-.04-.96,0-1.43.05-.49.04-.98.11-1.47.05-.34,0-.69.06-1.04.09-.58.09-1.16.24-1.73.05-.05.13-.08.11-.18-.03-.24.09-.47.09-.68,0-.33.09-.61.16-.92.16-.77.31-1.54.59-2.28.06-.02.07-.06.06-.11-.15-.24.07-.42.12-.62.17-.58.37-1.14.56-1.71.01-.02.03-.04.04-.06,0-.07.12-.1.09-.19.06-.02.09-.05.07-.11.05-.28.16-.53.28-.79.14-.3.25-.62.38-.93.27-.66.61-1.28.92-1.91.07.14.17.27.21.41.07.27.35.48.25.81-.14.1-.22.25-.28.4-.18.41-.36.83-.55,1.24-.04,0-.06.01-.05.06-.17.46-.32.93-.51,1.37-.32.73-.5,1.51-.76,2.26-.22.64-.32,1.32-.52,1.97-.09.31-.2.64-.17.98-.07,0-.12.03-.14.1.1.22.02.42-.07.61-.04-.01-.05,0-.05.04.02.11.12.22-.01.32-.04-.01-.05,0-.04.04.12.19-.01.38-.02.57,0,.4-.03.82-.1,1.2-.15.88-.19,1.75-.2,2.64-.01,1.18-.01,2.36.06,3.53.02.39.1.77.11,1.16.02.54.24,1.05.18,1.59.02.06,0,.15.11.15-.01.06-.05.12-.03.17.25.95.4,1.93.66,2.88.18.64.35,1.29.56,1.92.24.75.54,1.48.81,2.22,0,.04.01.05.05.05.04.11.06.22.12.32.22.4.39.82.55,1.24,0,.04.01.05.05.06.36.83.8,1.62,1.26,2.39.25.43.44.91.83,1.25-.02.05-.07.12.04.12.02.07.02.15.08.22.43.59.83,1.21,1.27,1.79.32.43.7.81,1.01,1.24.37.53.86.94,1.23,1.47.18.27.42.49.65.71.49.46.93.97,1.45,1.4.17.14.42.24.52.41.16.27.44.38.64.59.24.25.54.45.82.67.01.02.02.03.04.04.46.4.93.78,1.45,1.08l.05.06c.38.27.77.53,1.15.8.06.07.11,0,.16-.02,0,.1.06.17.14.21.43.27.85.55,1.31.76.02.01.04.03.06.04.17-.02.19.21.36.2.02.01.04.02.06.04.3.04.44.34.72.42,0,.03,0,.06.05.04.37.2.74.41,1.14.56,0,.01.01.03.02.04.02-.01.03-.03.05-.04.35.23.75.35,1.12.53.35.17.74.3,1.1.46.16.07.33.18.53.16.02.01.04.03.05.04.13.09.27.13.42.13.02.12.08.14.18.06.33.25.74.32,1.11.45.1.04.23-.09.31-.01.35.3.8.28,1.2.44.42.17.88.23,1.32.34.5.12,1,.23,1.5.32.56.09,1.12.12,1.67.25.76.17,1.53.21,2.29.28.71.06,1.42.09,2.14.08,1.04-.02,2.08,0,3.11-.07.85-.06,1.7-.16,2.55-.24.04,0,.05-.01.06-.05.26.01.5-.09.75-.12.7-.1,1.4-.22,2.09-.4.62-.17,1.25-.29,1.87-.44.1.02.14-.05.18-.11.1,0,.2,0,.29-.03.85-.32,1.71-.6,2.58-.88.09.02.09-.05.12-.11.4-.07.77-.24,1.12-.41.6-.28,1.2-.55,1.79-.85,3.82-1.91,7.2-4.39,10.12-7.5,2.02-2.15,3.74-4.51,5.14-7.1.46-.84.92-1.69,1.24-2.6.02-.02.03-.04.05-.06.04-.12.09-.24.13-.36.02-.02.03-.04.05-.06l.03-.12c.14-.05.15-.17.15-.29.12-.29.24-.59.31-.9.12-.01.11-.09.11-.18,0-.06,0-.12.03-.17.27-.69.51-1.39.68-2.11.11-.44.27-.87.36-1.32.14-.74.34-1.47.48-2.22.17-.95.2-1.91.42-2.85-.17-.38.02-.75.01-1.13,0-.5.06-1.01.06-1.51,0-.93-.04-1.86-.12-2.79-.04-.42-.03-.84-.11-1.27-.1-.5-.1-1.02-.19-1.53l.04-.05s-.03-.01-.04-.02c-.23-.74-.25-1.52-.46-2.26-.2-.69-.37-1.38-.56-2.07-.17-.59-.42-1.15-.55-1.76.04-.1-.06-.08-.1-.12,0-.03,0-.06,0-.09-.59-1.57-1.28-3.08-2.09-4.55-.09-.16-.22-.31-.25-.5,0-.03,0-.05-.04-.04-.02-.03-.05-.06-.07-.09-.78-1.38-1.69-2.67-2.65-3.92-.71-.93-1.48-1.82-2.32-2.65-.82-.81-1.61-1.66-2.49-2.4-1.28-1.07-2.6-2.08-4.03-2.96-.75-.46-1.5-.94-2.28-1.34-1.17-.6-2.34-1.22-3.58-1.67-.4-.14-.77-.37-1.2-.42-.03-.07-.1-.08-.17-.09-.1-.04-.2-.1-.32-.08h0s-.03,0-.04,0c-.33-.16-.65-.31-.98-.47-.1-.05-.21-.14-.31,0-.49-.13-.97-.26-1.46-.38-.09-.02-.2-.15-.29.02-.02,0-.04,0-.06,0,.04-.05.04-.09-.03-.11-.25-.06-.51-.13-.77-.18-.07-.01-.14,0-.11.11h0c-.03-.18-.2-.16-.31-.2-.51-.17-1.06-.05-1.56-.28-.12-.05-.23.12-.34.04-.35-.26-.78-.09-1.16-.21-.2-.06-.46-.02-.65-.06-.55-.13-1.11-.13-1.66-.17-.63-.04-1.26-.08-1.89-.09-.96-.01-1.92.06-2.87.13-.14,0-.3-.06-.43-.03-.87.22-1.77.25-2.66.38-.68.1-1.34.26-2.01.4-.69.14-1.37.32-2.05.48-.1-.04-.13.05-.18.09-.51.06-.97.3-1.45.46-1.35.43-2.65.98-3.93,1.57-.87.4-1.7.88-2.56,1.33-.06,0-.13-.05-.16.05-.11.16-.26.26-.44.32-.04-.02-.05,0-.06.04-.11,0-.15.1-.24.14-.04-.02-.05,0-.06.04-.32.21-.64.41-.95.62-.04-.02-.05,0-.06.04-.04.03-.08.06-.12.08-.04-.02-.05,0-.04.04-.18.13-.37.25-.55.38-.04-.02-.05,0-.05.04-.54.41-1.08.82-1.62,1.24-.08.06-.16.08-.24.1-.08.02-.11.08-.12.16h0s-.06.02-.05.06c-.58.52-1.21.99-1.76,1.55-.74.74-1.53,1.44-2.17,2.27-.31-.1-.62-.2-.92-.3,1.42-1.67,3.01-3.17,4.72-4.53,1.06-.85,2.16-1.64,3.32-2.36,2.28-1.42,4.68-2.61,7.22-3.5,1.23-.43,2.46-.81,3.73-1.11.98-.23,1.97-.46,2.97-.6.64-.09,1.29-.12,1.93-.2.97-.12,1.94-.13,2.92-.2.99-.07,1.98.03,2.96.04.98.01,1.96.16,2.94.27.95.11,1.87.35,2.81.51.32.05.63.14.95.18.28.04.55.18.83.25,1.59.41,3.14.95,4.66,1.58,2.98,1.24,5.74,2.86,8.28,4.84,2.33,1.82,4.4,3.89,6.22,6.23,1.05,1.35,2.01,2.76,2.85,4.25.54.96,1.06,1.93,1.48,2.95.31.76.68,1.49.95,2.26.38,1.06.67,2.14.98,3.21.2.68.37,1.36.47,2.06.12.8.34,1.59.37,2.41.02.43.08.86.1,1.3.02.36.05.77.19,1.13v1.07c-.09.1-.09.2,0,.3v.3c-.1.3-.1.6,0,.9v.96Z"/>
      <path class="cls-5" d="m39.11,70.57s.06-.06.1-.06c.67,0,1.34,0,2.01,0,.03,0,.07.04.1.06h-2.21Z"/>
      <path class="cls-5" d="m76.43,36.05c-.1-.3-.1-.6,0-.9v.9Z"/>
      <path class="cls-5" d="m76.43,34.86c-.09-.1-.09-.2,0-.3v.3Z"/>
      <path class="cls-11" d="m12.59,12.52c.31.1.62.2.92.3.4.21.85.28,1.28.42,1.11.36,2.23.68,3.35,1.03,1.35.42,2.69.86,4.03,1.28,1.09.34,2.18.65,3.27.99,1.43.44,2.86.9,4.29,1.34,1.36.43,2.72.85,4.08,1.27,1.21.38,2.42.76,3.63,1.13,1.21.38,2.43.74,3.64,1.14.99.32,1.99.59,2.97.94.94.33,1.91.59,2.86.88.76.23,1.51.49,2.29.68.63.15,1.23.41,1.84.61,1.21.38,2.43.76,3.64,1.14,1.21.38,2.43.76,3.64,1.13.95.3,1.9.6,2.86.89.3.09.58.23.9.23.18.22.41.46.45.72.08.58.2,1.14.37,1.7.1.34.3.68.3,1.02.01.94.3,1.83.39,2.74.07.64.11,1.27.16,1.91-.1-.02-.19-.04-.29-.07-.84-.26-1.67-.53-2.51-.79-4.14-1.29-8.29-2.58-12.43-3.87-4.03-1.26-8.06-2.52-12.1-3.76-1.05-.32-2.1-.66-3.16-.97-1.09-.31-2.15-.68-3.23-1.03-.63-.2-1.25-.41-1.89-.58-.37-.1-.73-.24-1.09-.35-.74-.22-1.48-.45-2.23-.68-.47-.15-.94-.31-1.41-.45-.73-.23-1.46-.44-2.19-.67-.48-.15-.95-.32-1.44-.47-.71-.22-1.44-.4-2.14-.65-.8-.29-1.61-.51-2.42-.76-1.04-.32-2.07-.68-3.13-.96-.8-.21-1.57-.5-2.35-.76-.09-.03-.18-.08-.29-.05h0s-.03-.03-.05-.05c-.03-.04-.06-.08-.08-.12-.47-1.02-.95-2.04-1.42-3.06-.61-1.31-1.22-2.63-1.82-3.94-.25-.55-.55-1.08-.74-1.66,1.02.32,2.04.64,3.06.95,1.08.33,2.16.66,3.23.99.31.09.6.25.93.26Z"/>
      <path class="cls-2" d="m5.37,10.32c.2.58.49,1.11.74,1.66.61,1.31,1.21,2.63,1.82,3.94.47,1.02.95,2.04,1.42,3.06.02.04.05.08.08.12.02.02.03.04.05.05,0,0,0,0,0,0,.24.71.6,1.37.91,2.05.77,1.7,1.57,3.38,2.35,5.08.75,1.61,1.49,3.23,2.24,4.84.39.84.75,1.7,1.19,2.51.15.54.46,1.02.69,1.53.75,1.67,1.53,3.33,2.3,5,.39.84.79,1.69,1.19,2.53.03.07.05.15.08.22.9,1.94,1.8,3.88,2.69,5.83.28.62.59,1.23.82,1.88-.04.03-.09.05-.13.08-.04,0-.07,0-.06.05h0c-.06-.01-.12-.03-.12.06h0c-.24-.01-.43.13-.63.23-.25.13-.36.12-.49-.17-2.36-5.15-4.73-10.29-7.12-15.43-.2-.44-.38-.9-.66-1.3-.04-.19-.1-.38-.19-.56-1.05-2.27-2.1-4.53-3.15-6.8-.71-1.53-1.42-3.05-2.13-4.58-.03-.09-.05-.18-.14-.24-.13-.35-.26-.7-.45-1.03-.08-.14-.12-.3-.28-.37.1-.32-.18-.53-.25-.81-.04-.15-.14-.28-.21-.41-.31-.68-.61-1.35-.92-2.03-.51-1.11-1.03-2.22-1.55-3.33-.74-1.6-1.47-3.19-2.21-4.79-.57-1.23-1.15-2.45-1.71-3.67-.04-.09-.1-.14-.17-.19-.25-.19-.5-.39-.76-.55-.19-.12-.3-.31-.26-.49.08-.41-.13-.78-.14-1.18-.01-.4-.07-.79-.06-1.19,0-.21-.1-.43-.13-.66-.01-.1-.03-.19-.01-.3.2,0,.31.15.44.26.74.64,1.48,1.29,2.23,1.93.13.11.2.23.19.4-.01.28.02.56,0,.83-.03.35.05.66.2.97.54,1.15,1.08,2.31,1.62,3.46.23.5.47,1,.7,1.5Z"/>
      <path class="cls-8" d="m4.58,29.66c.03.1-.06.13-.11.18,0-.08,0-.16.11-.18Z"/>
      <path class="cls-8" d="m6.37,22.98c.01.06-.02.09-.07.11-.06-.09.01-.1.07-.11Z"/>
      <path class="cls-8" d="m5.48,25.66c.01.05,0,.1-.06.11-.08-.09,0-.1.06-.11Z"/>
      <path class="cls-15" d="m4.23,38.68s.03.02.04.02c-.01.02-.03.03-.04.05,0-.02,0-.05,0-.07Z"/>
      <path class="cls-5" d="m6.2,23.28s-.03.04-.04.06c-.02-.04,0-.05.04-.06Z"/>
      <path class="cls-8" d="m5.43,44.84s.03,0,.04.01c-.01.01-.03.03-.04.04,0-.02,0-.04,0-.06Z"/>
      <path class="cls-8" d="m5.31,44.41s.03.01.04.02c-.01.01-.03.03-.04.04,0-.02,0-.04,0-.06Z"/>
      <path class="cls-3" d="m62.09,27.93c-.32,0-.6-.15-.9-.23-.96-.29-1.91-.59-2.86-.89-1.21-.38-2.43-.76-3.64-1.13-1.21-.38-2.43-.75-3.64-1.14-.62-.2-1.22-.45-1.84-.61-.78-.19-1.53-.45-2.29-.68-.96-.28-1.92-.55-2.86-.88-.98-.34-1.98-.61-2.97-.94-1.21-.39-2.43-.76-3.64-1.14-1.21-.38-2.42-.76-3.63-1.13-1.36-.42-2.72-.85-4.08-1.27-1.43-.45-2.86-.9-4.29-1.34-1.09-.34-2.18-.65-3.27-.99-1.35-.42-2.69-.86-4.03-1.28-1.11-.35-2.24-.67-3.35-1.03-.43-.14-.87-.21-1.28-.42.64-.83,1.43-1.53,2.17-2.27.55-.56,1.17-1.03,1.76-1.55.02-.02.03-.04.05-.05,0,0,0,0,0,0,.11,0,.12-.08.12-.16.08-.02.17-.04.24-.1.54-.42,1.08-.82,1.62-1.24.02-.01.03-.03.05-.04.18-.13.37-.25.55-.38.02,0,.03-.02.04-.04.04-.03.08-.06.12-.08.02-.01.04-.02.06-.04.32-.21.64-.41.95-.62.02-.01.04-.02.06-.04.08-.04.12-.15.24-.14.02-.01.04-.02.06-.04.18-.06.33-.16.44-.32.05-.02.14.09.16-.05.85-.45,1.69-.92,2.56-1.33,1.28-.59,2.58-1.14,3.93-1.57.48-.15.94-.4,1.45-.46.07,0,.16.01.18-.09.68-.16,1.36-.34,2.05-.48.67-.13,1.33-.3,2.01-.4.89-.13,1.79-.16,2.66-.38.13-.03.29.04.43.03.96-.06,1.91-.14,2.87-.13.63,0,1.27.05,1.89.09.55.04,1.11.03,1.66.17.19.05.45,0,.65.06.38.11.81-.06,1.16.21.11.08.22-.09.34-.04.5.22,1.05.11,1.56.28.12.04.28.02.31.2-.2,0-.38-.07-.57-.11-.46-.11-.46-.1-.33.36,0,.01,0,.03,0,.09-.29-.09-.55-.24-.88-.23-.39,0-.78-.24-1.2-.1-.08.03-.17-.01-.26-.03-.22-.04-.45-.05-.69-.02.01.05.02.09.03.13.18.53.5.98.8,1.45.44.71.99,1.25,1.84,1.43.37.08.7.15.57.65,0,.02.01.06.02.08.25.84.65,1.59,1.27,2.23.48.5,1,.93,1.61,1.25.07.04.21.05.17.16-.03.09-.11.2-.24.2-.2-.02-.4.05-.61,0-.13-.03-.25.06-.32.17-.05.09.08.1.12.15.27.35.57.68.84,1.03.26.34.55.64.89.89.09.06.23.1.22.25-.13.05-.33-.03-.37.11-.03.11.1.24.2.34.12.12.2.27.35.37.19.12.31.32.46.49.26.3.49.66.9.81h0c.11.06.22.13.33.19,0,.03,0,.06,0,.09-.12.04-.24.08-.41.15.27.26.52.49.76.72.25.25.47.54.76.73.52.35.93.77,1.12,1.39,0,.02.03.05.05.06.47.2.77.61,1.1.95.41.43.7.97,1.04,1.47.24.35.59.61.79,1.02.38.79.84,1.55,1.49,2.16.14.13.23.29.29.47.31.88.64,1.73,1.36,2.38.1.09.13.21.14.34,0,.15.03.31.08.46.14.46.3.92.45,1.38Z"/>
      <path class="cls-14" d="m52.76,13.97c-.41-.15-.64-.5-.9-.81-.15-.17-.28-.37-.46-.49-.15-.1-.23-.24-.35-.37-.1-.1-.23-.24-.2-.34.03-.14.24-.07.37-.11,0-.16-.14-.19-.22-.25-.35-.25-.63-.55-.89-.89-.27-.35-.56-.68-.84-1.03-.04-.05-.17-.06-.12-.15.07-.11.19-.2.32-.17.21.05.4-.01.61,0,.12,0,.21-.11.24-.2.04-.11-.1-.12-.17-.16-.61-.32-1.13-.76-1.61-1.25-.62-.64-1.02-1.39-1.27-2.23,0-.03-.03-.06-.02-.08.12-.5-.2-.57-.57-.65-.84-.17-1.4-.72-1.84-1.43-.29-.47-.62-.92-.8-1.45-.01-.04-.02-.07-.03-.13.24-.03.46-.03.69.02.09.02.18.06.26.03.42-.14.8.11,1.2.1.32,0,.58.14.88.23,0-.06,0-.07,0-.09-.13-.46-.13-.47.33-.36.19.04.37.11.57.11,0,0,0,0,0,0,.31.04.59.18.91.18.02,0,.04,0,.06,0,.04.12.15.1.24.13.56.2,1.07.46,1.48.9.02.03.05.06.07.09,0-.03.01-.07.02-.1-.08-.21-.03-.44-.06-.65.1-.14.21-.04.31,0,.33.15.65.31.98.47.01,0,.03,0,.04,0,0,0,0,0,0,0,.08.09.19.14.3.18.04.02.08.04.11.07.39.27.79.53,1.11.89.07.08.16.09.18-.02.05-.27.17-.13.28-.07.94.58,1.94,1.09,2.6,2.06.06-.42.07-.43.38-.2.34.24.68.47,1,.73.53.43,1.01.9,1.34,1.5.02.05.02.11.08.13,0-.04,0-.09,0-.13.16-.36.15-.35.45-.07.19.17.37.35.56.5.54.44.99.94,1.34,1.54.08.14.14.28.29.06.07-.1.12-.01.16.03.8.81,1.68,1.56,2.06,2.73.17-.36.32-.68.47-1,.12-.25.17-.25.33-.02.34.52.69,1.04.98,1.6.17.32.27.65.35.99.02.07.05.17.1.2.08.04.14-.05.18-.12.04-.06.1-.13.12-.2.03-.08.05-.15.16-.14.09,0,.17.07.18.14.04.3.26.5.38.75.31.65.64,1.29.73,2.01.02.13.09.17.19.04.08-.11.17-.22.26-.32.06-.07.16-.13.19.02.07.36.34.63.39,1-.01.04.01.05.05.05l.08.25s0,.05.04.05c.18.53.34,1.06.41,1.62.03.07-.04.16.05.21.01,0,.06-.07.1-.1.16-.11.24-.32.45-.41.05.17.1.33.15.48-.01.04,0,.05.04.05.31.93.66,1.84.57,2.86.27-.09.34-.42.63-.46,0,.02.01.04.04.04l.04.2s0,.05.04.06c.05.37.22.7.25,1.08,0,.04.01.05.05.06.07.55.21,1.08.18,1.68.19-.14.34-.26.52-.39.22,1.12.51,2.19.32,3.31-.03,0-.06.02-.05.06.01.12,0,.24.17.09.15-.12.3-.28.52-.33.17,1.1.37,2.19.07,3.29-.05.01-.07.05-.05.08.04.05.08.03.11-.02.17-.02.27-.15.41-.22.12-.06.19-.04.18.11,0,.34.04.69.05,1.03.02.72-.06,1.44-.26,2.14-.02.02-.05.05-.07.07.04.03.08.02.12-.01.22-.06.39-.22.62-.26.07.19-.08.35-.07.48.03.39.02.77-.02,1.16-.06.46-.05.92-.26,1.34-.08.16,0,.31.14.3.31-.02.25.17.24.34,0,.12-.03.23-.06.35-.14.59-.04,1.22-.35,1.78-.02.03,0,.08,0,.12-.04.06-.13.08-.1.18,0,.04-.01.09-.02.13-.04.02-.08.06-.06.08.04.03.1.04.14-.02.08,0,.17-.01.26-.02-.08.41-.15.78-.23,1.16-.15.75-.33,1.49-.8,2.12-.27.36-.33.8-.51,1.2-.16.35-.26.73-.6.97-.18-.1-.04-.23-.04-.35,0-.17.19-.32.04-.5.01-.16,0-.31.03-.47.04-.18-.21-.55-.37-.58-.31-.05-.59.06-.85.21-.23.13-.02.33-.06.49,0,.04,0,.08,0,.12-.1-.06-.21-.04-.31-.06-.04-.43-.22-.81-.45-1.17-.13-.21-.26-.45-.55-.49.08-.13.07-.28.06-.42.5.29.79.75,1.06,1.23.08-.03.11-.1.1-.14-.11-.5.03-.95.26-1.38.07-.13.07-.21-.11-.24-.27-.06-.53-.16-.75-.34-.14-.11-.25-.08-.36.05-.04.05-.07.12-.15.13.09-.57.05-1.15.06-1.73.09.47.22.93.61,1.25.26.21.53.39.89.36.24-.03.28-.13.17-.35-.27-.49-.34-1-.09-1.53.1-.21.12-.39-.18-.52-.18-.08-.37-.05-.55-.15-.17-.09-.28-.3-.46-.29-.21,0-.19.31-.38.39-.07-.12-.13-.23-.13-.38-.01-.55-.04-1.1-.06-1.65.42-.43.58-.94.55-1.53-.03-.52-.27-.88-.65-.98,0-.26-.06-.52.04-.77.3-.58.27-1.16,0-1.74-.21-.44-.67-.5-1.01-.15-.24.24-.36.54-.52.82-.08.14-.05.23.06.33.22.22.37.49.47.78-.02.18-.11.33-.18.48-.02-.08-.04-.15-.07-.23-.22-.66-.63-1.17-1.27-1.45-.38-.17-.77.06-.81.46-.05.48.01.95.21,1.4.26.59,1.09,1.02,1.63.84,0,.13-.03.25-.1.37-.29.03-.24.29-.31.47,0,0-.02.02-.02.03,0,0,.02-.02.03-.02h.17c-.07.47-.17.93-.34,1.37-.26-.47-.53-.53-.99-.25-.27.17-.42.44-.66.63-.19.16-.2.31-.08.48.29.39.46.83.46,1.32,0,.21.09.23.26.16.25-.1.44-.27.63-.44-.06.26-.12.52-.18.77-.5,0-.79.35-1.11.67-.12.12-.17.24-.13.4-.17-.04-.33-.09-.48-.17-.09-.24-.28-.41-.49-.53-.23-.13-.47-.12-.66.12-.21,0-.07.22-.17.29-.2.27-.18.58-.17.89-.05.16-.03.37-.25.44-.15-.1-.16-.25-.18-.41-.11-.89.02-1.76.06-2.64,0-.14.11-.24.08-.38-.17-.77-.08-1.56-.06-2.34.01-.34-.11-.65-.15-.97-.05-.64-.09-1.28-.16-1.91-.09-.92-.38-1.81-.39-2.74,0-.34-.2-.68-.3-1.02-.17-.56-.29-1.12-.37-1.7-.04-.26-.27-.5-.45-.72-.15-.46-.31-.92-.45-1.38-.05-.15-.07-.31-.08-.46,0-.14-.04-.26-.14-.34-.72-.64-1.05-1.5-1.36-2.38-.06-.18-.15-.34-.29-.47-.65-.62-1.1-1.37-1.49-2.16-.2-.41-.55-.67-.79-1.02-.34-.49-.63-1.04-1.04-1.47-.33-.34-.63-.75-1.1-.95-.02,0-.05-.03-.05-.06-.19-.61-.6-1.03-1.12-1.39-.29-.19-.51-.49-.76-.73-.24-.23-.48-.46-.76-.72.17-.06.29-.1.41-.15.03,0,.05-.01.08-.02l-.08-.07c-.11-.06-.22-.13-.33-.19,0,0-.01-.01-.01-.01h.02Zm7.84,1.31s.02.02.03.02c0-.01-.02-.02-.02-.03,0-.26-.13-.49-.13-.76,0-.39-.01-.42-.4-.37-.18.02-.43-.22-.51.03-.05.16.02.39.02.58,0,.1.04.15.13.16.32.06.58.25.88.35Zm10.1,18.63c.15-.02.27-.12.41-.18.12-.06.19-.05.19.1,0,.58.02,1.17-.09,1.75-.02.13-.02.23.08.32.17.15.33.31.53.42.38.2.73,0,.8-.42.03-.23.01-.44,0-.67-.03-.59-.73-1.5-1.29-1.66-.32-.09-.56.04-.63.34,0,0-.02,0-.02,0,0,0,0,.01,0,.02,0,0,.02-.02.03-.02Zm-9.17-10.51s.1,0,.15,0c.51,0,.79-.35.66-.84-.1-.38-.31-.7-.62-.95-.42-.34-.88-.58-1.42-.6-.4-.02-.58.18-.59.58,0,.22.03.42.13.63.35.71.87,1.16,1.69,1.18Zm1.51,3.34c-.61,0-.93.4-.71.88.32.69.8,1.21,1.5,1.52.56.25,1.1-.07,1.07-.69-.05-.89-.86-1.7-1.86-1.71Zm-7.18-18.8c.22,0,.4-.04.49-.26.1-.26.17-.52.11-.81-.18-.84-.71-1.35-1.51-1.58-.57-.17-.94.2-.83.78.07.36.21.68.41.98.31.48.75.8,1.33.9Zm4.19,1.31c-.25,0-.49.22-.51.49-.02.18-.02.36,0,.54.11.8.45,1.45,1.22,1.81.36.17.61.05.77-.31.29-.67.13-1.28-.3-1.83-.3-.38-.68-.63-1.17-.7Zm3.91,4.23c0-.8-.59-1.63-1.25-1.85-.39-.13-.65.02-.77.41-.08.27-.06.54-.01.82.12.7.43,1.27,1.08,1.62.29.16.54.09.71-.2.16-.27.23-.57.25-.79Zm-10.22-8c-.06-1.11-.97-1.75-1.83-1.84-.39-.04-.69.27-.66.63.07.79.81,1.69,1.57,1.91.58.17.93-.1.92-.7Zm5.38,3.56c0-.86-.66-1.69-1.46-1.88-.51-.13-.84.11-.8.64.06.75.35,1.41,1,1.84.27.18.56.39.91.2.34-.18.29-.55.35-.8Zm-7.62.62c-.74-.04-.82.36-.73.75.22.94,1.39,1.74,2.35,1.35.44-.18.58-.46.35-.88-.42-.79-1.11-1.15-1.98-1.22Zm-4.25-5.13c.11,0,.22,0,.33,0,.42-.04.64-.35.54-.75-.27-1.1-1.63-1.58-2.5-1.19-.42.19-.53.51-.26.89.46.65,1.08,1.03,1.9,1.05Zm3.55,2.57c-.11,0-.22-.01-.33,0-.58.07-.8.45-.54.96.34.66,1.44,1.38,2.41.88.53-.27.61-.66.2-1.11-.47-.52-1.07-.72-1.75-.73Zm11.27,16.84c-.19-.02-.42,0-.62.07-.19.07-.39.16-.41.41-.03.37.46,1.13.81,1.23.43.12.83.3,1.23.47.34.14.73-.13.77-.49.07-.81-.9-1.74-1.78-1.68Zm-.38-3.59c0,.4.17.75.42,1.05.15.18.29.37.57.39.36.03.72.07,1.08.13.52.08.7-.14.57-.65-.23-.88-1.2-1.5-2.04-1.56-.43-.03-.59.14-.6.58,0,.02,0,.04,0,.06Zm10.38,20.58c-.03.15.05.34.17.51.13.18.27.23.47.05.26-.23.58-.38.92-.47.2-.06.33-.16.41-.35.18-.42.27-.85.2-1.32-.07-.5-.43-.76-.86-.52-.79.44-1.26,1.1-1.3,2.1Zm-18.63-28.93c-.22.03-.43.16-.67.18-.25.02-.35.18-.3.43.11.6.49,1,.99,1.3.15.09.3.21.5.17.32-.07.64-.11.97-.12.31-.01.47-.26.39-.56-.23-.85-1.14-1.31-1.87-1.41Zm19.1,26.39c.05-.49-.19-.88-.44-1.27-.17-.26-.38-.48-.66-.63-.21-.11-.37-.12-.44.16-.09.33-.25.64-.46.91-.08.1-.06.19-.05.3.06.4.29.71.51,1.02.2.28.53.42.87.46.35.04.57-.13.62-.47.02-.16.1-.3.06-.47Zm-7.16-9.99c-.1.39.21.69.37,1.04.03.07.09.09.16.11.43.14.83.35,1.24.55.31.15.42.11.55-.19.05-.13.08-.26.07-.41-.08-.8-.79-1.65-1.57-1.9-.61-.2-.86.15-.82.62,0,.04,0,.08,0,.17Zm-8.09-11.99c-.9,0-1.13.37-.81,1.02.03.06.06.13.09.19.27.46.59.8,1.2.72.31-.04.63-.04.94.04.14.04.32-.02.39-.16.09-.16.15-.36.06-.53-.43-.82-1.14-1.22-1.88-1.27Zm-7.29-11.52c.64,0,.83-.25.68-.88-.25-1.06-1.49-1.54-2.36-1.27-.2.06-.31.13-.15.37.16.24.25.52.25.82,0,.11.02.23.1.3.42.38.88.69,1.48.66Zm14.36,20.69c0,.46.13.93.49,1.16.48.31,1.07.42,1.63.59.12.04.21-.05.27-.15.12-.2.16-.45.09-.65-.28-.77-.79-1.34-1.6-1.6-.59-.18-.88.03-.88.64Zm0,10.72c0,.06,0,.12,0,.18.01.41.1.77.52.98.3.16.58.38.8.65.16.2.31.16.49.04.14-.1.19-.25.22-.41.22-.93-.38-1.85-1.01-2.28-.41-.29-.78-.14-.97.33-.06.16-.05.33-.06.5Zm-.29-2.99c0,.18-.02.31,0,.43.04.23.08.49.28.63.42.3.86.56,1.29.84.19.13.34.07.45-.1.08-.13.13-.26.13-.42.02-.93-.4-1.61-1.17-2.1-.37-.23-.75-.13-.94.23-.09.17-.02.35-.04.48Zm-3.29-16.18c.36,0,.51-.29.37-.64-.36-.9-1.31-1.31-2.12-1.32-.62,0-.84.38-.59.96.04.09.07.19.14.26.24.26.41.64.82.68.47.04.95-.04,1.39.06Zm-4.18-1.07c.13,0,.23,0,.33,0,.3,0,.45-.18.37-.48-.02-.08-.06-.15-.1-.22-.45-.84-1.47-1.14-2.18-1.08-.48.04-.71.29-.63.68.11.57.51.92,1,1.19.04.02.12,0,.17,0,.35-.04.71-.11,1.03-.09Zm1.55,3.2c.07.52.34.93.72,1.29.03.02.07.04.11.04.57-.03,1.12.11,1.68.13.15,0,.23-.07.24-.2.02-.17.02-.33-.05-.5-.33-.78-1.3-1.39-2.15-1.33-.33.02-.6.12-.55.57Zm7.59,4.87s0-.06,0-.09c-.23-.98-1.14-1.68-2.05-1.76-.32-.03-.49.18-.52.51-.04.46.16.84.39,1.22.12.2.28.27.48.28.38.02.74.12,1.09.26.39.17.61.02.61-.43Zm-5.19-11.35c.05-.27-.07-.47-.34-.64-.3-.19-.52-.49-.7-.8-.17-.29-.43-.44-.73-.34-.28.09-.37.33-.39.61-.02.29.04.58.13.85.23.65.61,1.15,1.3,1.37.25.08.43,0,.55-.22.14-.24.18-.5.18-.81Zm-2.52-2.11c.1-.39-.07-.62-.4-.8-.31-.16-.51-.46-.69-.76-.06-.1-.12-.2-.25-.24-.25-.07-.49-.12-.7.06-.23.2-.23.47-.19.74.13.84.63,1.4,1.35,1.8.39.22.72.08.86-.35.05-.16.03-.31.03-.46Zm5.5,19.7c-.01.38.09.72.24,1.06.05.11.12.17.23.21.42.15.81.37,1.17.64.24.18.41.14.55-.13.09-.17.12-.33.03-.53-.15-.31-.17-.68-.29-.99-.17-.42-.56-.7-.98-.9-.54-.25-.96.02-.93.62Zm-4.24-15.9c.02-.17-.06-.32-.16-.46-.51-.73-1.24-.98-2.09-.95-.59.02-.8.38-.57.93.14.33.45.46.66.71.17.2.36.22.61.19.4-.05.81-.14,1.21-.08.3.04.35-.09.34-.33Zm14.39,21.16c-.24.11-.61.15-.79.51-.08.17-.18.33-.29.48-.1.14-.23.29-.11.48.23.38.3.81.34,1.24.02.17.06.23.24.18.47-.15.86-.41,1.08-.87.25-.52.38-1.05.13-1.62-.1-.23-.22-.43-.6-.41Zm-12.88-18.16c-.54,0-.8.29-.66.75.1.31.27.59.47.85.11.14.25.19.44.2.54.03,1.08.04,1.6.21.11.04.18.02.22-.11.05-.15.05-.28,0-.43-.26-.84-1.14-1.47-2.08-1.47Zm-7.44-8.6c-.22-.04-.48.04-.72.24-.24.2-.23.38.04.53.43.23.79.54,1,.99.05.12.13.21.26.22.43.03.85.05,1.24-.21.33-.22.4-.48.18-.81-.45-.69-1.12-.94-2-.95Zm12.8,22.35c-.01.5.17.88.44.96.49.14.9.41,1.32.67.32.19.4.17.51-.19.03-.08.05-.18.05-.26-.06-.94-.76-1.79-1.59-2.04-.31-.09-.52,0-.62.32-.06.21-.09.43-.11.54Zm.25,8.99c-.05-.81-.35-1.49-1.08-1.92-.31-.18-.56-.07-.74.24-.22.39-.15.81-.16,1.22,0,.08.07.12.12.16.46.33.87.72,1.25,1.13.18.19.3.14.43-.03.17-.24.18-.52.18-.8ZM47.59,5.15c.07.82.37,1.43.94,1.89.08.06.15.11.27.07.29-.09.59-.17.89-.24.22-.05.23-.15.14-.33-.11-.23-.23-.48-.25-.73-.08-.73-.65-.95-1.2-1.15-.38-.14-.78.2-.78.49Zm7.7,5.93c-.25-.02-.48.05-.7.13-.18.07-.31.2-.33.42-.02.22.12.29.27.37.31.17.59.38.77.68.11.19.26.23.45.19.4-.1.82-.13,1.23-.16.2-.01.26-.11.27-.28.01-.17-.06-.31-.15-.44-.44-.64-1.09-.85-1.81-.91Zm8.47,4.18c-.8,0-1.04.36-.77.96.12.27.28.5.49.7.17.17.26.15.38-.05.36-.55.37-.54.68.05.05.1.08.23.24.24.19.01.37.05.56.06.29.02.44-.15.37-.44-.02-.1-.06-.19-.1-.28-.41-.81-1.12-1.16-1.85-1.25Zm4,9.47c.04-.29-.12-.56-.25-.84-.14-.3-.34-.58-.69-.55-.34.02-.56.25-.7.58-.1.23-.11.46-.17.68-.05.21,0,.34.17.45.21.14.38.31.56.49.15.15.15.37.28.54.16.2.22.12.35,0,.38-.36.48-.81.45-1.34Zm1.07,2.8c-.02-.36-.17-.81-.3-1.03-.26-.43-.67-.47-1.04-.14-.26.24-.29.57-.43.87-.11.23-.07.4.13.57.34.27.58.62.73,1.03.1.27.25.29.44.06.36-.42.45-.93.46-1.36Zm.85,2.91c-.02-.36-.08-.71-.27-1.02-.29-.48-.78-.48-1.1-.02-.19.28-.3.6-.47.89-.06.11-.05.22.06.31.41.32.68.74.79,1.25.03.16.09.19.23.09.52-.37.72-.89.75-1.49Zm-3.8-7.03c.7-.51.84-1.97-.04-2.71-.32-.27-.62-.26-.86.07-.27.37-.33.8-.38,1.23-.01.11.03.19.13.24.49.27.86.66,1.15,1.16Zm4.91-1.11c-.06-.34-.2-.78-.54-1.12-.3-.3-.66-.27-.92.07-.25.34-.33.74-.38,1.14-.01.08-.01.16.07.21.44.3.81.66,1.02,1.16.06.16.15.14.26.02.36-.39.52-.85.49-1.49Zm-1.37-2.22c.05-.18-.01-.37-.05-.54-.11-.5-.29-.96-.79-1.22-.23-.12-.41-.08-.6.09-.45.4-.36.95-.43,1.46,0,.06.06.1.12.12.49.19.85.54,1.11.99.11.18.19.13.28,0,.19-.26.37-.53.36-.89Zm3.41,7.77c.08-.39-.11-.71-.3-1.02-.21-.36-.6-.4-.91-.12-.35.31-.47.75-.62,1.17-.04.12.04.18.12.24.38.3.64.68.79,1.13.08.23.16.21.31.08.45-.39.67-.87.61-1.48Zm-6.8-12.83c.04-.72-.29-1.24-.8-1.66-.3-.26-.68-.19-.88.15-.18.32-.21.67-.22,1.03,0,.34.15.54.5.63.37.1.66.35.91.65.14.17.22.13.32-.04.13-.24.2-.5.17-.75Zm8.06,18.77c.02-.28-.01-.57-.14-.85-.2-.43-.6-.52-.96-.23-.3.24-.47.55-.65.87-.08.15-.07.23.04.36.3.34.5.73.58,1.18.02.1-.06.25.07.29.11.03.26,0,.35-.1.41-.42.76-.86.71-1.52Zm-1.47-1.32c1.08-.44,1.24-1.92.63-2.73-.16-.22-.4-.25-.64-.12-.47.25-.65.72-.84,1.18-.03.08.02.15.08.21.43.39.67.89.77,1.46Zm-5.9-16.79c-.16.03-.3.09-.41.22-.15.18-.25.4-.27.62-.02.4-.23.88.39,1.09.35.12.57.45.83.7.18.18.3.14.37-.1.01-.05.03-.09.05-.14.4-.77,0-1.65-.46-2.12-.14-.14-.31-.24-.52-.28Zm-.05,4.35c-.13.03-.43-.1-.27.26.21.46.31.95.4,1.44.02.11-.03.23.13.29.18.07.22-.07.32-.14.07-.05.19-.19.23-.04.08.31.32.3.54.38.19.07.38.15.56,0,.19-.16.17-.4.12-.61-.23-.86-1.16-1.57-2.02-1.59Zm4.52,6.67c.24-.41.67-.62.73-1.06.08-.61,0-1.18-.47-1.65-.29-.29-.57-.27-.85.01-.25.26-.35.57-.45.9-.06.21-.06.36.13.48.45.3.72.72.91,1.32Zm-6.65-5.88c.14-.24.25-.46.39-.67.08-.13.16-.3.13-.48-.06-.52-.23-.98-.57-1.38-.34-.4-.78-.4-1.08.03-.11.15-.16.36-.18.55-.05.38-.07.75.37.98.39.2.65.57.94.96Zm4.64,4.29c-.24-.02-.29.02-.25.2.11.46.15.93.21,1.4.03.25.03.54.36.63.22.06.42.17.63.24.18.06.43.19.61-.02.16-.19.2-.41.14-.67-.09-.37-.22-.71-.46-.99-.35-.4-.79-.69-1.24-.79Zm2.46,18.48c-.02.22.02.29.26.19.47-.19.95-.36,1.46-.43.13-.02.3,0,.37-.19.17-.43.2-.87.03-1.3-.1-.27-.43-.34-.71-.27-.29.07-.47.27-.67.45-.44.41-.7.92-.75,1.53Zm-3.53-21c-.39,0-.36,0-.32.26.06.43.27.82.28,1.27,0,.2.06.42.34.44.37.03.71.14,1.05.28.12.05.26.17.38.03.11-.12.14-.28.1-.45-.05-.24-.11-.47-.24-.69-.4-.64-.97-1.02-1.59-1.14Zm1.99,7.16c-.08.13-.05.25.09.29.34.08.63.28.93.45.24.13.42.07.52-.18.08-.19.1-.43.06-.61-.18-.74-.59-1.34-1.31-1.67-.55-.25-.51-.16-.49.29,0,.08.01.16.03.23.1.39.04.8.17,1.19Zm-14.77-21.08c.04-.33-.06-.62-.43-.81-.25-.13-.45-.34-.59-.58-.19-.34-.49-.4-.83-.39-.31,0-.52.22-.53.53-.02.3.1.56.21.83.07.18.18.25.38.26.53.01,1.01.18,1.46.46.09.06.16.19.27.14.12-.06.06-.22.07-.33,0-.02,0-.04,0-.11Zm10.12,10.65c.09-.1.19-.19.26-.29.14-.19.2-.13.26.05.08.25.19.5.49.55.23.03.48.22.69-.01.2-.21.13-.46.04-.7-.33-.82-1.24-1.39-2.1-1.36-.19,0-.23.07-.15.23.12.27.28.54.29.84,0,.26.08.47.22.69Zm6.84,13.5c.01-.76-.34-1.26-.79-1.72-.19-.2-.42-.34-.69-.41-.19-.05-.23,0-.2.19.07.48.16.95.17,1.43,0,.33.05.57.4.69.16.06.31.18.45.28.36.24.51.19.63-.25.03-.09.03-.19.03-.21ZM52.48,7.03c0-.46-.09-.64-.44-.87-.21-.14-.39-.31-.54-.51-.26-.36-.64-.42-1.03-.38-.4.04-.57.29-.5.69.04.25.13.5.28.71.05.07.09.11.19.1.65-.09,1.24.07,1.79.4.26.16.25.03.24-.13Zm9.71,9.21c-.22-.29-.45-.58-.67-.87-.19-.26-.18-.29.13-.34.3-.05.61-.08.91-.12.08-.01.2.05.23-.07.03-.12-.07-.17-.16-.22-.38-.22-.64-.54-.8-.94-.1-.25-.28-.34-.53-.33-.26.01-.4.16-.46.39-.18.67,0,1.28.36,1.84.22.34.51.62.98.64Zm5.69,19.98c.02-.14-.06-.18-.13-.21-.43-.15-.77-.4-1-.8-.05-.08-.14-.19-.26-.15-.2.07-.33.61-.21.79.2.31.32.66.46,1.01.06.16-.09.42.13.47.17.04.33-.15.48-.26.3-.22.46-.54.55-.85Zm-6.46-19.91c.11.29.09.51.07.72-.01.14.01.2.15.26.52.2.96.52,1.29.97.15.2.19.01.23-.07.18-.32.16-.65-.06-.94-.19-.25-.38-.57-.68-.63-.32-.06-.64-.11-1-.3Zm-3.55-4.5c-.09.05-.22.05-.35.06-.06,0-.09.05-.07.1.1.23.04.51.15.72.08.16.38.12.57.2.14.06.19.02.13-.13-.11-.26-.19-.52-.21-.8,0-.11-.07-.16-.21-.15Zm6.77,17.62c.17.12.3.22.44.31.04.03.09.1.15.04.04-.04.05-.13,0-.16-.12-.11-.06-.28-.12-.42-.15.08-.29.14-.47.23Zm-.51-2.83s.03-.03.04-.04c-.06-.1-.11-.21-.17-.3-.09-.11-.2-.02-.25.03-.07.07.03.11.09.14.1.06.2.11.3.17Zm-.34-11.92c-.13.18-.33.16-.58.2q.6.05.58-.2Z"/>
      <path class="cls-3" d="m74.52,40.54s.01-.09.02-.13c.11-.02.1-.1.1-.18,0-.04-.01-.09,0-.12.31-.55.21-1.19.35-1.78.03-.11.05-.23.06-.35,0-.17.07-.36-.24-.34-.14,0-.21-.14-.14-.3.21-.42.21-.88.26-1.34.05-.39.05-.77.02-1.16-.01-.13.14-.29.07-.48-.23.04-.4.2-.62.26-.02-.02-.03-.04-.05-.06.21-.7.29-1.42.26-2.14-.01-.34-.06-.68-.05-1.03,0-.15-.06-.17-.18-.11-.14.07-.25.2-.41.22-.02-.02-.04-.04-.06-.06.3-1.1.09-2.18-.07-3.29-.21.06-.36.21-.52.33-.18.15-.16.02-.17-.09.02-.02.03-.04.05-.06.19-1.12-.1-2.19-.32-3.31-.17.13-.33.25-.52.39.03-.59-.1-1.13-.18-1.68-.02-.02-.03-.04-.05-.06-.02-.37-.19-.71-.25-1.08-.01-.02-.03-.04-.04-.06-.01-.07-.03-.13-.04-.2,0-.04.05-.08-.01-.11,0,.02-.02.04-.03.07-.29.04-.36.37-.63.46.09-1.02-.26-1.93-.57-2.86-.01-.02-.03-.04-.04-.05-.05-.15-.09-.31-.15-.48-.21.08-.28.29-.45.41-.02-.07-.08-.1-.15-.1-.07-.56-.23-1.09-.41-1.62-.01-.02-.03-.03-.04-.05l-.08-.25s-.03-.03-.05-.05c-.04-.36-.31-.64-.39-1-.03-.15-.13-.09-.19-.02-.09.1-.18.21-.26.32-.1.13-.17.09-.19-.04-.09-.73-.42-1.36-.73-2.01-.12-.25-.34-.45-.38-.75,0-.06-.09-.13-.18-.14-.1,0-.13.06-.16.14-.03.07-.08.14-.12.2-.04.06-.1.16-.18.12-.05-.03-.09-.13-.1-.2-.08-.35-.18-.68-.35-.99-.29-.56-.64-1.08-.98-1.6-.15-.23-.21-.23-.33.02-.15.32-.3.64-.47,1-.39-1.17-1.26-1.92-2.06-2.73-.05-.05-.1-.13-.16-.03-.15.23-.21.08-.29-.06-.35-.6-.8-1.1-1.34-1.54-.2-.16-.38-.33-.56-.5-.3-.27-.29-.29-.45.07-.03,0-.06,0-.09,0-.34-.6-.81-1.07-1.34-1.5-.32-.26-.67-.49-1-.73-.32-.23-.32-.22-.38.2-.66-.97-1.66-1.48-2.6-2.06-.1-.06-.23-.2-.28.07-.02.1-.11.09-.18.02-.32-.36-.73-.61-1.11-.89.02-.02.04-.05.07-.07.43.05.8.27,1.2.42,1.24.44,2.41,1.07,3.58,1.67.79.4,1.53.88,2.28,1.34,1.43.88,2.75,1.88,4.03,2.96.88.74,1.67,1.59,2.49,2.4.84.83,1.61,1.71,2.32,2.65.96,1.25,1.87,2.54,2.65,3.92.02.03.05.06.07.09,0,.02.02.03.04.04.03.19.16.34.25.5.81,1.47,1.5,2.98,2.09,4.55.01.03,0,.06,0,.09,0,.06.03.11.1.12.13.6.38,1.17.55,1.76.2.69.37,1.38.56,2.07.21.75.23,1.52.46,2.26,0,.02,0,.04,0,.07.1.51.09,1.03.19,1.53.08.43.07.85.11,1.27.08.93.12,1.86.12,2.79,0,.51-.06,1.01-.06,1.51,0,.38-.18.75-.01,1.13-.22.94-.25,1.91-.42,2.85-.13.74-.33,1.47-.48,2.22-.09.45-.26.88-.36,1.32-.17.72-.41,1.42-.68,2.11-.02.05-.02.11-.03.17-.05.05-.12.09-.11.18-.07.31-.18.61-.31.9-.11.07-.24.12-.15.29l-.03.12s-.06.01-.05.06c-.04.12-.09.24-.13.36-.04,0-.06.02-.05.06-.33.91-.79,1.76-1.24,2.6-1.4,2.59-3.12,4.95-5.14,7.1-2.92,3.11-6.31,5.59-10.12,7.5-.59.3-1.2.57-1.79.85-.35.17-.73.33-1.12.41-.07,0-.11.03-.12.11-.86.28-1.73.55-2.58.88-.09.03-.19.02-.29.03-.08,0-.17,0-.18.11-.62.15-1.25.27-1.87.44-.69.19-1.39.3-2.09.4-.25.04-.49.13-.75.12-.02.02-.04.03-.06.05-.85.08-1.7.18-2.55.24-1.04.07-2.07.05-3.11.07-.71.01-1.43-.02-2.14-.08-.77-.07-1.54-.11-2.29-.28-.55-.12-1.11-.16-1.67-.25-.51-.08-1.01-.2-1.5-.32-.44-.11-.9-.18-1.32-.34-.39-.16-.85-.14-1.2-.44-.09-.07-.22.05-.31.01-.38-.14-.78-.21-1.11-.45-.04-.08-.11-.06-.18-.06-.15,0-.29-.04-.42-.13,0-.03-.01-.06-.05-.04-.2.01-.36-.09-.53-.16-.36-.16-.75-.29-1.1-.46-.37-.18-.77-.3-1.12-.53-.02,0-.04,0-.06,0-.4-.15-.77-.36-1.14-.56-.02-.01-.03-.03-.05-.04-.27-.08-.42-.38-.72-.42-.01-.03-.02-.06-.06-.04-.16.01-.19-.22-.36-.2,0-.03-.02-.06-.06-.04-.46-.21-.88-.49-1.31-.76-.08-.05-.13-.12-.14-.21-.07-.11-.11-.05-.16.02-.38-.27-.77-.53-1.15-.8,0-.04-.01-.06-.05-.06-.53-.3-1-.68-1.45-1.08.01-.04,0-.05-.04-.04-.28-.22-.59-.42-.82-.67-.2-.21-.48-.31-.64-.59-.1-.16-.35-.27-.52-.41-.52-.43-.96-.94-1.45-1.4-.23-.22-.47-.44-.65-.71-.36-.53-.86-.94-1.23-1.47-.3-.44-.69-.82-1.01-1.24-.44-.59-.84-1.2-1.27-1.79-.05-.07-.05-.14-.08-.22,0-.05.01-.1-.04-.12-.4-.34-.58-.82-.83-1.25-.46-.77-.9-1.56-1.26-2.39-.02-.02-.03-.04-.05-.06-.16-.42-.33-.84-.55-1.24-.06-.1-.08-.21-.12-.32-.02-.02-.03-.04-.05-.05-.27-.74-.57-1.47-.81-2.22-.2-.63-.38-1.28-.56-1.92-.26-.95-.41-1.93-.66-2.88-.01-.05.02-.11.03-.17.03-.1,0-.15-.11-.15.07-.54-.16-1.05-.18-1.59-.01-.39-.09-.77-.11-1.16-.07-1.18-.07-2.35-.06-3.53.01-.88.05-1.76.2-2.64.06-.39.09-.8.1-1.2,0-.19.14-.38.02-.57.01-.01.03-.03.04-.04.13-.1.04-.21.01-.32.02-.01.03-.03.05-.04.09-.2.18-.39.07-.61.06-.02.17.03.14-.1-.03-.34.07-.67.17-.98.2-.65.29-1.33.52-1.97.26-.75.44-1.53.76-2.26.19-.45.34-.92.51-1.37.02-.02.03-.04.05-.06.18-.41.36-.83.55-1.24.07-.15.14-.3.28-.4.16.07.2.23.28.37.18.33.32.67.45,1.03-.04.08-.08.17-.11.25h0s-.06.01-.05.05c-.16.42-.33.84-.49,1.26-.04,0-.06.01-.05.06-.02.08-.05.16-.07.24-.04,0-.06.01-.05.06-.07.21-.12.43-.2.64-.23.53-.35,1.09-.52,1.63-.04.01-.11-.02-.1.06,0,.05.03.09.09.09-.05.06-.12.11-.11.2-.11.07-.16.14-.01.22-.19.38-.25.8-.33,1.22-.07.01-.07.06-.06.12-.02.16-.05.32-.07.48-.03,0-.06.02-.05.06-.09.55-.18,1.11-.28,1.66-.09.54-.16,1.08-.21,1.62-.07.02-.06.07-.05.12-.17,2.21-.16,4.42,0,6.63,0,.07-.04.14.06.18,0,.09-.02.18,0,.27.14.78.25,1.57.4,2.35.21,1.09.47,2.17.79,3.23.45,1.49,1.01,2.94,1.68,4.34.44.91.84,1.84,1.42,2.67,0,.02.02.03.04.04.03.15.11.27.19.39.37.59.74,1.17,1.1,1.76-.02.09.04.09.1.09.09.13.13.3.28.38-.06.09-.02.12.07.13.19.26.37.52.56.77-.01.08.03.11.1.1.08.18.27.29.31.5.03.08.08.11.17.1.05.06.09.13.14.19-.02.13.02.19.16.17.06.08.13.17.19.25-.02.1.04.1.11.09.47.62,1.04,1.14,1.56,1.72.27.3.59.55.88.83.06.1.14.18.24.24l.73.65c-.03.22.22.13.29.25.02.02.04.04.06.06,0,.12.07.16.18.16.18.15.34.32.55.44,0,.08.04.1.11.1.35.28.75.49,1.08.8,0,.05.01.05.05.04.04.05.08.09.12.14.03.06.08.06.13.02.05.14.2.13.29.22,0,.03.02.06.06.04.34.22.68.45,1.02.67,0,.05.02.05.05.04.04.03.08.05.12.08.01.03.02.06.06.03.31.12.54.36.84.5,0,.04,0,.06.05.04.08.04.12.15.24.14.01.03.02.06.06.03.02,0,.04.02.07.02,0,.04.01.06.06.05.1.1.22.16.35.19.01.03.02.06.06.04.02,0,.04.01.07.02,0,.04,0,.06.05.04.36.19.71.37,1.07.56.01.03.02.06.06.04.02,0,.04.01.07.02,0,.04.01.06.05.05.34.14.69.25.97.49.02.09.08.13.17.11.12.02.24.05.36.07,0,.04.01.06.06.05.1.05.19.14.32.08,0,.06.02.11.1.1.07.05.15.07.24.07,0,.04.02.06.06.05.04,0,.08,0,.13,0,.05.05.08.13.17.11.06.03.13.08.2.02,0,.07.02.11.1.09.1.02.19.1.31.07.05.05.08.12.17.11.48.18,1,.25,1.45.5.28.15.59.19.88.27.37.11.76.15,1.13.26,0,.04.02.06.06.05.06,0,.12,0,.18.01,0,.04.02.06.06.05.21.11.45.07.67.1,0,.08.04.09.11.08l1.02.19c.04.08.11.05.18.05.23.03.46.06.68.11.52.11,1.05.17,1.59.19.03.04.02.14.12.07.16,0,.32,0,.48,0,.02.07.07.06.12.05.33.03.67.05,1,.06,2.2.05,4.39.1,6.58-.22.9-.13,1.81-.25,2.7-.44,1.43-.31,2.85-.69,4.24-1.18,1.17-.41,2.31-.88,3.39-1.49.05,0,.09-.02.12-.06.02,0,.04,0,.06-.01,1.09-.6,2.18-1.21,3.24-1.85.85-.51,1.7-1.03,2.55-1.55.4-.21.7-.54,1.04-.83.71-.58,1.4-1.19,2.06-1.83.87-.84,1.73-1.69,2.55-2.58.77-.82,1.39-1.75,2.16-2.56.4-.42.76-.88,1.09-1.37.19-.29.45-.55.6-.85.17-.34.35-.69.53-1.02.44-.8.78-1.62,1.09-2.47.24-.66.32-1.39.7-2,.34-.24.44-.62.6-.97.18-.4.24-.84.51-1.2.47-.63.65-1.37.8-2.12.08-.38.15-.76.23-1.16-.09,0-.17.01-.26.02-.03-.02-.06-.04-.09-.06Z"/>
      <path class="cls-3" d="m50.59,3.05c-.41-.44-.93-.7-1.48-.9-.09-.03-.2-.01-.24-.13.09-.16.2-.04.29-.02.49.12.98.25,1.46.38.03.22-.02.44.06.65-.03,0-.06.01-.09.02Z"/>
      <path class="cls-3" d="m48.82,2.02c-.31,0-.6-.14-.91-.18-.03-.11.04-.12.11-.11.26.05.51.12.77.18.06.02.06.06.03.11Z"/>
      <path class="cls-5" d="m72.94,48.18c-.09-.17.05-.22.15-.29,0,.12-.02.24-.15.29Z"/>
      <path class="cls-8" d="m52.25,3.03c-.11-.04-.22-.08-.3-.18.12-.03.22.04.32.08,0,.03,0,.06-.01.1Z"/>
      <path class="cls-5" d="m27.94,67.47c.07,0,.14-.02.18.06-.09.08-.15.06-.18-.06Z"/>
      <path class="cls-8" d="m5.3,40.65c.1,0,.14.05.11.15-.11,0-.09-.09-.11-.15Z"/>
      <path class="cls-15" d="m52.25,3.03s0-.06.01-.1c.06.02.13.02.17.09-.02.02-.04.05-.07.07-.04-.02-.08-.04-.11-.07Z"/>
      <path class="cls-8" d="m5.58,28.84c.03.14-.08.09-.14.1.02-.07.07-.1.14-.1Z"/>
      <path class="cls-8" d="m30.33,2.22c-.02.11-.1.09-.18.09.05-.04.08-.14.18-.09Z"/>
      <path class="cls-5" d="m73.4,46.98c-.02-.09.06-.12.11-.18,0,.08,0,.17-.11.18Z"/>
      <path class="cls-8" d="m17.61,8.78c0,.08,0,.16-.12.16,0-.08.03-.14.12-.16Z"/>
      <path class="cls-15" d="m50.1,68.35c.01-.12.1-.11.18-.11-.05.06-.09.13-.18.11Z"/>
      <path class="cls-5" d="m20.66,63.9c.04-.07.09-.13.16-.02-.05.02-.09.09-.16.02Z"/>
      <path class="cls-15" d="m73.54,23.75c-.07,0-.1-.05-.1-.12.04.03.14.01.1.12Z"/>
      <path class="cls-8" d="m22.21,5.67c-.01.14-.11.03-.16.05.03-.1.1-.04.16-.05Z"/>
      <path class="cls-15" d="m53.14,67.33c0-.07.05-.11.12-.11-.02.05-.02.13-.12.11Z"/>
      <path class="cls-5" d="m10.27,53.31c.06.03.05.07.04.12-.11,0-.06-.07-.04-.12Z"/>
      <path class="cls-8" d="m20.29,6.88s-.04.02-.06.04c.01-.03.02-.06.06-.04Z"/>
      <path class="cls-8" d="m21.61,6.04s-.04.02-.06.04c.01-.03.02-.06.06-.04Z"/>
      <path class="cls-8" d="m21.31,6.22s-.04.02-.06.04c.01-.03.02-.06.06-.04Z"/>
      <path class="cls-15" d="m75.12,29.91s0-.04,0-.07c.01,0,.03.01.04.02-.01.02-.03.03-.04.05Z"/>
      <path class="cls-8" d="m5.37,29.56s-.03.03-.05.04c0-.04,0-.05.05-.04Z"/>
      <path class="cls-8" d="m5.31,29.92s-.03.03-.04.04c0-.04,0-.05.04-.04Z"/>
      <path class="cls-8" d="m8.12,49.61s.03.04.05.06c-.04,0-.06-.02-.05-.06Z"/>
      <path class="cls-8" d="m20.11,7s-.02.03-.04.04c0-.04,0-.06.04-.04Z"/>
      <path class="cls-8" d="m51.95,2.86s-.03,0-.04,0c.01,0,.03,0,.04,0Z"/>
      <path class="cls-5" d="m17.96,61.93s.05,0,.04.04c-.02,0-.03-.02-.04-.04Z"/>
      <path class="cls-5" d="m72.68,48.77s.01-.06.05-.06c-.02.02-.03.04-.05.06Z"/>
      <path class="cls-5" d="m72.86,48.35s.01-.05.05-.06c-.02.02-.03.04-.05.06Z"/>
      <path class="cls-8" d="m7.41,48s.03.04.05.05c-.04,0-.06-.01-.05-.05Z"/>
      <path class="cls-8" d="m19.52,7.41l-.05.04s0-.06.05-.04Z"/>
      <path class="cls-5" d="m19.46,63.05s.06.02.05.06l-.05-.06Z"/>
      <path class="cls-8" d="m17.49,8.95s-.03.04-.05.05c0-.04.01-.05.05-.05Z"/>
      <path class="cls-5" d="m22.27,64.86s.05,0,.06.04c-.02-.01-.04-.03-.06-.04Z"/>
      <path class="cls-5" d="m22.69,65.1s.05,0,.06.04c-.02-.01-.04-.02-.06-.04Z"/>
      <path class="cls-8" d="m23.47,65.55s.03.03.05.04c-.04.02-.05,0-.05-.04Z"/>
      <path class="cls-8" d="m7.58,22.2s-.03.04-.05.06c-.01-.04.01-.05.05-.06Z"/>
      <path class="cls-8" d="m24.66,66.15s.04,0,.06,0c-.02.01-.03.03-.05.04,0-.01-.01-.03-.02-.04Z"/>
      <path class="cls-5" d="m27.46,67.3s.05,0,.05.04c-.02-.01-.04-.03-.05-.04Z"/>
      <path class="cls-15" d="m71.1,18.5s-.03-.02-.04-.04c.04-.01.05,0,.04.04Z"/>
      <path class="cls-15" d="m45.32,69.36s.04-.03.06-.05c0,.03-.02.06-.06.05Z"/>
      <path class="cls-4" d="m63.76,36.01c.04.32.16.63.15.97-.02.78-.11,1.56.06,2.34.03.15-.07.25-.08.38-.04.88-.18,1.76-.06,2.64.02.16.03.31.18.41-.01.18-.02.35-.09.52-.5,1.21-1.07,2.39-1.69,3.54-.08.15-.13.34-.31.42-.34-.1-.69-.19-1.03-.29-8.11-2.41-16.22-4.83-24.33-7.24-4.02-1.2-8.03-2.4-12.05-3.58-1.15-.34-2.29-.72-3.46-1-.47-.11-.93-.29-1.4-.45-.55-.19-1.13-.29-1.68-.47-.6-.2-1.2-.39-1.81-.56-.44-.82-.8-1.67-1.19-2.51-.75-1.61-1.49-3.23-2.24-4.84-.78-1.69-1.58-3.38-2.35-5.08-.31-.68-.67-1.34-.91-2.05.1-.03.19.02.29.05.78.26,1.56.54,2.35.76,1.05.28,2.09.64,3.13.96.81.25,1.62.48,2.42.76.7.25,1.43.43,2.14.65.48.15.95.32,1.44.47.73.23,1.46.44,2.19.67.47.15.94.3,1.41.45.74.23,1.48.46,2.23.68.37.11.72.25,1.09.35.63.17,1.26.38,1.89.58,1.08.34,2.14.72,3.23,1.03,1.06.3,2.1.64,3.16.97,4.04,1.24,8.06,2.51,12.1,3.76,4.14,1.29,8.29,2.58,12.43,3.87.84.26,1.67.53,2.51.79.09.03.19.05.29.07Zm-27.94,2.6c.83.31,1.68.46,2.55.31,1.14-.2,2.15-.65,3-1.49.65-.65,1.07-1.41,1.29-2.27.23-.9.2-1.81-.09-2.72-.66-2.07-2.47-3.25-4.36-3.42-.83-.08-1.66.02-2.44.35-1.33.56-2.25,1.52-2.81,2.83-.32.74-.35,1.53-.29,2.31.02.22-.03.48.15.67-.08,0-.09.07-.08.12,0,.02.06.03.1.04.06.39.26.72.44,1.05.42.76,1.02,1.36,1.77,1.81,0,.03.01.06.06.04.21.14.43.24.67.32,0,.04.01.06.05.05Z"/>
      <path class="cls-4" d="m9.49,19.16s-.03-.04-.05-.05c.02.02.03.04.05.05Z"/>
      <path class="cls-11" d="m13.09,55.22c-.19-.26-.37-.52-.56-.77,0-.06-.01-.1-.07-.13-.15-.08-.19-.25-.28-.38-.01-.06-.04-.09-.1-.09-.37-.59-.73-1.17-1.1-1.76-.08-.12-.17-.24-.19-.39,0-.04,0-.05-.04-.04-.58-.83-.99-1.76-1.42-2.67-.67-1.4-1.23-2.85-1.68-4.34-.32-1.06-.58-2.14-.79-3.23-.15-.78-.26-1.57-.4-2.35-.02-.09,0-.18,0-.27.08-.09.06-.15-.06-.18-.16-2.21-.17-4.42,0-6.63.08-.01.14-.03.05-.12.05-.54.11-1.09.21-1.62.1-.55.19-1.11.28-1.66.02-.02.03-.04.05-.06.02-.16.05-.32.07-.48.07-.01.14-.03.06-.12.08-.42.14-.83.33-1.22.01-.07.13-.14.01-.22,0-.09.06-.14.11-.2,0-.05,0-.1.01-.16.17-.55.3-1.1.52-1.63.09-.2.14-.42.2-.64.02-.02.03-.04.05-.06.02-.08.05-.16.07-.24.02-.02.03-.04.05-.06.16-.42.33-.84.49-1.26.02-.02.03-.03.05-.05h0c.08,0,.17,0,.25-.01.71,1.53,1.42,3.05,2.13,4.58,1.05,2.27,2.1,4.53,3.15,6.8.08.18.14.37.19.56-.16.6-.08,1.21-.09,1.81,0,.49.03,1,.08,1.5.05.58.11,1.17.21,1.74.12.67.29,1.34.43,2,.34,1.55.92,3,1.56,4.43.49,1.09,1.11,2.12,1.75,3.13.78,1.24,1.74,2.33,2.71,3.42.46.52.98.98,1.5,1.45.22.2.41.43.69.56.01.01.03.03.04.04.76.67,1.57,1.26,2.41,1.8.61.4,1.23.78,1.89,1.11,2.77,1.52,5.75,2.42,8.87,2.87.96.14,1.93.22,2.9.21.99-.01,1.99,0,2.98-.08.77-.06,1.53-.25,2.3-.33.66-.07,1.31-.29,1.96-.45,1.33-.34,2.61-.84,3.82-1.48.21-.11.42-.24.65-.3.02-.01.04-.03.06-.04.43-.2.86-.4,1.26-.66.39-.2.78-.41,1.17-.61.43-.22.82-.52,1.27-.68.06.07.11.14.17.2,1.37,1.3,2.68,2.65,3.95,4.04.54.58,1.13,1.11,1.61,1.74-.85.52-1.7,1.04-2.55,1.55-1.07.64-2.15,1.25-3.24,1.85-.02,0-.04,0-.06.01-.1-.09-.11-.01-.12.06-1.08.61-2.22,1.08-3.39,1.49-1.39.48-2.81.87-4.24,1.18-.89.19-1.8.31-2.7.44-2.19.32-4.38.26-6.58.22-.33,0-.67-.02-1-.06-.01-.07-.03-.14-.12-.05-.16,0-.32,0-.48,0-.01-.07-.01-.15-.12-.07-.54-.02-1.07-.08-1.59-.19-.23-.05-.45-.08-.68-.11-.03-.12-.09-.14-.18-.05l-1.02-.19c0-.06-.01-.13-.11-.08-.22-.03-.46.01-.67-.1-.02-.02-.04-.03-.06-.05-.06,0-.12,0-.18-.01-.02-.02-.04-.03-.06-.05-.37-.11-.77-.15-1.13-.26-.29-.09-.6-.12-.88-.27-.45-.25-.97-.32-1.45-.5,0-.11-.09-.11-.17-.11-.11.03-.2-.05-.31-.07,0-.06-.02-.11-.1-.09-.07.05-.14,0-.2-.02,0-.11-.09-.11-.17-.11-.04,0-.08,0-.13,0-.02-.02-.04-.03-.06-.05-.09,0-.17-.02-.24-.07,0-.06-.02-.11-.1-.1-.13.06-.22-.04-.32-.08-.02-.02-.04-.03-.06-.05-.12-.02-.24-.05-.36-.07.03-.16-.08-.13-.17-.11-.28-.24-.63-.35-.97-.49-.02-.02-.04-.03-.05-.05-.02,0-.04-.01-.07-.02-.02-.01-.04-.02-.06-.04-.36-.19-.71-.37-1.07-.56-.02-.01-.04-.03-.05-.04-.02,0-.04-.01-.07-.02-.02-.01-.04-.02-.06-.04-.14-.03-.26-.09-.35-.19-.02-.02-.04-.03-.06-.05-.02,0-.04-.02-.07-.02-.02-.01-.04-.02-.06-.03-.11.01-.15-.1-.24-.14-.02-.01-.04-.03-.05-.04-.3-.14-.53-.38-.84-.5-.02-.01-.04-.02-.06-.03-.04-.03-.08-.05-.12-.08-.02-.01-.04-.03-.05-.04-.34-.22-.68-.45-1.02-.67-.02-.01-.04-.03-.06-.04-.09-.08-.24-.08-.29-.22-.03-.07-.07-.11-.13-.02-.04-.05-.08-.09-.12-.14-.02-.01-.03-.03-.05-.04-.33-.31-.73-.52-1.08-.8,0-.07-.05-.09-.11-.1-.21-.12-.37-.28-.55-.44-.01-.11-.08-.15-.18-.16-.02-.02-.04-.04-.06-.06.02-.22-.17-.19-.29-.25l-.73-.65c-.01-.15-.01-.31-.24-.24-.3-.27-.62-.53-.88-.83-.51-.58-1.08-1.1-1.56-1.72-.01-.06-.05-.09-.11-.09-.06-.08-.13-.17-.19-.25-.01-.1-.06-.16-.16-.17-.05-.06-.09-.13-.14-.19-.01-.1-.09-.11-.17-.1-.04-.21-.23-.32-.31-.5-.01-.06-.04-.09-.1-.1Zm30.58,9.26c-.16-.03-.22.04-.2.2-.33.58-.34,1.16.01,1.57.37.42.79.49,1.23.18.25-.18.33-.5.22-.77-.11-.27-.3-.44-.62-.41-.09,0-.18,0-.27,0-.11,0-.12-.07-.09-.13.1-.17.19-.36.41-.4.21-.05.33.09.42.25.07.13.13.27.2.4.11.23.21.47.37.68.57.73,1.63.3,1.83-.27.12-.32.15-.66.09-.99-.07-.39-.07-.78-.09-1.17-.04-.65-.29-1.13-.91-1.36-1.01-.36-2.1-.26-2.95.61-.3.3-.25.5.09.71.23.14.36.14.45-.14.02-.08.1-.15.15-.22.21,0,.31-.09.3-.3.5-.37,1.05-.33,1.59-.14.31.1.54.36.5.73-.04.34.09.65.1.99.01.36.06.72-.03,1.09-.04.16-.08.29-.25.32-.19.03-.26-.13-.33-.26-.15-.29-.29-.59-.44-.87-.38-.68-1.27-.66-1.77-.29Zm-30.41-20.31c-.14-.02-.2.04-.18.18-.19.08-.38.18-.58.23-.7.16-1.43.16-2.14.29-.61.12-.59.08-.52.59.04.28.19.28.39.24.05-.01.1-.04.17-.05.8-.12,1.6-.23,2.4-.36.68-.12,1.08-.63,1.19-1.3.08-.5,0-.96-.12-1.42-.11-.39-.32-.8-.66-.98-.42-.22-.92-.3-1.38.02-.12.08-.23.1-.38.08-.4-.05-.8-.07-1.19.1-.72.31-1.06.98-.64,1.71.15.26.39.36.66.31.24-.05.44-.16.53-.44.12-.36.03-.64-.22-.89.39-.21.57-.13.56.27,0,.06,0,.12,0,.18-.02.3.16.49.39.61.24.12.48.03.69-.12.23-.16.34-.39.29-.67-.03-.14-.07-.28-.11-.42.07-.03.12-.09.12-.17.14.05.32.01.42.16-.02.14.04.2.18.19.29.54.44,1.09.12,1.68Zm4.29,6.57c.48.39.67.91.66,1.51,0,.46-.61.91-1.02.74-.22-.09-.46-.22-.59-.45.02-.14-.04-.2-.18-.19-.36-.33-.59-.77-.97-1.06-.27-.21-.57-.27-.9-.25-.2,0-.23.19-.34.29-.29.27-.31.66-.11,1.01.25.43.59.76,1.03.99.15.08.29.17.42.28.25.21.23.42-.04.6-.35.23-.72.44-1.08.66-.04,0-.08.02-.07.06,0,.02.05.04.08.06.05.18.14.34.25.49,0,.04.01.08.06.08.05,0,.05-.04.06-.08.02,0,.03-.01.05-.01.02-.01.04-.03.06-.04.12-.07.23-.13.35-.2.02-.01.04-.03.07-.04.12-.06.22-.18.36-.2.02-.01.04-.03.05-.04.4-.28.61-.65.54-1.15-.01-.02-.03-.04-.04-.06-.07-.32-.35-.47-.56-.68-.02-.01-.04-.03-.06-.04-.03-.02-.07-.04-.1-.06-.32-.22-.72-.34-.87-.76-.04-.11-.06-.2.02-.29.09-.1.18-.11.29-.06.15.07.32.11.43.27.02.05-.07.23.12.12.22.21.44.41.65.62,0,.09.06.15.15.16.49.49.99.94,1.76.6.02-.01.04-.03.05-.04.02,0,.04-.01.06-.02.02-.02.04-.03.06-.05.17-.14.34-.28.43-.49.02-.02.03-.04.05-.05.06-.17.12-.33.12-.51,0-.71-.23-1.33-.69-1.87-.36-.42-.8-.72-1.39-.67-.59.05-.8.29-.96.83-.09.3.19.83.51,1.02.19.11.39.11.59.02.42-.2.49-.38.42-1.01.06,0,.13,0,.19,0Zm5.74,8.1c-.28.09-.54.17-.8.27-.74.27-1.18,1.06-.96,1.68.28.78.89,1.21,1.62,1.46.68.23,1.27-.03,1.73-.69.74-1.06,1.46-2.13,2.2-3.19.1-.15.11-.24-.06-.32-.07-.03-.14-.08-.2-.14-.19-.19-.29-.11-.42.09-.7,1.04-1.4,2.07-2.13,3.1-.54.77-1.24.72-1.8.07-.35-.41-.33-.8,0-1.22.27-.35.66-.48,1.06-.61.45-.14.8-.38.92-.87.08-.34-.05-.6-.3-.82-.25-.21-.54-.25-.84-.11-.3.14-.42.38-.4.72.02.26.22.38.37.57Zm10.22,3.84c-.04-.58-.36-.83-.9-.84-.32-.01-.63.26-.71.58-.06.23.09.59.36.72.3.14.22.24.02.39-.2.14-.39.3-.56.49-.58.66-.46,1.61.28,2.07.55.34,1.14.53,1.79.41.6-.11,1-.45,1.15-1.05.16-.61.31-1.23.46-1.84.18-.72.35-1.44.53-2.16.02-.08.08-.17-.07-.2-.15-.03-.3-.08-.46-.11-.14-.04-.19-.02-.23.16-.28,1.24-.6,2.48-.88,3.72-.21.93-1.04,1.21-1.77.67-.44-.32-.49-.82-.25-1.28.18-.34.47-.56.76-.79.3-.24.47-.55.49-.92Z"/>
      <path class="cls-11" d="m16.18,33.64c.61.17,1.21.35,1.81.56.55.19,1.13.28,1.68.47.46.16.93.34,1.4.45,1.17.28,2.31.66,3.46,1,4.02,1.18,8.03,2.39,12.05,3.58,8.11,2.41,16.22,4.83,24.33,7.24.34.1.69.2,1.03.29.02.09-.03.15-.07.22-.53.93-1.21,1.75-1.73,2.69-.73,1.33-1.84,2.41-2.92,3.48-.33-.04-.63-.19-.95-.26.12-.13.17-.31.29-.44.35-.39.69-.8,1.04-1.19.11-.12.09-.19-.02-.29-.9-.84-1.83-1.62-2.95-2.15-.2-.09-.3-.09-.43.1-.42.59-.87,1.16-1.28,1.76-.15.21-.27.22-.48.1-.93-.53-1.89-1.02-2.93-1.31-.2-.06-.12-.15-.07-.25.28-.62.56-1.25.86-1.87.11-.22.06-.32-.15-.43-1.1-.55-2.28-.83-3.49-1.04-.16-.03-.2.04-.24.18-.17.58-.35,1.15-.53,1.73-.06.18-.07.41-.19.52-.15.14-.37-.03-.56-.05-.1,0-.19-.01-.29-.03-.33-.07-.67-.15-1-.18-.47-.05-.94-.02-1.41-.15-.22-.06-.21-.14-.21-.3,0-.72.01-1.43.01-2.15,0-.11.05-.23-.15-.25-.63-.05-1.27-.08-1.9-.07-.47,0-.94.08-1.39.05-.36-.02-.67.12-1,.13-.11,0-.15.05-.15.17.04.63.07,1.26.1,1.89-.99-.24-1.95-.59-2.94-.85-.38-.1-.75-.29-1.15-.3,0-.2-.09-.29-.3-.24-.1.02-.21.04-.32.05-.19-.07-.37-.16-.56-.21-.85-.25-1.7-.48-2.54-.73-.82-.24-1.63-.51-2.45-.75-1.16-.34-2.31-.67-3.47-1.01-1.21-.36-2.42-.72-3.63-1.09-.4-.84-.8-1.68-1.19-2.53-.77-1.66-1.55-3.32-2.3-5-.23-.51-.53-.98-.69-1.53Z"/>
      <path class="cls-4" d="m33.02,46.49c.11-.02.21-.03.32-.05.21-.05.29.04.3.24.21.61.42,1.21.63,1.82.06.18.08.4.2.52.14.14.34-.05.51-.07,0,0,.02,0,.03,0,.82-.1,1.64-.27,2.47-.3.18,0,.31-.09.27-.31-.03-.17-.01-.34-.02-.51-.03-.63-.07-1.26-.1-1.89,0-.12.04-.16.15-.17.34-.01.64-.15,1-.13.46.03.93-.05,1.39-.05.64,0,1.27.03,1.9.07.21.01.15.14.15.25,0,.72,0,1.43-.01,2.15,0,.15,0,.24.21.3.47.12.94.1,1.41.15.33.03.66.11,1,.18.1.02.2.03.29.03.19.02.41.19.56.05.12-.11.13-.34.19-.52.18-.58.36-1.15.53-1.73.04-.13.08-.2.24-.18,1.2.21,2.38.49,3.49,1.04.22.11.26.2.15.43-.3.62-.57,1.24-.86,1.87-.05.11-.13.2.07.25,1.04.29,1.99.78,2.93,1.31.21.12.33.11.48-.1.42-.59.87-1.17,1.28-1.76.13-.19.23-.19.43-.1,1.12.53,2.06,1.31,2.95,2.15.11.1.12.17.02.29-.35.39-.68.8-1.04,1.19-.12.14-.17.31-.29.44-.17.05-.17.13-.04.23.19.15.38.29.58.44-.08.09-.15.18-.24.26-.46.42-.92.84-1.37,1.26-.46.16-.84.46-1.27.68-.39.2-.78.41-1.17.61-.48-.48-.95-.97-1.47-1.41-.89-.75-1.87-1.37-2.91-1.89-.98-.49-2.01-.85-3.06-1.16-1.17-.35-2.38-.52-3.59-.63-1.56-.14-3.1-.04-4.65.27-.79.16-1.57.32-2.34.56-1.32.42-2.57,1-3.72,1.79-1.14.78-2.22,1.62-3.06,2.73-.65-.33-1.27-.71-1.89-1.11-.85-.55-1.66-1.14-2.41-1.8,0-.01.01-.03.01-.05.17-.1.14-.2.01-.32-.52-.51-1.01-1.05-1.51-1.58-.14-.15-.1-.17.03-.27.5-.39.98-.78,1.47-1.18,0,0,0,0,0,0,.06.02.1,0,.12-.07,0,0,0,0,0,0,.04,0,.05-.02.06-.05.04-.03.09-.05.13-.08.38-.23.77-.45,1.15-.68.14-.09.22-.05.32.06.53.55.99,1.15,1.56,1.66.1.09.16.1.27.03.87-.58,1.79-1.05,2.79-1.38.16-.05.23-.12.15-.31-.26-.63-.5-1.26-.74-1.89-.09-.22-.11-.39.2-.52,1.09-.46,2.21-.84,3.37-1.08Z"/>
      <path class="cls-15" d="m33.02,46.49c-1.16.23-2.28.62-3.37,1.08-.3.13-.28.29-.2.52.24.63.48,1.27.74,1.89.08.19,0,.26-.15.31-.99.34-1.92.8-2.79,1.38-.11.07-.17.06-.27-.03-.56-.51-1.03-1.11-1.56-1.66-.1-.11-.18-.15-.32-.06-.38.24-.76.46-1.15.68-.22-.65-.53-1.26-.82-1.88-.89-1.94-1.8-3.88-2.69-5.83-.03-.07-.06-.15-.08-.22,1.21.36,2.42.73,3.63,1.09,1.16.34,2.32.67,3.47,1.01.82.24,1.63.51,2.45.75.85.25,1.7.48,2.54.73.19.06.37.14.56.21Z"/>
      <path class="cls-15" d="m23.65,50.81c-.49.39-.98.79-1.47,1.18-.12.1-.17.12-.03.27.5.53.99,1.07,1.51,1.58.13.12.16.22-.01.32-.02,0-.04,0-.06,0-.28-.13-.47-.37-.69-.56-.52-.46-1.04-.93-1.5-1.45-.97-1.08-1.93-2.18-2.71-3.42-.64-1.01-1.25-2.04-1.75-3.13-.65-1.43-1.23-2.88-1.56-4.43-.15-.67-.32-1.33-.43-2-.1-.57-.16-1.16-.21-1.74-.05-.5-.09-1.01-.08-1.5,0-.6-.07-1.21.09-1.81.29.4.46.86.66,1.3,2.38,5.14,4.76,10.28,7.12,15.43.13.29.24.3.49.17.2-.1.39-.24.63-.23Z"/>
      <path class="cls-9" d="m9.27,22.19c-.08,0-.17,0-.25.01.04-.08.08-.17.11-.25.09.05.11.15.14.24Z"/>
      <path class="cls-15" d="m23.76,50.74c-.02.06-.06.08-.12.07,0-.09.07-.07.12-.07Z"/>
      <path class="cls-15" d="m23.82,50.69s-.02.06-.06.05c0-.05.02-.06.06-.05Z"/>
      <path class="cls-8" d="m53.08,14.16l.08.07s-.05.01-.08.02c0-.03,0-.06,0-.09Z"/>
      <polygon class="cls-8" points="52.76 13.97 52.74 13.95 52.76 13.96 52.76 13.97"/>
      <path class="cls-12" d="m55.17,55.56c.46-.42.92-.84,1.37-1.26.09-.08.16-.17.24-.26.16-.12.29-.26.41-.41,1.08-1.07,2.19-2.15,2.92-3.48.52-.94,1.2-1.77,1.73-2.69.04-.07.09-.13.07-.22.18-.08.23-.27.31-.42.62-1.15,1.18-2.33,1.69-3.54.07-.17.07-.34.09-.52.21-.07.2-.27.25-.44.13-.28.12-.59.17-.89.1-.07-.04-.29.17-.29.37.17.76.3,1.15.41.15.08.31.13.48.17.25.09.5.18.75.28.14.06.23.03.26-.12.08-.41.21-.8.23-1.22.06-.26.12-.52.18-.77.03-.09.04-.19.06-.28.12-.54.28-1.07.32-1.63.17-.44.28-.91.34-1.38.04-.16.14-.3.14-.47.07-.11.1-.23.1-.37.1-.34.21-.68.31-1.02.07-.16.16-.31.18-.48.26-.5.45-1.05.89-1.57,0,.21,0,.33,0,.45,0,.36.04.71.11,1.06-.1.25-.04.51-.04.77.03.58.04,1.16.09,1.74.02.26-.14.52.01.77.02.55.05,1.1.06,1.65,0,.15.06.26.13.38.03.28-.15.56,0,.84-.01.58.03,1.16-.06,1.73-.03.24.03.48-.06.71.01.15.02.29-.06.42-.05.38-.11.77-.16,1.15-.02.14-.07.27.18.3.33.03.65.14.98.22.1.02.21,0,.31.06.42.08.83.16,1.25.24.15.18-.04.34-.04.5,0,.12-.15.25.04.35-.38.61-.45,1.34-.7,2-.31.85-.65,1.67-1.09,2.47-.18.33-.36.67-.53,1.02-.15.31-.4.57-.6.85-.33.49-.69.95-1.09,1.37-.77.81-1.4,1.74-2.16,2.56-.83.88-1.68,1.74-2.55,2.58-.66.64-1.35,1.25-2.06,1.83-.34.28-.65.61-1.04.83-.48-.64-1.07-1.16-1.61-1.74-1.28-1.38-2.59-2.74-3.95-4.04-.06-.06-.11-.13-.17-.2Zm5.61-6.07c.1.01.19-.02.29-.05,1.03-.32,1.92-.9,2.72-1.62.75-.67,1.4-1.44,1.97-2.27.62-.9,1.22-1.81,1.34-2.94.02-.16.05-.28-.15-.35-.69-.23-1.37-.48-2.05-.72-.15-.05-.21-.04-.23.14-.03.26-.09.53-.15.79-.4,1.66-1.16,3.16-2.08,4.59-.54.82-1.09,1.63-1.64,2.45,0,0,0,.02-.01.03v-.03Zm8.99-15.96c-.09-.01-.1.05-.12.09-.27.49-.43,1.03-.59,1.56-.61,1.97-1,3.99-1.41,6.01-.28,1.35-.55,2.7-.93,4.02-.36,1.24-1.03,2.32-1.72,3.39-1.01,1.55-2.08,3.04-3.22,4.5-.85,1.09-1.71,2.19-2.6,3.24-.41.48-.88.89-1.3,1.35-.06.07-.16.11-.04.24.64.67,1.27,1.34,1.9,2.02.15.16.24.11.35-.04.24-.29.48-.58.73-.86,1.14-1.3,2.22-2.64,3.27-4.02,1.24-1.62,2.46-3.26,3.53-5,.53-.87,1.08-1.73,1.44-2.69.26-.69.38-1.41.54-2.12.26-1.12.42-2.25.49-3.4.06-1.04-.03-2.08-.11-3.11-.06-.76-.14-1.52-.11-2.29.03-.79-.09-1.58-.04-2.38.01-.17-.03-.35-.05-.51Zm-.23,13.33c-.51,1.33-1.22,2.53-1.98,3.7-1.39,2.13-2.92,4.15-4.51,6.14-.93,1.16-1.82,2.35-2.88,3.4-.05.05-.16.12-.08.19.19.16.25.41.45.54.15.11.24.32.43.35.24.04.26-.23.42-.33.36-.23.69-.53,1-.81.54-.48,1.09-.95,1.61-1.46.11-.1.24-.17.34-.29.59-.74,1.36-1.32,1.98-2.05.2-.23.43-.46.62-.7.26-.31.52-.64.78-.96.57-.68,1-1.41,1.12-2.31.03-.25.03-.54.12-.75.2-.51.18-1.05.29-1.56.09-.42.12-.86.16-1.29.05-.61.09-1.21.13-1.82Zm-3.36-1.44c-.3.42-.61.83-.94,1.23-1.19,1.44-2.56,2.63-4.41,3.14-.12.03-.18.11-.24.2-.96,1.43-2.1,2.7-3.3,3.92-.51.52-1.07,1-1.61,1.49-.14.12-.16.21,0,.36.58.56,1.14,1.13,1.71,1.71.11.12.19.14.35.04.31-.18.47-.48.7-.72,1.09-1.15,2.07-2.41,3.04-3.66,1.26-1.63,2.45-3.29,3.56-5.02.54-.83.89-1.74,1.17-2.69Zm2.72,7.67s.05.01.07.02c.06-.09.12-.18.18-.26.56-.72,1.07-1.48,1.5-2.28.83-1.55,1.41-3.19,1.8-4.9.05-.22,0-.31-.21-.35-.68-.14-1.35-.28-2.03-.42-.21-.04-.34.02-.36.26-.05.65-.05,1.3-.11,1.95-.06.76-.11,1.51-.19,2.27-.09.95-.24,1.9-.46,2.83-.07.29-.13.59-.2.88Z"/>
      <path class="cls-1" d="m61.53,23.39c-.82-.03-1.34-.47-1.69-1.18-.1-.2-.14-.41-.13-.63,0-.4.18-.59.59-.58.55.02,1.01.26,1.42.6.31.25.52.57.62.95.13.49-.15.84-.66.84-.05,0-.1,0-.15,0Z"/>
      <path class="cls-1" d="m63.04,26.74c1.01.01,1.82.82,1.86,1.71.03.61-.5.94-1.07.69-.71-.31-1.18-.83-1.5-1.52-.22-.48.1-.88.71-.88Z"/>
      <path class="cls-1" d="m55.86,7.94c-.58-.1-1.02-.42-1.33-.9-.19-.3-.33-.63-.41-.98-.12-.58.26-.94.83-.78.81.24,1.34.74,1.51,1.58.06.28-.01.55-.11.81-.09.22-.27.27-.49.26Z"/>
      <path class="cls-1" d="m60.04,9.25c.49.07.87.32,1.17.7.43.55.59,1.16.3,1.83-.16.36-.41.47-.77.31-.77-.36-1.11-1.01-1.22-1.81-.02-.18-.01-.36,0-.54.02-.27.26-.49.51-.49Z"/>
      <path class="cls-1" d="m63.95,13.47c-.02.23-.09.53-.25.79-.17.29-.41.36-.71.2-.65-.34-.96-.92-1.08-1.62-.05-.27-.07-.54.01-.82.12-.39.38-.54.77-.41.66.22,1.25,1.05,1.25,1.85Z"/>
      <path class="cls-1" d="m53.73,5.47c0,.61-.34.87-.92.7-.76-.22-1.5-1.12-1.57-1.91-.03-.36.26-.67.66-.63.86.09,1.77.72,1.83,1.84Z"/>
      <path class="cls-1" d="m59.11,9.03c-.06.25-.01.62-.35.8-.34.18-.63-.02-.91-.2-.65-.44-.94-1.09-1-1.84-.04-.53.28-.76.8-.64.8.2,1.47,1.03,1.46,1.88Z"/>
      <path class="cls-1" d="m51.49,9.65c.86.07,1.55.44,1.98,1.22.23.42.09.71-.35.88-.96.39-2.13-.41-2.35-1.35-.09-.4-.01-.8.73-.75Z"/>
      <path class="cls-1" d="m47.24,4.52c-.81-.02-1.44-.4-1.9-1.05-.27-.37-.16-.7.26-.89.88-.4,2.23.09,2.5,1.19.1.4-.12.7-.54.75-.11.01-.22,0-.33,0Z"/>
      <path class="cls-1" d="m50.79,7.09c.68.01,1.28.21,1.75.73.4.45.32.84-.2,1.11-.97.5-2.06-.22-2.41-.88-.26-.51-.04-.89.54-.96.11-.01.22,0,.33,0Z"/>
      <path class="cls-1" d="m62.06,23.93c.88-.06,1.85.88,1.78,1.68-.03.36-.42.64-.77.49-.41-.17-.81-.35-1.23-.47-.35-.1-.84-.86-.81-1.23.02-.25.22-.34.41-.41.2-.08.42-.1.62-.07Z"/>
      <path class="cls-1" d="m68.91,34.74c-.1.34-.21.68-.31,1.02-.54.18-1.38-.25-1.63-.84-.19-.45-.25-.91-.21-1.4.04-.4.43-.63.81-.46.64.29,1.04.8,1.27,1.45.03.07.05.15.07.23Z"/>
      <path class="cls-1" d="m61.68,20.34s0-.04,0-.06c0-.44.17-.61.6-.58.84.06,1.81.68,2.04,1.56.14.52-.05.73-.57.65-.36-.06-.72-.1-1.08-.13-.27-.02-.42-.22-.57-.39-.25-.3-.42-.65-.42-1.05Z"/>
      <path class="cls-1" d="m72.06,40.92c.05-1,.51-1.66,1.3-2.1.43-.24.79.02.86.52.07.47-.02.9-.2,1.32-.08.19-.21.29-.41.35-.33.1-.66.24-.92.47-.2.18-.34.12-.47-.05-.13-.17-.2-.36-.17-.51Z"/>
      <path class="cls-1" d="m53.44,11.99c.73.1,1.64.56,1.87,1.41.08.29-.09.55-.39.56-.33.01-.65.05-.97.12-.19.04-.35-.08-.5-.17-.5-.3-.88-.7-.99-1.3-.05-.25.06-.41.3-.43.24-.02.45-.15.67-.18Z"/>
      <path class="cls-1" d="m72.54,38.38c.04.17-.03.32-.06.47-.05.35-.27.52-.62.47-.34-.04-.67-.17-.87-.46-.22-.31-.44-.62-.51-1.02-.02-.12-.03-.2.05-.3.22-.27.37-.58.46-.91.08-.27.24-.27.44-.16.28.15.49.38.66.63.25.38.49.78.44,1.27Z"/>
      <path class="cls-1" d="m65.38,28.39c0-.1,0-.14,0-.17-.04-.47.21-.82.82-.62.78.25,1.48,1.1,1.57,1.9.01.14-.01.28-.07.41-.13.31-.24.34-.55.19-.41-.19-.81-.4-1.24-.55-.07-.02-.13-.04-.16-.11-.16-.36-.47-.66-.37-1.04Z"/>
      <path class="cls-1" d="m57.29,16.41c.74.05,1.44.45,1.88,1.27.09.17.03.37-.06.53-.08.14-.25.19-.39.16-.32-.08-.64-.08-.94-.04-.62.09-.93-.26-1.2-.72-.04-.06-.06-.12-.09-.19-.32-.65-.09-1.02.81-1.02Z"/>
      <path class="cls-1" d="m50.01,4.89c-.6.02-1.06-.29-1.48-.66-.08-.08-.1-.19-.1-.3,0-.3-.09-.58-.25-.82-.16-.24-.05-.31.15-.37.87-.26,2.11.22,2.36,1.27.15.63-.04.88-.68.88Z"/>
      <path class="cls-1" d="m64.36,25.58c0-.61.29-.82.88-.64.81.25,1.32.82,1.6,1.6.07.2.03.45-.09.65-.06.09-.15.18-.27.15-.55-.17-1.15-.28-1.63-.59-.36-.23-.49-.7-.49-1.16Z"/>
      <path class="cls-1" d="m64.37,36.3c0-.17,0-.33.06-.5.19-.47.55-.62.97-.33.62.43,1.23,1.35,1.01,2.28-.04.16-.08.31-.22.41-.17.12-.32.16-.49-.04-.22-.27-.5-.49-.8-.65-.42-.22-.5-.57-.52-.98,0-.06,0-.12,0-.18Z"/>
      <path class="cls-1" d="m64.07,33.3c.02-.13-.04-.31.04-.48.19-.36.56-.47.94-.23.77.48,1.19,1.16,1.17,2.1,0,.16-.05.29-.13.42-.11.18-.26.23-.45.1-.43-.28-.87-.55-1.29-.84-.2-.14-.24-.4-.28-.63-.02-.13,0-.26,0-.43Z"/>
      <path class="cls-1" d="m60.78,17.12c-.44-.1-.92-.02-1.39-.06-.41-.03-.58-.41-.82-.68-.06-.07-.1-.17-.14-.26-.25-.58-.03-.97.59-.96.81.01,1.76.41,2.12,1.32.14.35-.02.64-.37.64Z"/>
      <path class="cls-1" d="m56.6,16.05c-.33-.01-.68.05-1.03.09-.06,0-.13.03-.17,0-.48-.27-.88-.63-1-1.19-.08-.39.15-.65.63-.68.71-.05,1.73.25,2.18,1.08.04.07.08.14.1.22.07.29-.07.48-.37.48-.1,0-.2,0-.33,0Z"/>
      <path class="cls-1" d="m58.15,19.26c-.04-.45.23-.55.55-.57.85-.06,1.82.55,2.15,1.33.07.16.06.33.05.5-.01.13-.09.21-.24.2-.56-.02-1.12-.16-1.68-.13-.04,0-.08-.02-.11-.04-.38-.35-.65-.76-.72-1.29Z"/>
      <path class="cls-1" d="m65.74,24.12c0,.45-.22.59-.61.43-.35-.15-.71-.25-1.09-.26-.2,0-.37-.09-.48-.28-.23-.38-.42-.76-.39-1.22.03-.33.2-.54.52-.51.91.08,1.82.77,2.05,1.76,0,.04,0,.08,0,.09Z"/>
      <path class="cls-1" d="m60.55,12.77c0,.31-.04.57-.18.81-.12.22-.31.3-.55.22-.69-.22-1.07-.73-1.3-1.37-.09-.27-.15-.55-.13-.85.02-.28.11-.52.39-.61.29-.09.56.05.73.34.18.31.39.61.7.8.28.17.4.37.34.64Z"/>
      <path class="cls-1" d="m58.03,10.67c0,.15.02.31-.03.46-.14.42-.46.56-.86.35-.72-.4-1.22-.96-1.35-1.8-.04-.27-.04-.54.19-.74.21-.18.46-.14.7-.06.13.04.19.13.25.24.18.3.38.59.69.76.34.17.5.41.4.8Z"/>
      <path class="cls-1" d="m63.54,30.37c-.03-.6.4-.87.93-.62.42.19.81.47.98.9.12.31.14.68.29.99.1.2.06.36-.03.53-.14.27-.31.31-.55.13-.36-.27-.74-.5-1.17-.64-.11-.04-.19-.1-.23-.21-.15-.34-.25-.69-.24-1.06Z"/>
      <path class="cls-1" d="m59.29,14.48c0,.25-.05.37-.34.33-.4-.05-.81.03-1.21.08-.25.03-.44,0-.61-.19-.21-.25-.53-.38-.66-.71-.23-.55-.02-.91.57-.93.85-.03,1.58.23,2.09.95.1.14.18.29.16.46Z"/>
      <path class="cls-1" d="m73.68,35.64c.38-.02.5.18.6.41.25.56.12,1.09-.13,1.62-.22.46-.61.72-1.08.87-.18.06-.22,0-.24-.18-.05-.43-.11-.86-.34-1.24-.12-.19.01-.34.11-.48.11-.15.21-.31.29-.48.17-.37.55-.41.79-.51Z"/>
      <path class="cls-1" d="m60.81,17.48c.94,0,1.82.62,2.08,1.47.05.15.04.29,0,.43-.04.13-.11.15-.22.11-.52-.17-1.06-.18-1.6-.21-.18-.01-.32-.06-.44-.2-.21-.26-.38-.54-.47-.85-.15-.46.11-.75.66-.75Z"/>
      <path class="cls-1" d="m53.36,8.87c.87,0,1.54.26,2,.95.22.33.15.59-.18.81-.38.26-.81.24-1.24.21-.13,0-.2-.1-.26-.22-.21-.45-.57-.76-1-.99-.27-.14-.28-.32-.04-.53.23-.2.5-.28.72-.24Z"/>
      <path class="cls-1" d="m66.16,31.23c.02-.12.05-.34.11-.54.1-.31.31-.41.62-.32.82.24,1.52,1.09,1.59,2.04,0,.09-.02.18-.05.26-.11.36-.19.39-.51.19-.42-.26-.84-.53-1.32-.67-.27-.08-.45-.45-.44-.96Z"/>
      <path class="cls-1" d="m66.41,40.21c0,.29-.01.56-.18.8-.12.17-.25.23-.43.03-.38-.42-.79-.81-1.25-1.13-.06-.04-.12-.07-.12-.16,0-.41-.07-.83.16-1.22.18-.32.43-.42.74-.24.74.42,1.03,1.11,1.08,1.92Z"/>
      <path class="cls-1" d="m47.59,5.15c0-.29.39-.62.78-.49.56.2,1.12.42,1.2,1.15.03.25.15.49.25.73.09.19.08.29-.14.33-.3.07-.59.15-.89.24-.12.04-.19-.01-.27-.07-.57-.46-.86-1.07-.94-1.89Z"/>
      <path class="cls-1" d="m55.3,11.09c.72.06,1.38.27,1.81.91.09.13.17.27.15.44-.01.17-.07.26-.27.28-.41.03-.83.06-1.23.16-.19.05-.34,0-.45-.19-.18-.31-.46-.51-.77-.68-.16-.09-.29-.15-.27-.37.02-.22.14-.35.33-.42.22-.08.45-.15.7-.13Z"/>
      <path class="cls-1" d="m63.77,15.27c.73.09,1.44.44,1.85,1.25.04.09.08.18.1.28.06.29-.08.46-.37.44-.19-.01-.37-.04-.56-.06-.15-.01-.18-.14-.24-.24-.31-.6-.32-.6-.68-.05-.13.19-.22.22-.38.05-.21-.21-.37-.44-.49-.7-.27-.6-.03-.97.77-.96Z"/>
      <path class="cls-1" d="m67.77,24.74c.03.54-.07.99-.45,1.34-.13.12-.19.21-.35,0-.14-.17-.13-.39-.28-.54-.18-.17-.35-.35-.56-.49-.17-.11-.22-.24-.17-.45.06-.23.07-.46.17-.68.14-.33.37-.56.7-.58.35-.02.55.25.69.55.13.28.29.56.25.84Z"/>
      <path class="cls-1" d="m68.84,27.55c-.02.43-.1.93-.46,1.36-.19.23-.35.21-.44-.06-.15-.41-.39-.76-.73-1.03-.21-.16-.24-.34-.13-.57.13-.29.16-.63.43-.87.37-.34.79-.29,1.04.14.13.23.28.68.3,1.03Z"/>
      <path class="cls-1" d="m69.69,30.46c-.03.61-.24,1.13-.75,1.49-.14.1-.2.08-.23-.09-.11-.51-.37-.93-.79-1.25-.12-.09-.12-.2-.06-.31.16-.29.27-.61.47-.89.32-.46.8-.45,1.1.02.19.31.26.66.27,1.02Z"/>
      <path class="cls-1" d="m65.89,23.43c-.29-.5-.66-.89-1.15-1.16-.1-.06-.15-.13-.13-.24.05-.44.1-.87.38-1.23.25-.33.55-.34.86-.07.88.74.74,2.2.04,2.71Z"/>
      <path class="cls-1" d="m70.8,22.32c.02.64-.13,1.1-.49,1.49-.11.12-.2.14-.26-.02-.2-.51-.57-.87-1.02-1.16-.08-.05-.08-.14-.07-.21.05-.4.13-.8.38-1.14.25-.34.62-.37.92-.07.34.34.48.77.54,1.12Z"/>
      <path class="cls-1" d="m69.43,20.1c.01.36-.17.62-.36.89-.09.13-.17.18-.28,0-.26-.44-.62-.79-1.11-.99-.06-.02-.13-.06-.12-.12.07-.51-.01-1.06.43-1.46.19-.17.37-.2.6-.09.5.26.67.72.79,1.22.04.18.11.36.05.54Z"/>
      <path class="cls-1" d="m72.84,27.88c.06.61-.16,1.09-.61,1.48-.15.13-.23.15-.31-.08-.15-.45-.41-.83-.79-1.13-.08-.06-.16-.12-.12-.24.14-.42.26-.86.62-1.17.31-.28.7-.24.91.12.18.32.38.64.3,1.02Z"/>
      <path class="cls-1" d="m66.04,15.04c.03.25-.04.51-.17.75-.09.18-.17.22-.32.04-.24-.29-.54-.55-.91-.65-.35-.1-.51-.29-.5-.63,0-.36.03-.71.22-1.03.2-.34.58-.41.88-.15.51.43.84.95.8,1.66Z"/>
      <path class="cls-1" d="m74.1,33.81c.05.66-.31,1.1-.71,1.52-.1.1-.24.13-.35.1-.13-.03-.05-.19-.07-.29-.08-.45-.28-.84-.58-1.18-.11-.13-.13-.21-.04-.36.18-.32.36-.63.65-.87.36-.29.77-.2.96.23.13.28.16.57.14.85Z"/>
      <path class="cls-1" d="m72.63,32.49c-.1-.57-.34-1.07-.77-1.46-.06-.06-.11-.13-.08-.21.19-.46.37-.93.84-1.18.24-.13.47-.1.64.12.61.81.45,2.29-.63,2.73Z"/>
      <path class="cls-1" d="m66.73,15.7c.2.04.38.13.52.28.46.47.86,1.35.46,2.12-.02.04-.04.09-.05.14-.07.24-.19.28-.37.1-.26-.25-.48-.58-.83-.7-.62-.21-.41-.69-.39-1.09.01-.22.12-.44.27-.62.11-.13.25-.19.41-.22Z"/>
      <path class="cls-1" d="m70.35,40.36c-.15-.28.03-.56,0-.84.19-.07.17-.38.38-.39.19,0,.3.2.46.29.18.1.37.07.55.15.3.13.28.31.18.52-.25.53-.18,1.04.09,1.53.12.22.07.32-.17.35-.35.04-.63-.14-.89-.36-.39-.33-.52-.78-.61-1.25Z"/>
      <path class="cls-1" d="m66.68,20.05c.87.01,1.8.73,2.02,1.59.06.21.07.45-.12.61-.17.15-.37.07-.56,0-.21-.08-.46-.07-.54-.38-.04-.16-.15-.01-.23.04-.1.07-.14.21-.32.14-.17-.06-.11-.18-.13-.29-.09-.49-.18-.98-.4-1.44-.16-.35.14-.23.27-.26Z"/>
      <path class="cls-1" d="m71.2,26.72c-.19-.59-.45-1.02-.91-1.32-.19-.12-.19-.27-.13-.48.1-.33.2-.64.45-.9.28-.29.56-.3.85-.01.46.46.55,1.04.47,1.65-.06.45-.49.65-.73,1.06Z"/>
      <path class="cls-1" d="m64.56,20.84c-.29-.39-.55-.76-.94-.96-.44-.23-.42-.6-.37-.98.02-.19.08-.4.18-.55.3-.43.73-.43,1.08-.03.34.4.51.86.57,1.38.02.18-.05.35-.13.48-.14.21-.25.42-.39.67Z"/>
      <path class="cls-1" d="m69.19,25.14c.45.1.88.39,1.24.79.25.28.38.62.46.99.06.26.02.48-.14.67-.18.21-.43.09-.61.02-.21-.07-.41-.18-.63-.24-.33-.09-.33-.38-.36-.63-.06-.47-.1-.94-.21-1.4-.04-.18.01-.22.25-.2Z"/>
      <path class="cls-1" d="m71.65,43.62c.05-.61.31-1.12.75-1.53.2-.18.38-.38.67-.45.28-.07.61,0,.71.27.16.43.13.87-.03,1.3-.07.18-.25.17-.37.19-.51.06-.99.24-1.46.43-.24.09-.29.03-.26-.19Z"/>
      <path class="cls-1" d="m68.02,37.97c-.03.56-.2,1.09-.32,1.63-.02.09-.03.19-.06.28-.19.17-.38.34-.63.44-.17.07-.26.05-.26-.16,0-.49-.17-.92-.46-1.32-.12-.17-.12-.32.08-.48.23-.19.39-.47.66-.63.46-.29.73-.23.99.25Z"/>
      <path class="cls-1" d="m68.13,22.62c.62.12,1.19.5,1.59,1.14.13.21.19.45.24.69.04.17,0,.33-.1.45-.12.14-.27.02-.38-.03-.34-.14-.69-.25-1.05-.28-.28-.02-.34-.24-.34-.44,0-.44-.22-.84-.28-1.27-.04-.27-.07-.26.32-.26Z"/>
      <path class="cls-1" d="m70.12,29.78c-.13-.39-.06-.8-.17-1.19-.02-.08-.03-.16-.03-.23-.02-.46-.06-.54.49-.29.72.32,1.13.92,1.31,1.67.04.18.02.41-.06.61-.1.25-.28.31-.52.18-.3-.17-.59-.36-.93-.45-.14-.04-.17-.15-.09-.29Z"/>
      <path class="cls-1" d="m55.35,8.7c0,.07,0,.09,0,.11-.02.11.05.27-.07.33-.11.05-.18-.08-.27-.14-.44-.29-.93-.45-1.46-.46-.2,0-.32-.08-.38-.26-.1-.27-.22-.53-.21-.83.02-.31.23-.52.53-.53.34,0,.64.05.83.39.14.24.34.45.59.58.37.19.47.48.43.81Z"/>
      <path class="cls-1" d="m65.47,19.35c-.13-.21-.21-.43-.22-.69-.01-.3-.17-.57-.29-.84-.07-.16-.03-.22.15-.23.86-.04,1.77.54,2.1,1.36.1.23.16.48-.04.7-.22.23-.46.05-.69.01-.31-.04-.41-.3-.49-.55-.06-.19-.12-.24-.26-.05-.07.1-.17.19-.26.29Z"/>
      <path class="cls-1" d="m70.7,33.9c.07-.3.31-.43.63-.34.56.17,1.26,1.08,1.29,1.66.01.22.03.44,0,.67-.06.43-.42.62-.8.42-.2-.11-.36-.27-.53-.42-.1-.09-.11-.19-.08-.32.11-.58.09-1.16.09-1.75,0-.16-.07-.16-.19-.1-.13.06-.25.16-.41.18h0Z"/>
      <path class="cls-1" d="m72.31,32.85s0,.12-.03.21c-.12.44-.27.49-.63.25-.15-.1-.29-.22-.45-.28-.34-.13-.39-.37-.4-.69-.01-.48-.1-.95-.17-1.43-.03-.18.01-.24.2-.19.27.08.5.21.69.41.44.46.8.96.79,1.72Z"/>
      <path class="cls-1" d="m52.48,7.03c.01.16.03.29-.24.13-.55-.33-1.14-.49-1.79-.4-.1.01-.14-.03-.19-.1-.16-.21-.24-.46-.28-.71-.06-.4.1-.64.5-.69.39-.04.76.02,1.03.38.14.2.33.37.54.51.35.23.44.41.44.87Z"/>
      <path class="cls-1" d="m62.19,16.24c-.47-.02-.76-.31-.98-.64-.36-.56-.54-1.17-.36-1.84.06-.23.21-.38.46-.39.25-.01.43.07.53.33.16.4.42.72.8.94.09.05.19.1.16.22-.03.12-.15.06-.23.07-.3.04-.61.07-.91.12-.31.05-.32.08-.13.34.22.29.44.58.67.87Z"/>
      <path class="cls-1" d="m70.09,34.21c-.07-.35-.11-.71-.11-1.06,0-.12,0-.24,0-.45-.44.52-.63,1.06-.89,1.57-.1-.3-.25-.56-.47-.78-.11-.11-.14-.19-.06-.33.16-.28.29-.59.52-.82.34-.34.8-.29,1.01.15.27.57.29,1.16,0,1.74Z"/>
      <path class="cls-1" d="m67.88,36.22c-.08.32-.25.63-.55.85-.15.11-.31.3-.48.26-.22-.05-.06-.31-.13-.47-.13-.35-.25-.7-.46-1.01-.12-.18.02-.72.21-.79.12-.05.21.06.26.15.23.4.58.65,1,.8.08.03.15.06.13.21Z"/>
      <path class="cls-1" d="m61.42,16.32c.37.19.68.23,1,.3.3.06.49.38.68.63.22.3.24.62.06.94-.05.09-.08.28-.23.07-.33-.45-.77-.77-1.29-.97-.14-.05-.16-.11-.15-.26.02-.21.04-.43-.07-.72Z"/>
      <path class="cls-1" d="m70.23,42.8c.09-.23.03-.47.06-.71.08,0,.11-.07.15-.13.1-.13.22-.16.36-.05.22.18.48.28.75.34.18.04.18.11.11.24-.24.43-.37.88-.26,1.38,0,.04-.02.12-.1.14-.28-.47-.57-.94-1.06-1.23Z"/>
      <path class="cls-1" d="m71.17,44.88c-.33-.08-.65-.18-.98-.22-.25-.02-.2-.16-.18-.3.05-.38.11-.77.16-1.15.29.04.42.29.55.49.23.35.41.73.45,1.17Z"/>
      <path class="cls-1" d="m70.15,37.49c-.15-.25.01-.51-.01-.77-.05-.58-.06-1.16-.09-1.74.38.09.62.46.65.98.03.59-.12,1.11-.55,1.53Z"/>
      <path class="cls-1" d="m72.73,45.18c-.42-.08-.83-.16-1.25-.24,0-.04-.01-.08,0-.12.04-.16-.17-.36.06-.49.26-.15.54-.27.85-.21.17.03.41.4.37.58-.04.16-.01.32-.03.47Z"/>
      <path class="cls-1" d="m67.46,40.65c-.02.42-.15.81-.23,1.22-.03.15-.12.18-.26.12-.25-.1-.5-.19-.75-.28-.04-.16,0-.28.13-.4.32-.31.61-.66,1.11-.67Z"/>
      <path class="cls-1" d="m60.6,15.28c-.3-.1-.56-.3-.88-.35-.09-.02-.13-.07-.13-.16,0-.2-.07-.43-.02-.58.08-.26.33-.01.51-.03.38-.05.4-.03.4.37,0,.26.13.5.13.76h-.01Z"/>
      <path class="cls-1" d="m57.87,11.82c.14-.01.21.04.21.15.02.28.1.54.21.8.06.15.01.19-.13.13-.19-.08-.48-.03-.57-.2-.11-.2-.04-.48-.15-.72-.02-.05.01-.1.07-.1.13-.01.26-.01.35-.06Z"/>
      <path class="cls-1" d="m65.75,41.55c-.39-.11-.78-.24-1.15-.41.18-.24.42-.25.66-.12.21.12.4.28.49.53Z"/>
      <path class="cls-1" d="m64.65,29.44c.17-.09.31-.15.47-.23.07.15,0,.31.12.42.04.04.04.12,0,.16-.06.06-.1-.01-.15-.04-.13-.1-.27-.19-.44-.31Z"/>
      <path class="cls-1" d="m64.14,26.61c-.1-.06-.2-.11-.3-.17-.05-.03-.16-.07-.09-.14.05-.05.16-.14.25-.03.07.09.12.2.17.3-.01.01-.03.03-.04.04Z"/>
      <path class="cls-1" d="m68.5,36.12c0,.17-.1.31-.14.47-.06,0-.11,0-.17,0h0c.07-.18.02-.44.31-.47Z"/>
      <path class="cls-1" d="m64.43,41.43c-.05.3-.04.61-.17.89,0-.31-.03-.62.17-.89Z"/>
      <path class="cls-1" d="m63.8,14.69q.02.25-.58.2c.25-.05.45-.02.58-.2Z"/>
      <path class="cls-15" d="m69.8,19.69c.07,0,.12.03.15.1-.03.04-.08.11-.1.1-.09-.04-.02-.14-.05-.21Z"/>
      <path class="cls-8" d="m74.64,40.24c0,.08,0,.16-.1.18-.03-.09.06-.12.1-.18Z"/>
      <path class="cls-15" d="m59.25,7.99s.06,0,.09,0c0,.04,0,.09,0,.13-.06-.02-.06-.08-.08-.13Z"/>
      <path class="cls-15" d="m73.92,31.46s.04.04.06.06c-.03.05-.07.07-.11.02-.02-.03,0-.07.05-.08Z"/>
      <path class="cls-8" d="m74.52,40.54s.06.04.09.06c-.04.06-.11.05-.14.02-.02-.02.02-.06.06-.08Z"/>
      <path class="cls-8" d="m50.59,3.05s.06-.01.09-.02c0,.03-.01.07-.02.1-.02-.03-.05-.06-.07-.09Z"/>
      <path class="cls-15" d="m74.42,34.64s-.08.05-.12.01c.02-.02.05-.05.07-.07.02.02.03.04.05.06Z"/>
      <path class="cls-15" d="m71.77,22.33s.02-.04.03-.07c.06.03,0,.07.01.11-.02,0-.04-.02-.04-.04Z"/>
      <path class="cls-15" d="m71.85,22.56s.03.04.04.06c-.03,0-.06-.01-.04-.06Z"/>
      <path class="cls-15" d="m73.21,28.35s-.03.04-.05.06c0-.04.01-.05.05-.06Z"/>
      <path class="cls-15" d="m72.14,23.69s.03.04.05.06c-.03,0-.06-.02-.05-.06Z"/>
      <path class="cls-15" d="m70.54,19.87s.03.04.04.05c-.03,0-.06-.01-.04-.05Z"/>
      <path class="cls-1" d="m70.7,33.9s-.02.02-.03.02c0,0,0-.01,0-.02,0,0,.01,0,.02,0,0,0,0,0,0,0Z"/>
      <path class="cls-15" d="m69.34,18.02s.03.03.04.05c-.03,0-.06,0-.04-.05Z"/>
      <path class="cls-1" d="m68.19,36.59s-.02.02-.03.02c0,0,.02-.02.02-.03,0,0,0,0,0,0Z"/>
      <path class="cls-15" d="m69.22,17.72s.03.03.05.05c-.03,0-.06-.01-.05-.05Z"/>
      <path class="cls-1" d="m60.61,15.27s.02.02.02.03c-.01,0-.02-.02-.03-.02,0,0,.01-.01.01-.01Z"/>
      <path class="cls-9" d="m17.68,60.05c.12.05.31.03.29.25-.07-.11-.31-.02-.29-.25Z"/>
      <path class="cls-9" d="m16.71,59.17c.23-.07.23.09.24.24-.1-.06-.18-.14-.24-.24Z"/>
      <path class="cls-9" d="m7.45,26.5c.12.08,0,.15-.01.22-.14-.08-.1-.15.01-.22Z"/>
      <path class="cls-9" d="m13.81,56.12c.1.01.15.07.16.17-.14.02-.18-.04-.16-.17Z"/>
      <path class="cls-9" d="m18.03,60.36c.1,0,.17.05.18.16-.11,0-.17-.04-.18-.16Z"/>
      <path class="cls-9" d="m7.58,26.14c0,.05,0,.1-.01.16-.06,0-.08-.04-.09-.09,0-.08.06-.05.1-.06Z"/>
      <path class="cls-9" d="m33.85,67.82c.09-.09.15-.07.18.05-.06,0-.14.03-.18-.05Z"/>
      <path class="cls-9" d="m6.39,38.62c.12.03.14.08.06.18-.1-.03-.06-.11-.06-.18Z"/>
      <path class="cls-9" d="m25.92,65.37c.09-.02.19-.05.17.11-.09.02-.15-.01-.17-.11Z"/>
      <path class="cls-9" d="m36.3,68.17c.1-.08.1,0,.12.07-.1.07-.09-.03-.12-.07Z"/>
      <path class="cls-9" d="m28.13,66.21c.08,0,.16,0,.17.11-.09.01-.12-.06-.17-.11Z"/>
      <path class="cls-9" d="m13.51,55.82c.08,0,.15,0,.17.1-.08,0-.14-.02-.17-.1Z"/>
      <path class="cls-9" d="m27.35,65.91c.08,0,.16,0,.17.11-.09.02-.13-.06-.17-.11Z"/>
      <path class="cls-9" d="m12.08,53.85c.06,0,.09.04.1.09-.06,0-.12,0-.1-.09Z"/>
      <path class="cls-9" d="m26.83,65.68c.08-.01.09.04.1.1-.08.01-.09-.04-.1-.1Z"/>
      <path class="cls-9" d="m27.72,66.04c.08-.02.09.03.1.09-.08.01-.1-.03-.1-.09Z"/>
      <path class="cls-9" d="m12.46,54.32c.06.02.07.07.07.13-.09,0-.13-.04-.07-.13Z"/>
      <path class="cls-9" d="m7.11,27.94c.08.09.01.1-.06.12-.01-.05-.01-.1.06-.12Z"/>
      <path class="cls-9" d="m20.12,62.03c.06-.09.1-.05.13.02-.05.04-.09.04-.13-.02Z"/>
      <path class="cls-9" d="m18.76,60.95c.06,0,.1.04.11.1-.06,0-.12-.02-.11-.1Z"/>
      <path class="cls-9" d="m32.73,67.55c.09-.05.1.02.11.08-.06.01-.11,0-.11-.08Z"/>
      <path class="cls-9" d="m6.44,31.87c.09.08.03.1-.05.12-.01-.05-.02-.1.05-.12Z"/>
      <path class="cls-9" d="m13.09,55.22c.06,0,.09.04.1.1-.08.01-.11-.02-.1-.1Z"/>
      <path class="cls-9" d="m14.16,56.54c.06,0,.1.03.11.09-.07.01-.13.01-.11-.09Z"/>
      <path class="cls-9" d="m36.9,68.23c.09-.09.1-.02.12.05-.05,0-.1.02-.12-.05Z"/>
      <path class="cls-9" d="m54.93,65.02c.01-.08.02-.15.12-.06-.03.04-.07.06-.12.06Z"/>
      <path class="cls-8" d="m10.74,51.66s.05,0,.04.04c-.02,0-.03-.02-.04-.04Z"/>
      <path class="cls-9" d="m8.47,23.52s-.03.04-.05.06c-.01-.04.01-.05.05-.06Z"/>
      <path class="cls-9" d="m6.98,28.53s-.03.04-.05.06c0-.04.01-.06.05-.06Z"/>
      <path class="cls-9" d="m19.95,61.85s.03.03.05.04c-.04.01-.06,0-.05-.04Z"/>
      <path class="cls-9" d="m20.53,62.27s.04.03.06.04c-.04.02-.05-.01-.06-.04Z"/>
      <path class="cls-9" d="m21.61,62.98s.04.03.05.04c-.04.01-.06.01-.05-.04Z"/>
      <path class="cls-9" d="m21.79,63.1s.04.02.06.03c-.04.03-.05,0-.06-.03Z"/>
      <path class="cls-9" d="m22.69,63.64s.04.03.05.04c-.04.02-.05,0-.05-.04Z"/>
      <path class="cls-9" d="m22.98,63.82s.04.02.06.03c-.04.03-.05,0-.06-.03Z"/>
      <path class="cls-9" d="m23.11,63.88s.04.03.06.05c-.04.01-.06,0-.06-.05Z"/>
      <path class="cls-9" d="m23.52,64.12s.04.02.06.04c-.04.03-.05,0-.06-.04Z"/>
      <path class="cls-9" d="m23.64,64.18s.04.03.05.04c-.04.02-.05,0-.05-.04Z"/>
      <path class="cls-9" d="m24.77,64.78s.04.02.06.04c-.04.03-.05,0-.06-.04Z"/>
      <path class="cls-9" d="m24.9,64.83s.04.03.05.05c-.04,0-.06-.01-.05-.05Z"/>
      <path class="cls-9" d="m9.01,22.21s-.03.03-.05.05c-.01-.04,0-.05.05-.05Z"/>
      <path class="cls-9" d="m26.45,65.55s.04.03.06.05c-.04,0-.06-.01-.06-.05Z"/>
      <path class="cls-9" d="m8.35,23.82s-.03.04-.05.06c0-.04.01-.05.05-.06Z"/>
      <path class="cls-9" d="m27.17,65.85s.04.03.06.05c-.04,0-.06-.01-.06-.05Z"/>
      <path class="cls-9" d="m31.76,67.34s.04.03.06.05c-.04,0-.06-.01-.06-.05Z"/>
      <path class="cls-9" d="m32,67.4s.04.03.06.05c-.04,0-.06-.01-.06-.05Z"/>
      <path class="cls-3" d="m35.05,38.2c-.75-.45-1.35-1.05-1.77-1.81-.18-.33-.38-.66-.44-1.05,0-.05,0-.11-.01-.16-.18-.19-.14-.45-.15-.67-.06-.79-.03-1.57.29-2.31.56-1.32,1.49-2.27,2.81-2.83.78-.33,1.61-.43,2.44-.35,1.9.17,3.7,1.36,4.36,3.42.29.9.33,1.82.09,2.72-.22.86-.64,1.62-1.29,2.27-.85.85-1.86,1.29-3,1.49-.88.16-1.73,0-2.55-.31-.02-.02-.04-.03-.05-.05-.23-.08-.46-.18-.67-.32-.02-.01-.04-.02-.06-.04Z"/>
      <path class="cls-8" d="m32.82,35.18c0,.05,0,.11.01.16-.03-.01-.09-.02-.1-.04,0-.06,0-.12.08-.12Z"/>
      <path class="cls-8" d="m35.77,38.56s.04.03.05.05c-.04,0-.06-.01-.05-.05Z"/>
      <path class="cls-8" d="m35.05,38.2s.04.02.06.04c-.04.03-.05,0-.06-.04Z"/>
      <path class="cls-13" d="m27.93,57.11c.84-1.11,1.92-1.96,3.06-2.73,1.15-.78,2.4-1.37,3.72-1.79.76-.24,1.55-.4,2.34-.56,1.54-.31,3.09-.41,4.65-.27,1.21.11,2.41.28,3.59.63,1.05.31,2.08.67,3.06,1.16,1.04.52,2.02,1.14,2.91,1.89.52.44.99.93,1.47,1.41-.4.25-.83.45-1.26.66-.04-.01-.05,0-.06.04-.24.06-.44.19-.65.3-1.22.64-2.49,1.14-3.82,1.48-.65.16-1.3.39-1.96.45-.77.08-1.53.27-2.3.33-.99.07-1.98.07-2.98.08-.97.01-1.94-.07-2.9-.21-3.12-.45-6.09-1.35-8.87-2.87Zm17.5,1.3c-.62-1.38-1.24-2.76-1.85-4.13-.07-.15-.17-.22-.32-.2-.19.03-.27-.07-.32-.23-.05-.13-.13-.25-.17-.38-.07-.29-.25-.44-.54-.46-.41-.02-.82-.02-1.22.1-.16.05-.35.18-.49.11-.5-.26-1.03-.22-1.56-.22-.31,0-.57.06-.63.44-.02.14-.11.28-.16.41-.04.1-.09.2-.19.21-.33,0-.44.22-.53.48-.05.16-.12.31-.18.46-.46,1.11-.92,2.21-1.37,3.32-.02.05-.1.1-.04.15.05.04.1,0,.16,0,.6-.19,1.21-.28,1.83-.2.88.12,1.69.49,2.47.91.18.1.37.14.58.01.21-.13.46-.19.68-.29.99-.42,2.01-.64,3.1-.47.23.04.49.11.76-.01Z"/>
      <path class="cls-15" d="m16.59,52.54c.13.23.37.36.59.45.42.17,1.01-.28,1.02-.74.01-.6-.18-1.12-.66-1.51-.09-.1-.18-.19-.35-.17.06.06.1.12.15.17.07.64,0,.81-.42,1.01-.2.1-.4.09-.59-.02-.33-.18-.6-.72-.51-1.02.16-.54.37-.78.96-.83.58-.05,1.02.25,1.39.67.46.54.7,1.16.69,1.87,0,.18-.07.35-.12.51-.04,0-.06.01-.05.05-.09.21-.26.35-.43.49-.04-.01-.05,0-.06.05-.02,0-.04.01-.06.02-.04-.02-.05,0-.05.04-.77.34-1.27-.11-1.76-.6.03-.13-.04-.16-.15-.16-.22-.21-.44-.41-.65-.62-.04-.04-.08-.08-.12-.12-.1-.15-.27-.2-.43-.27-.11-.05-.2-.04-.29.06-.09.1-.06.18-.02.29.15.42.55.54.87.76.03.02.07.04.1.06.01.03.02.06.06.04.21.21.48.36.56.68-.02.04,0,.05.04.06.07.5-.14.87-.54,1.15-.04-.02-.05,0-.05.04-.15.02-.24.14-.36.2-.04-.02-.05.01-.07.04-.12.07-.23.13-.35.2-.04-.02-.05,0-.06.04-.02,0-.04,0-.05.01-.04,0-.08,0-.12,0-.12-.15-.21-.31-.25-.49,0-.04,0-.08,0-.12.36-.22.72-.43,1.08-.66.27-.17.29-.38.04-.6-.13-.11-.27-.2-.42-.28-.44-.23-.78-.56-1.03-.99-.21-.35-.18-.74.11-1.01.1-.1.14-.28.34-.29.33-.01.64.05.9.25.39.3.62.74.97,1.06.04.08.1.14.18.19Zm.3-1.45c.02-.16-.04-.25-.21-.25-.14,0-.26.09-.26.22,0,.13.11.25.24.25.1,0,.27-.03.23-.23Z"/>
      <path class="cls-8" d="m12.42,42.32c.04.14.08.28.11.42.05.28-.06.51-.29.67-.21.15-.45.24-.69.12-.23-.12-.41-.31-.39-.61,0-.06,0-.12,0-.18,0-.4-.17-.48-.56-.27.25.25.33.53.22.89-.09.28-.3.4-.53.44-.27.05-.51-.05-.66-.31-.42-.72-.08-1.4.64-1.71.39-.16.79-.15,1.19-.1.15.02.26,0,.38-.08.45-.32.96-.24,1.38-.02.34.18.55.59.66.98.13.46.2.93.12,1.42-.11.67-.51,1.18-1.19,1.3-.8.14-1.6.25-2.4.36-.06,0-.11.04-.17.05-.2.04-.35.03-.39-.24-.08-.51-.09-.47.52-.59.71-.13,1.44-.14,2.14-.29.2-.04.39-.15.58-.23.09-.03.15-.1.18-.18.32-.59.17-1.14-.12-1.68-.03-.09-.09-.15-.18-.19-.11-.15-.28-.11-.42-.16-.06,0-.14-.04-.17.03-.03.05.01.1.06.14Zm-.63.14c-.12.18-.23.36-.06.54.07.07.23.08.29-.03.12-.24-.05-.38-.23-.51Zm-1.61.81c.13.01.2-.06.2-.19,0-.15-.07-.23-.23-.23-.14,0-.19.09-.19.21,0,.14.06.22.22.21Z"/>
      <path class="cls-8" d="m44,63.22c-.05.07-.12.14-.15.22-.08.28-.22.28-.45.14-.34-.21-.39-.41-.09-.71.86-.87,1.94-.97,2.95-.61.63.22.88.7.91,1.36.02.39.02.78.09,1.17.06.33.03.67-.09.99-.21.57-1.27,1-1.83.27-.16-.21-.26-.44-.37-.68-.06-.13-.12-.27-.2-.4-.09-.16-.21-.3-.42-.25-.22.05-.31.23-.41.4-.03.06-.02.14.09.13.09,0,.18,0,.27,0,.32-.03.51.14.62.41.12.28.03.6-.22.77-.44.32-.86.24-1.23-.18-.36-.41-.35-.99-.01-1.57.07-.07.13-.13.2-.2.5-.37,1.39-.39,1.77.29.16.29.29.59.44.87.07.13.14.28.33.26.17-.03.21-.16.25-.32.08-.36.04-.72.03-1.09-.01-.33-.14-.65-.1-.99.04-.37-.19-.63-.5-.73-.54-.18-1.09-.22-1.59.14-.13.07-.23.17-.3.3Zm.26,2.87c.14.01.23-.04.23-.19,0-.14-.1-.17-.22-.17-.13,0-.27,0-.26.19,0,.17.14.16.25.17Z"/>
      <path class="cls-8" d="m23.29,58.85c-.15-.19-.35-.31-.37-.57-.02-.34.1-.58.4-.72.29-.14.58-.1.84.11.26.21.39.48.3.82-.12.48-.47.73-.92.87-.4.12-.79.26-1.06.61-.33.43-.35.82,0,1.22.56.65,1.26.7,1.8-.07.72-1.02,1.43-2.06,2.13-3.1.13-.2.23-.27.42-.09.06.05.12.1.2.14.17.08.16.17.06.32-.74,1.06-1.46,2.13-2.2,3.19-.46.65-1.05.92-1.73.69-.73-.25-1.34-.68-1.62-1.46-.23-.63.22-1.42.96-1.68.26-.09.53-.18.8-.27Zm.59-.72c-.01-.08-.07-.17-.22-.18-.14,0-.23.07-.24.21,0,.15.1.27.22.27.11,0,.25-.08.24-.3Z"/>
      <path class="cls-8" d="m33.51,62.69c-.02.37-.19.68-.49.92-.29.23-.58.46-.76.79-.25.46-.2.96.25,1.28.73.53,1.57.26,1.77-.67.28-1.24.6-2.48.88-3.72.04-.17.09-.19.23-.16.15.04.3.08.46.11.15.03.09.12.07.2-.17.72-.35,1.44-.53,2.16-.15.61-.31,1.23-.46,1.84-.15.6-.56.94-1.15,1.05-.65.12-1.25-.07-1.79-.41-.74-.46-.86-1.41-.28-2.07.17-.19.36-.35.56-.49.21-.15.28-.25-.02-.39-.27-.13-.42-.5-.36-.72.09-.32.39-.59.71-.58.54.02.87.26.9.84Zm-.67-.13c.01-.14-.05-.24-.2-.24-.14,0-.27.07-.27.21,0,.13.12.25.24.25.1,0,.27-.04.23-.23Z"/>
      <path class="cls-9" d="m44,63.22c.07-.13.17-.23.3-.3,0,.21-.1.31-.3.3Z"/>
      <path class="cls-9" d="m17.35,50.75c-.05-.06-.1-.11-.15-.17.17-.02.26.07.35.17-.06,0-.13,0-.19,0Z"/>
      <path class="cls-9" d="m12.42,42.32s-.09-.09-.06-.14c.04-.06.11-.03.17-.03,0,.08-.04.14-.12.17Z"/>
      <path class="cls-9" d="m16.18,52.85c.11,0,.18.04.15.16-.09-.01-.14-.07-.15-.16Z"/>
      <path class="cls-9" d="m13.26,44.18c-.04.09-.1.15-.18.18-.02-.14.04-.2.18-.18Z"/>
      <path class="cls-9" d="m12.96,42.31c.09.04.15.1.18.19-.14.02-.2-.05-.18-.19Z"/>
      <path class="cls-9" d="m16.59,52.54c-.08-.05-.14-.1-.18-.19.14-.01.2.05.18.19Z"/>
      <path class="cls-9" d="m43.67,64.49c-.07.07-.13.13-.2.2-.03-.16.03-.23.2-.2Z"/>
      <path class="cls-9" d="m15.4,52.11s.08.08.12.12c-.19.11-.09-.06-.12-.12Z"/>
      <path class="cls-9" d="m14.42,54.86s0,.08,0,.12c-.03-.02-.07-.03-.08-.06-.01-.04.03-.06.07-.06Z"/>
      <path class="cls-9" d="m14.68,55.47s.08,0,.12,0c0,.04-.01.08-.06.08-.05,0-.05-.04-.06-.08Z"/>
      <path class="cls-9" d="m15.27,55.22s.02-.06.07-.04c-.02.01-.04.03-.07.04Z"/>
      <path class="cls-9" d="m16.3,53.79s-.06-.02-.04-.06c.01.02.03.04.04.06Z"/>
      <path class="cls-9" d="m18.09,53.61s0-.06.05-.04c-.02.01-.04.03-.05.04Z"/>
      <path class="cls-9" d="m18.21,53.55s.01-.06.06-.05c-.02.02-.04.03-.06.05Z"/>
      <path class="cls-9" d="m15.7,54.98s.01-.06.05-.04c-.02.01-.04.03-.05.04Z"/>
      <path class="cls-9" d="m14.86,55.46s.02-.06.06-.04c-.02.01-.04.03-.06.04Z"/>
      <path class="cls-9" d="m15.7,53.05s-.05-.01-.06-.04c.02.01.04.03.06.04Z"/>
      <path class="cls-9" d="m18.7,53.01s.01-.05.05-.05c-.02.02-.03.04-.05.05Z"/>
      <path class="cls-9" d="m51.41,57.55s.02-.06.06-.04c-.02.01-.04.03-.06.04Z"/>
      <path class="cls-9" d="m23.58,54.16s.04,0,.06,0c0,.02,0,.03-.01.05-.01-.01-.03-.03-.04-.04Z"/>
      <path class="cls-15" d="m37.72,47.83c0,.17,0,.34.02.51.03.23-.09.3-.27.31-.83.04-1.65.21-2.47.3,0,0-.02,0-.03,0-.18.02-.37.2-.51.07-.12-.12-.13-.34-.2-.52-.21-.61-.42-1.21-.63-1.82.41.01.77.2,1.15.3.99.26,1.95.61,2.94.85Z"/>
      <path class="cls-8" d="m57.2,53.62c-.12.15-.26.29-.41.41-.19-.15-.38-.3-.58-.44-.14-.1-.13-.18.04-.23.32.08.62.22.95.26Z"/>
      <path class="cls-10" d="m69.78,33.53c.02.17.06.34.05.51-.05.79.07,1.58.04,2.38-.03.76.06,1.52.11,2.29.08,1.04.17,2.07.11,3.11-.07,1.14-.23,2.28-.49,3.4-.17.71-.29,1.43-.54,2.12-.36.96-.9,1.82-1.44,2.69-1.07,1.74-2.29,3.38-3.53,5-1.05,1.37-2.13,2.72-3.27,4.02-.25.28-.5.57-.73.86-.12.14-.21.19-.35.04-.63-.68-1.26-1.35-1.9-2.02-.12-.12-.02-.17.04-.24.42-.46.9-.87,1.3-1.35.9-1.06,1.75-2.15,2.6-3.24,1.14-1.46,2.21-2.95,3.22-4.5.69-1.07,1.37-2.14,1.72-3.39.38-1.32.65-2.67.93-4.02.41-2.02.8-4.04,1.41-6.01.16-.53.32-1.07.59-1.56.02-.04.03-.1.12-.09Z"/>
      <path class="cls-10" d="m69.55,46.85c-.04.61-.08,1.22-.13,1.82-.04.43-.07.87-.16,1.29-.11.52-.09,1.05-.29,1.56-.08.21-.08.49-.12.75-.12.9-.56,1.63-1.12,2.31-.26.32-.52.65-.78.96-.19.23-.42.46-.62.7-.62.73-1.38,1.31-1.98,2.05-.1.12-.23.19-.34.29-.52.5-1.07.98-1.61,1.46-.32.28-.64.58-1,.81-.16.1-.18.38-.42.33-.2-.04-.28-.24-.43-.35-.2-.14-.26-.39-.45-.54-.08-.07.03-.14.08-.19,1.06-1.05,1.95-2.24,2.88-3.4,1.58-1.99,3.12-4.01,4.51-6.14.76-1.17,1.47-2.37,1.98-3.7Z"/>
      <path class="cls-10" d="m66.19,45.42c-.28.95-.64,1.85-1.17,2.69-1.11,1.73-2.31,3.4-3.56,5.02-.97,1.25-1.94,2.51-3.04,3.66-.23.24-.39.54-.7.72-.16.09-.23.07-.35-.04-.56-.57-1.13-1.15-1.71-1.71-.15-.14-.13-.23,0-.36.54-.49,1.1-.97,1.61-1.49,1.2-1.22,2.35-2.49,3.3-3.92.06-.09.13-.17.24-.2,1.85-.51,3.23-1.7,4.41-3.14.33-.4.63-.81.94-1.23Z"/>
      <path class="cls-10" d="m60.79,49.49c.55-.82,1.11-1.62,1.64-2.45.93-1.42,1.69-2.92,2.08-4.59.06-.26.12-.52.15-.79.02-.18.08-.19.23-.14.68.25,1.36.49,2.05.72.2.07.17.2.15.35-.12,1.13-.72,2.04-1.34,2.94-.57.83-1.22,1.6-1.97,2.27-.8.72-1.68,1.3-2.72,1.62-.1.03-.19.06-.29.05h0Z"/>
      <path class="cls-10" d="m68.91,53.09c.07-.29.13-.59.2-.88.23-.93.38-1.87.46-2.83.07-.76.12-1.51.19-2.27.05-.65.05-1.3.11-1.95.02-.25.14-.3.36-.26.68.14,1.35.28,2.03.42.2.04.26.13.21.35-.39,1.71-.96,3.35-1.8,4.9-.43.8-.94,1.56-1.5,2.28-.07.08-.12.17-.18.26-.02,0-.05-.01-.07-.02Z"/>
      <path class="cls-10" d="m60.78,49.49s0,.02-.01.03c0,0,0-.02.01-.03,0,0,0,0,0,0Z"/>
      <path class="cls-7" d="m45.43,58.42c-.27.13-.53.05-.76.01-1.09-.17-2.11.05-3.1.47-.23.1-.47.16-.68.29-.21.13-.4.09-.58-.01-.78-.42-1.58-.79-2.47-.91-.62-.08-1.23,0-1.83.2-.06.02-.12.05-.16,0-.06-.06.02-.1.04-.15.46-1.11.92-2.21,1.37-3.32.06-.15.13-.3.18-.46.09-.26.21-.47.53-.48.11,0,.16-.11.19-.21.05-.14.14-.27.16-.41.06-.38.32-.44.63-.44.53,0,1.06-.04,1.56.22.15.08.33-.06.49-.11.4-.12.81-.13,1.22-.1.3.02.47.17.54.46.03.13.12.25.17.38.06.16.14.25.32.23.15-.02.25.04.32.2.61,1.38,1.23,2.75,1.85,4.13Zm-4.63-2.05c.08-.03.17-.05.25-.08.59-.28,1.2-.45,1.86-.41.22.02.45,0,.7,0-.39-.87-.76-1.7-1.13-2.54-.02-.06-.06-.09-.14-.09-.46.02-.93-.07-1.39.07-.14.04-.32.08-.31.32.02.9.01,1.81.02,2.72.04.12.08.04.13,0Zm-.45,0s.08.11.11,0c0-.91,0-1.83.01-2.74,0-.2-.13-.25-.27-.3-.48-.17-.97-.11-1.46-.12-.08,0-.12.03-.15.1-.34.81-.69,1.61-1.03,2.42-.04.11-.06.14.12.13.43-.04.86-.06,1.29.02.48.1.9.34,1.36.49Zm-2.74-1.74s-.06.02-.04.06c-.03.08-.05.16-.08.25-.04,0-.06,0-.05.05-.02.08-.05.16-.07.24-.04,0-.06.01-.05.06-.1.27-.21.53-.31.8-.26.64-.52,1.28-.78,1.91-.03.06-.08.13-.04.19.04.06.13.04.19.02.97-.24,1.91-.12,2.82.27.43.18.86.37,1.31.57,0-.76,0-1.48,0-2.21,0-.12-.04-.18-.14-.23-.94-.46-1.9-.83-2.97-.49-.05.01-.12.1-.18.01-.05-.07.02-.12.05-.17.23-.51.46-1.03.63-1.56.04-.04.11-.07,0-.11-.04,0-.08,0-.12,0-.04-.02-.05,0-.04.04-.04.1-.14.18-.14.3Zm6.32,1.47c-.28.08-.52-.02-.76-.04-.82-.07-1.56.19-2.29.49-.09.04-.17.09-.16.22,0,.75,0,1.5,0,2.26.29-.05.51-.19.76-.29.71-.28,1.42-.54,2.19-.53.39,0,.77,0,1.16.02.23.01.31-.04.19-.27-.17-.33-.31-.67-.47-1.01-.37-.83-.75-1.66-1.12-2.5-.05-.11-.13-.13-.21-.09-.11.05,0,.12.01.17.23.53.47,1.06.7,1.59Z"/>
      <path class="cls-9" d="m16.89,51.1c.04.19-.13.23-.23.23-.13,0-.24-.12-.24-.25,0-.14.12-.22.26-.22.16,0,.23.09.21.25Z"/>
      <path class="cls-9" d="m11.78,42.47c.18.13.34.27.23.51-.05.11-.22.1-.29.03-.18-.18-.06-.36.06-.54Z"/>
      <path class="cls-9" d="m10.18,43.28c-.15.01-.22-.07-.22-.21,0-.12.05-.2.19-.21.16,0,.23.08.23.23,0,.13-.07.2-.2.19Z"/>
      <path class="cls-9" d="m44.26,66.09c-.11,0-.25,0-.25-.17,0-.19.12-.19.26-.19.12,0,.22.02.22.17,0,.15-.09.21-.23.19Z"/>
      <path class="cls-9" d="m23.88,58.13c0,.22-.13.3-.24.3-.13,0-.23-.12-.22-.27,0-.14.1-.21.24-.21.14,0,.21.09.22.18Z"/>
      <path class="cls-9" d="m32.84,62.56c.04.19-.13.23-.23.23-.12,0-.24-.12-.24-.25,0-.14.13-.21.27-.21.15,0,.21.09.2.24Z"/>
      <path class="cls-15" d="m43.93,56.1c-.24-.54-.47-1.06-.7-1.59-.02-.05-.12-.12-.01-.17.08-.03.16-.02.21.09.37.84.74,1.67,1.12,2.5.15.34.3.68.47,1.01.12.24.05.28-.19.27-.39-.02-.77-.02-1.16-.02-.77,0-1.49.25-2.19.53-.24.1-.47.24-.76.29,0-.76,0-1.51,0-2.26,0-.13.08-.18.16-.22.74-.3,1.48-.56,2.29-.49.24.02.48.12.76.04Z"/>
      <path class="cls-15" d="m37.38,55.22c.02-.08.05-.16.07-.24l.05-.05c.03-.08.05-.16.08-.25.01-.02.03-.04.04-.06,0-.12.1-.19.14-.3.02,0,.03-.02.04-.04.04,0,.08,0,.12,0,0,.04,0,.07,0,.11-.18.53-.41,1.05-.63,1.56-.02.05-.1.1-.05.17.06.09.13,0,.18-.01,1.07-.34,2.03.03,2.97.49.1.05.14.11.14.23,0,.72,0,1.45,0,2.21-.45-.2-.88-.38-1.31-.57-.91-.39-1.85-.51-2.82-.27-.07.02-.15.04-.19-.02-.04-.06.01-.12.04-.19.26-.64.52-1.27.78-1.91.11-.27.21-.53.31-.8.02-.02.03-.04.05-.06Z"/>
      <path class="cls-15" d="m40.35,56.36c-.46-.15-.88-.39-1.36-.49-.43-.09-.87-.06-1.29-.02-.18.02-.17-.02-.12-.13.34-.81.69-1.61,1.03-2.42.03-.08.07-.1.15-.1.49.01.98-.05,1.46.12.14.05.27.09.27.3-.01.91-.01,1.83-.01,2.74-.04,0-.08,0-.11,0Z"/>
      <path class="cls-15" d="m40.68,56.36c0-.91,0-1.81-.02-2.72,0-.24.17-.28.31-.32.45-.13.92-.05,1.39-.07.07,0,.11.04.14.09.37.83.74,1.67,1.13,2.54-.26,0-.48.01-.7,0-.66-.05-1.27.12-1.86.41-.08.04-.17.06-.25.08-.04,0-.09,0-.13,0Z"/>
      <path class="cls-8" d="m40.35,56.36s.08,0,.11,0c-.03.12-.07.04-.11,0Z"/>
      <path class="cls-8" d="m40.68,56.36s.09,0,.13,0c-.05.03-.09.11-.13,0Z"/>
      <path class="cls-8" d="m37.91,54.39s0-.07,0-.11c.11.03.04.07,0,.11Z"/>
      <path class="cls-8" d="m37.79,54.29s-.02.03-.04.04c-.01-.04,0-.05.04-.04Z"/>
      <path class="cls-8" d="m37.61,54.62s-.03.04-.04.06c-.02-.04,0-.05.04-.06Z"/>
      <path class="cls-8" d="m37.38,55.22s-.03.04-.05.06c-.01-.04.01-.05.05-.06Z"/>
      <path class="cls-8" d="m37.5,54.93l-.05.05s0-.05.05-.05Z"/>
    </g>
  </g>
</svg>